<svg width="55" height="58" viewBox="0 0 55 58" fill="none" xmlns="http://www.w3.org/2000/svg">
<path d="M8.84813 45.0801C8.72536 44.9164 8.67264 44.7107 8.70157 44.5081C8.73051 44.3056 8.83871 44.1228 9.0024 44C9.1661 43.8772 9.37187 43.8245 9.57443 43.8535C9.77699 43.8824 9.95975 43.9906 10.0825 44.1543L11.1626 45.5965L15.3169 40C15.4397 39.8363 15.6225 39.7281 15.825 39.6992C16.0276 39.6702 16.2334 39.7229 16.3971 39.8457C16.5608 39.9685 16.669 40.1513 16.6979 40.3538C16.7269 40.5564 16.6742 40.7621 16.5514 40.9258L11.768 47.3353C11.6964 47.4334 11.6026 47.5132 11.4943 47.5683C11.3861 47.6233 11.2663 47.652 11.1449 47.652C11.0234 47.652 10.9036 47.6233 10.7954 47.5683C10.6871 47.5132 10.5933 47.4334 10.5217 47.3353L8.84813 45.0801ZM14.8897 44.7003C14.8563 44.6041 14.8424 44.5022 14.8488 44.4006C14.8553 44.299 14.882 44.1997 14.9273 44.1085C14.9726 44.0173 15.0357 43.9361 15.1128 43.8695C15.1899 43.803 15.2795 43.7525 15.3763 43.7211C15.57 43.6587 15.7803 43.6748 15.9623 43.7657C16.1443 43.8567 16.2833 44.0154 16.3496 44.2077C16.7113 45.3317 16.6947 46.5432 16.3024 47.6568C15.91 48.7704 15.1636 49.7248 14.1772 50.3738C13.1909 51.0228 12.019 51.3307 10.841 51.2503C9.66302 51.1699 8.54386 50.7057 7.65481 49.9287C6.76577 49.1517 6.15584 48.1048 5.91841 46.9482C5.68097 45.7916 5.82911 44.5891 6.34015 43.5247C6.85119 42.4603 7.69697 41.5927 8.74801 41.0548C9.79905 40.5168 10.9974 40.3381 12.1597 40.546C12.4662 40.595 12.7666 40.6766 13.0558 40.7893C13.2314 40.8712 13.3697 41.0162 13.4433 41.1953C13.5169 41.3745 13.5204 41.5748 13.4532 41.7565C13.3859 41.9381 13.2527 42.0878 13.0802 42.1758C12.9076 42.2638 12.7082 42.2837 12.5217 42.2315C11.831 41.9898 11.0863 41.9473 10.3727 42.109C9.65902 42.2706 9.00523 42.6298 8.48608 43.1454C7.79948 43.8809 7.42586 44.8547 7.44425 45.8607C7.46264 46.8667 7.87162 47.8262 8.58465 48.5361C9.29767 49.2461 10.2588 49.6509 11.2649 49.6649C12.271 49.6789 13.2432 49.3011 13.9757 48.6113C14.4801 48.1111 14.8334 47.4789 14.995 46.7872C15.1566 46.0955 15.1202 45.3722 14.8897 44.7003ZM18.9015 34.7062C18.6969 34.7062 18.5007 34.625 18.356 34.4803C18.2113 34.3356 18.13 34.1394 18.13 33.9347C18.13 33.7301 18.2113 33.5339 18.356 33.3892C18.5007 33.2445 18.6969 33.1632 18.9015 33.1632H26.0232C26.2278 33.1632 26.424 33.2445 26.5687 33.3892C26.7134 33.5339 26.7947 33.7301 26.7947 33.9347C26.7947 34.1394 26.7134 34.3356 26.5687 34.4803C26.424 34.625 26.2278 34.7062 26.0232 34.7062H18.9015ZM18.9015 30.095C18.6969 30.095 18.5007 30.0137 18.356 29.869C18.2113 29.7243 18.13 29.5281 18.13 29.3235C18.13 29.1188 18.2113 28.9226 18.356 28.7779C18.5007 28.6332 18.6969 28.5519 18.9015 28.5519H29.5484C29.753 28.5519 29.9493 28.6332 30.0939 28.7779C30.2386 28.9226 30.3199 29.1188 30.3199 29.3235C30.3199 29.5281 30.2386 29.7243 30.0939 29.869C29.9493 30.0137 29.753 30.095 29.5484 30.095H18.9015ZM8.84813 31.2166C8.72536 31.0529 8.67264 30.8472 8.70157 30.6446C8.73051 30.4421 8.83871 30.2593 9.0024 30.1365C9.1661 30.0137 9.37187 29.961 9.57443 29.99C9.77699 30.0189 9.95975 30.1271 10.0825 30.2908L11.1626 31.7389L15.3169 26.1365C15.4397 25.9728 15.6225 25.8646 15.825 25.8357C16.0276 25.8067 16.2334 25.8594 16.3971 25.9822C16.5608 26.105 16.669 26.2878 16.6979 26.4903C16.7269 26.6929 16.6742 26.8986 16.5514 27.0623L11.768 33.4778C11.6956 33.5748 11.6016 33.6535 11.4934 33.7078C11.3853 33.7621 11.2659 33.7903 11.1449 33.7903C11.0238 33.7903 10.9045 33.7621 10.7963 33.7078C10.6881 33.6535 10.5941 33.5748 10.5217 33.4778L8.84813 31.2166ZM14.8897 30.8368C14.8489 30.7389 14.8287 30.6336 14.8304 30.5276C14.8321 30.4216 14.8557 30.317 14.8996 30.2205C14.9436 30.1239 15.0069 30.0375 15.0858 29.9666C15.1646 29.8956 15.2572 29.8417 15.3578 29.8082C15.4585 29.7746 15.5649 29.7622 15.6706 29.7716C15.7762 29.7811 15.8788 29.8122 15.9718 29.8631C16.0649 29.9139 16.1465 29.9834 16.2115 30.0673C16.2765 30.1511 16.3235 30.2474 16.3496 30.3502C16.7099 31.4744 16.6919 32.6856 16.2983 33.7986C15.9048 34.9116 15.1574 35.865 14.1706 36.5129C13.1837 37.1608 12.0118 37.4675 10.8341 37.3861C9.65637 37.3046 8.5378 36.8396 7.64952 36.062C6.76125 35.2844 6.1522 34.2372 5.91562 33.0807C5.67903 31.9241 5.82795 30.7219 6.33953 29.658C6.85112 28.5941 7.69721 27.7271 8.74834 27.1897C9.79946 26.6523 10.9977 26.4742 12.1597 26.6825C12.4656 26.7341 12.7658 26.8156 13.0558 26.9258C13.2468 26.9978 13.4015 27.1425 13.486 27.3282C13.5706 27.514 13.5781 27.7257 13.5069 27.9169C13.4725 28.0118 13.4196 28.0988 13.3513 28.173C13.283 28.2472 13.2006 28.307 13.1089 28.349C13.0171 28.391 12.918 28.4143 12.8172 28.4175C12.7164 28.4208 12.6159 28.4039 12.5217 28.368C11.8678 28.1364 11.1639 28.0845 10.4831 28.2178C9.80244 28.3511 9.16997 28.6647 8.65177 29.1258C8.13356 29.5869 7.74861 30.1786 7.53709 30.8392C7.32556 31.4998 7.29522 32.205 7.44921 32.8814C7.60321 33.5577 7.93591 34.1803 8.41259 34.6842C8.88927 35.1881 9.49243 35.5548 10.1592 35.7461C10.8259 35.9374 11.5318 35.9462 12.2031 35.7716C12.8744 35.5971 13.4866 35.2455 13.9757 34.7537C14.48 34.2522 14.8331 33.619 14.9948 32.9264C15.1564 32.2338 15.1199 31.5097 14.8897 30.8368ZM8.84813 17.187C8.77935 17.1067 8.72779 17.0131 8.69668 16.912C8.66558 16.811 8.65559 16.7046 8.66731 16.5996C8.67902 16.4945 8.71218 16.3929 8.76478 16.3012C8.81738 16.2095 8.88829 16.1296 8.97306 16.0664C9.05784 16.0032 9.15467 15.9582 9.25759 15.934C9.36051 15.9098 9.46731 15.907 9.57135 15.9259C9.67539 15.9447 9.77447 15.9847 9.8624 16.0434C9.95033 16.1021 10.0252 16.1782 10.0825 16.2671L11.1626 17.7092L15.3169 12.1128C15.4442 11.9643 15.623 11.8696 15.8174 11.8479C16.0118 11.8262 16.2071 11.8792 16.3639 11.996C16.5207 12.1129 16.6273 12.2849 16.6621 12.4774C16.6969 12.6698 16.6573 12.8683 16.5514 13.0327L11.768 19.454C11.6956 19.551 11.6016 19.6298 11.4934 19.6841C11.3853 19.7383 11.2659 19.7666 11.1449 19.7666C11.0238 19.7666 10.9045 19.7383 10.7963 19.6841C10.6881 19.6298 10.5941 19.551 10.5217 19.454L8.84813 17.187ZM14.8897 16.8071C14.8489 16.7092 14.8287 16.604 14.8304 16.4979C14.8321 16.3919 14.8557 16.2873 14.8996 16.1908C14.9436 16.0943 15.0069 16.0078 15.0858 15.9369C15.1646 15.8659 15.2572 15.812 15.3578 15.7785C15.4585 15.7449 15.5649 15.7325 15.6706 15.742C15.7762 15.7514 15.8788 15.7825 15.9718 15.8334C16.0649 15.8843 16.1465 15.9538 16.2115 16.0376C16.2765 16.1214 16.3235 16.2177 16.3496 16.3205C16.7099 17.4447 16.6919 18.656 16.2983 19.769C15.9048 20.882 15.1574 21.8354 14.1706 22.4833C13.1837 23.1311 12.0118 23.4378 10.8341 23.3564C9.65637 23.275 8.5378 22.8099 7.64952 22.0323C6.76125 21.2548 6.1522 20.2076 5.91562 19.051C5.67903 17.8944 5.82795 16.6922 6.33953 15.6283C6.85112 14.5644 7.69721 13.6974 8.74834 13.16C9.79946 12.6227 10.9977 12.4445 12.1597 12.6528C12.465 12.7074 12.7649 12.7888 13.0558 12.8962C13.2468 12.9681 13.4015 13.1128 13.486 13.2986C13.5706 13.4843 13.5781 13.696 13.5069 13.8873C13.4725 13.9821 13.4196 14.0691 13.3513 14.1433C13.283 14.2175 13.2006 14.2773 13.1089 14.3193C13.0171 14.3613 12.918 14.3846 12.8172 14.3878C12.7164 14.3911 12.6159 14.3743 12.5217 14.3383C11.8678 14.1067 11.1639 14.0549 10.4831 14.1882C9.80244 14.3215 9.16997 14.635 8.65177 15.0961C8.13356 15.5572 7.74861 16.1489 7.53709 16.8095C7.32556 17.4701 7.29522 18.1754 7.44921 18.8517C7.60321 19.528 7.93591 20.1506 8.41259 20.6545C8.88927 21.1584 9.49243 21.5251 10.1592 21.7164C10.8259 21.9077 11.5318 21.9165 12.2031 21.742C12.8744 21.5674 13.4866 21.2159 13.9757 20.7241C14.48 20.2226 14.8331 19.5893 14.9948 18.8967C15.1564 18.2041 15.1199 17.48 14.8897 16.8071ZM18.9015 48.5816C18.6969 48.5816 18.5007 48.5003 18.356 48.3556C18.2113 48.211 18.13 48.0147 18.13 47.8101C18.13 47.6055 18.2113 47.4092 18.356 47.2646C18.5007 47.1199 18.6969 47.0386 18.9015 47.0386H24.8362C25.0408 47.0386 25.2371 47.1199 25.3818 47.2646C25.5265 47.4092 25.6078 47.6055 25.6078 47.8101C25.6078 48.0147 25.5265 48.211 25.3818 48.3556C25.2371 48.5003 25.0408 48.5816 24.8362 48.5816H18.9015ZM18.9015 43.9703C18.6969 43.9703 18.5007 43.8891 18.356 43.7444C18.2113 43.5997 18.13 43.4034 18.13 43.1988C18.13 42.9942 18.2113 42.798 18.356 42.6533C18.5007 42.5086 18.6969 42.4273 18.9015 42.4273H23.1152C23.3198 42.4273 23.516 42.5086 23.6607 42.6533C23.8054 42.798 23.8867 42.9942 23.8867 43.1988C23.8867 43.4034 23.8054 43.5997 23.6607 43.7444C23.516 43.8891 23.3198 43.9703 23.1152 43.9703H18.9015ZM18.9015 16.0772C18.6969 16.0772 18.5007 15.9959 18.356 15.8512C18.2113 15.7065 18.13 15.5103 18.13 15.3057C18.13 15.101 18.2113 14.9048 18.356 14.7601C18.5007 14.6154 18.6969 14.5341 18.9015 14.5341H33.8689C34.0735 14.5341 34.2697 14.6154 34.4144 14.7601C34.5591 14.9048 34.6404 15.101 34.6404 15.3057C34.6404 15.5103 34.5591 15.7065 34.4144 15.8512C34.2697 15.9959 34.0735 16.0772 33.8689 16.0772H18.9015ZM18.9015 20.6884C18.6969 20.6884 18.5007 20.6072 18.356 20.4625C18.2113 20.3178 18.13 20.1215 18.13 19.9169C18.13 19.7123 18.2113 19.5161 18.356 19.3714C18.5007 19.2267 18.6969 19.1454 18.9015 19.1454H25.857C26.0616 19.1454 26.2579 19.2267 26.4026 19.3714C26.5472 19.5161 26.6285 19.7123 26.6285 19.9169C26.6285 20.1215 26.5472 20.3178 26.4026 20.4625C26.2579 20.6072 26.0616 20.6884 25.857 20.6884H18.9015ZM3.47124 8.77153H7.03207C7.28225 8.77153 7.52999 8.72225 7.76113 8.62652C7.99226 8.53078 8.20226 8.39045 8.37916 8.21355C8.55606 8.03665 8.69639 7.82664 8.79213 7.59551C8.88787 7.36438 8.93713 7.11666 8.93713 6.86648V3.30565L3.47124 8.77153ZM10.4802 2.24334V6.84868C10.477 7.76323 10.1119 8.63933 9.46468 9.28546C8.81743 9.93159 7.94072 10.2952 7.02617 10.2968H2.37927V53.8873C2.37763 54.3906 2.57399 54.8743 2.92598 55.2341C3.27797 55.5939 3.75734 55.8008 4.26057 55.8101H37.9935C38.2445 55.8093 38.4928 55.7591 38.7243 55.6624C38.9559 55.5656 39.1661 55.4242 39.343 55.2462C39.5199 55.0682 39.66 54.8571 39.7553 54.6249C39.8507 54.3928 39.8993 54.1441 39.8985 53.8932V35.6617L35.2754 43.6677C35.2144 43.7769 35.1266 43.8689 35.0202 43.9347L27.584 49.0801C27.4634 49.1607 27.3224 49.2053 27.1774 49.2088C27.0324 49.2123 26.8894 49.1745 26.765 49.0999C26.6407 49.0253 26.5401 48.9169 26.4749 48.7873C26.4098 48.6577 26.3828 48.5123 26.3971 48.368L27.3704 39.4659C27.3838 39.3392 27.4265 39.2173 27.495 39.1098L39.9164 17.6024V4.10684C39.9148 3.6005 39.7129 3.11534 39.3549 2.7573C38.9969 2.39926 38.5117 2.19742 38.0054 2.19586L10.4802 2.24334ZM41.4 18.1662C41.3815 18.2118 41.3554 18.2539 41.3229 18.2908L28.8719 39.7864L28.1181 46.8546L34.0529 42.7537L39.9876 32.4511C40.0038 32.4173 40.0237 32.3855 40.0469 32.3561L49.6493 15.7389L44.4979 12.7715L41.4 18.1662ZM41.4713 33.0327V53.9407C41.4697 54.8562 41.1053 55.7339 40.4579 56.3813C39.8104 57.0287 38.9328 57.3931 38.0172 57.3947H4.26057C3.34554 57.3931 2.46853 57.0285 1.82206 56.3809C1.17559 55.7333 0.812499 54.8557 0.8125 53.9407V9.5193C0.814167 9.31497 0.895011 9.11926 1.03802 8.97331L9.12704 0.884287C9.19899 0.81089 9.28488 0.752607 9.37966 0.71286C9.47444 0.673114 9.57619 0.652705 9.67897 0.652833H37.9876C38.9027 0.655961 39.7794 1.02087 40.4265 1.66794C41.0736 2.31502 41.4385 3.19174 41.4416 4.10684V14.9258L46.3081 6.4926C46.3579 6.40452 46.4248 6.32722 46.5047 6.26515C46.5847 6.20308 46.6762 6.15748 46.7738 6.13098C46.8715 6.10449 46.9735 6.09763 47.0738 6.11081C47.1742 6.12398 47.2709 6.15692 47.3585 6.20773L53.8451 9.95847C53.9333 10.0083 54.0106 10.0752 54.0726 10.1553C54.1345 10.2354 54.1798 10.3271 54.2058 10.425C54.2318 10.5228 54.2379 10.6249 54.2239 10.7252C54.2099 10.8255 54.1759 10.9219 54.1241 11.0089L41.4713 33.0327ZM52.2546 16.4807C52.2897 16.3709 52.3489 16.2703 52.4279 16.1864C52.5069 16.1024 52.6037 16.0373 52.7112 15.9957C52.8187 15.954 52.9342 15.9371 53.0491 15.9459C53.1641 15.9548 53.2756 15.9894 53.3754 16.047C53.4752 16.1046 53.5609 16.1839 53.626 16.279C53.6912 16.3741 53.7343 16.4826 53.752 16.5965C53.7697 16.7104 53.7617 16.8268 53.7285 16.9372C53.6953 17.0476 53.6379 17.1492 53.5603 17.2344L49.4594 24.3561C49.3565 24.5318 49.1884 24.6597 48.9916 24.7119C48.7949 24.7642 48.5854 24.7365 48.4089 24.635C48.3209 24.5852 48.2436 24.5183 48.1815 24.4384C48.1194 24.3584 48.0738 24.2669 48.0473 24.1692C48.0208 24.0716 48.014 23.9696 48.0272 23.8692C48.0403 23.7689 48.0733 23.6721 48.1241 23.5846L52.2546 16.4807ZM45.2754 11.4481L50.4327 14.4154L52.4386 10.9377L47.2813 7.97034L45.2754 11.4481Z" fill="url(#paint0_linear_474_215)"/>
<defs>
<linearGradient id="paint0_linear_474_215" x1="0.8125" y1="29.0238" x2="70.9659" y2="29.0237" gradientUnits="userSpaceOnUse">
<stop stop-color="#35C5F5"/>
<stop offset="0.56636" stop-color="#147AA3"/>
<stop offset="1" stop-color="#004C70"/>
</linearGradient>
</defs>
</svg>
