<svg width="49" height="51" viewBox="0 0 49 51" fill="none" xmlns="http://www.w3.org/2000/svg">
<path d="M41.2155 7.59913C41.1858 5.31426 38.9544 3.37956 34.7585 1.99677C31.0968 0.80983 26.1057 0.0976562 21.0612 0.0976562C16.0167 0.0976562 10.9722 0.792013 7.34011 2.0027C3.12646 3.39142 0.906899 5.34394 0.906899 7.64068V18.6793C0.906899 20.976 3.12646 22.9285 7.34011 24.3113C11.0018 25.4982 16.0048 26.2164 21.0612 26.2164H22.5567V24.525C22.5507 24.4202 22.5507 24.3152 22.5567 24.2104C22.0523 24.2104 21.5478 24.2104 21.0434 24.2104C16.0642 24.2104 11.4054 23.5695 7.90986 22.43C4.71698 21.3677 2.88907 20.0086 2.88907 18.6971V11.1006L3.13836 11.2787C6.44993 13.6526 13.4766 15.1778 21.0434 15.1778C28.6102 15.1778 35.6309 13.6466 38.9484 11.2787L39.1977 11.1006V18.6793C39.1762 18.9653 39.0973 19.2441 38.9658 19.499C38.8343 19.7539 38.6528 19.9797 38.4321 20.1629L40.5805 20.5843H40.6339C41.0096 20.0146 41.2154 19.3497 41.2274 18.6674L41.2155 7.59913ZM34.1888 11.3736C30.711 12.5309 26.0463 13.154 21.0612 13.154C16.076 13.154 11.4232 12.5131 7.93358 11.3736C4.74071 10.3113 2.91283 8.94632 2.9069 7.64068C2.90096 6.33504 4.74071 4.96412 7.93358 3.90774C11.4113 2.72079 16.076 2.12732 21.0612 2.12732C26.0463 2.12732 30.711 2.76827 34.1888 3.90774C37.3816 4.97005 39.2155 6.33504 39.2155 7.64068C39.2155 8.94632 37.352 10.3054 34.1591 11.3736H34.1888Z" fill="url(#paint0_linear_474_233)"/>
<path d="M22.5271 35.071V37.0769H21.0375C15.9692 37.0769 10.9484 36.3885 7.31639 35.1778C3.10274 33.7831 0.883137 31.8365 0.883137 29.5398V24.9345C0.883132 24.6695 0.987991 24.4153 1.1748 24.2274C1.36161 24.0394 1.61519 23.9331 1.88017 23.9315C2.01391 23.9237 2.1478 23.9444 2.273 23.992C2.3982 24.0397 2.51188 24.1133 2.60661 24.208C2.70134 24.3028 2.77498 24.4165 2.82264 24.5417C2.8703 24.6669 2.89089 24.8007 2.88313 24.9345V29.5398C2.88313 30.8514 4.71104 32.2045 7.90392 33.2727C11.3876 34.4597 16.0523 35.0532 21.0375 35.0532C21.53 35.0947 22.0286 35.0888 22.5271 35.071Z" fill="url(#paint1_linear_474_233)"/>
<path d="M27.898 47.8069C25.6206 48.0966 23.3272 48.2413 21.0315 48.2402C15.9751 48.2402 10.9425 47.5458 7.31043 46.341C3.09678 44.9464 0.859393 43.0117 0.859393 40.6971V36.0977C0.85861 35.9663 0.883821 35.836 0.933577 35.7143C0.983332 35.5927 1.05666 35.4821 1.14932 35.3889C1.24198 35.2957 1.35216 35.2217 1.47351 35.1712C1.59487 35.1207 1.72499 35.0948 1.85642 35.0948C1.98993 35.0879 2.1234 35.1092 2.24817 35.1572C2.37294 35.2052 2.48624 35.2788 2.58077 35.3734C2.67529 35.4679 2.74895 35.5812 2.79694 35.706C2.84493 35.8307 2.86621 35.9642 2.85939 36.0977V40.6971C2.85939 42.0087 4.6873 43.3677 7.88017 44.436C11.3757 45.6229 16.0345 46.2164 21.0137 46.2164C22.6992 46.2164 24.3549 46.1452 25.9276 46.0028L26.1235 46.2105C26.2837 46.3767 26.444 46.5309 26.6161 46.6971C27.0315 47.0888 27.4529 47.4508 27.898 47.8069Z" fill="url(#paint2_linear_474_233)"/>
<path d="M42.7644 30.1155C42.6473 30.0036 42.5063 29.9199 42.3521 29.8705C42.1979 29.8212 42.0345 29.8075 41.8742 29.8306C41.6495 29.8502 41.4391 29.9491 41.2807 30.1096L34.7051 36.6852L33.8683 35.8425L33.2273 35.2075C32.8772 34.8573 32.527 34.5131 32.1828 34.163L31.9514 33.9315C31.8802 33.8544 31.803 33.7832 31.7258 33.706C31.5354 33.5193 31.2804 33.4131 31.0137 33.4093H30.9721C30.8351 33.408 30.6995 33.4363 30.5745 33.4923C30.4604 33.5368 30.3586 33.6081 30.2778 33.7001C30.0889 33.8949 29.9832 34.1557 29.9832 34.4271C29.9832 34.6985 30.0889 34.9592 30.2778 35.1541L32.1887 37.071L33.524 38.4004L33.987 38.8633C34.0819 38.9579 34.1949 39.0325 34.3194 39.0824C34.4438 39.1324 34.577 39.1568 34.711 39.1541C34.9811 39.1556 35.241 39.0512 35.435 38.8633L42.1057 32.1926C42.3074 31.9968 42.5092 31.795 42.6991 31.5992H42.7288C42.923 31.3924 43.0276 31.1172 43.0196 30.8336C43.0312 30.7026 43.0145 30.5706 42.9704 30.4467C42.9264 30.3227 42.8561 30.2098 42.7644 30.1155Z" fill="url(#paint3_linear_474_233)"/>
<path d="M48.076 23.8425C47.9527 23.664 47.7695 23.5356 47.5597 23.4805L46.8356 23.3321L46.4974 23.2669L36.9544 21.3677H36.355L35.441 21.5517L32.6814 22.0977L29.5478 22.7268L28.4262 22.9464L28.0345 23.0294L26.8475 23.2669L26.4499 23.344C26.1472 23.3974 25.8564 23.4568 25.5241 23.528H25.4885L25.2689 23.6229C25.1639 23.6775 25.0757 23.7595 25.0137 23.8603C24.9699 23.9133 24.932 23.971 24.901 24.0324C24.8245 24.1748 24.7837 24.3337 24.7823 24.4953V39.2253C24.7945 39.4504 24.8323 39.6734 24.895 39.89V39.9553C24.9822 40.3124 25.0933 40.6634 25.2274 41.0057C25.5247 41.775 25.909 42.5077 26.3728 43.1897C26.7572 43.7551 27.1838 44.2908 27.6487 44.7921C27.7378 44.893 27.8327 44.9939 27.9276 45.0888C28.0226 45.1838 28.2184 45.3796 28.3668 45.522C28.8462 45.9757 29.3494 46.4036 29.8743 46.8039C30.171 47.0354 30.4677 47.2669 30.8179 47.4864C31.0256 47.6348 31.2392 47.7713 31.4529 47.9137C32.428 48.5392 33.4453 49.0964 34.4974 49.5814C35.1021 49.8772 35.7222 50.1407 36.355 50.3707H36.4084C36.7629 50.4237 37.1245 50.3434 37.4232 50.1452L37.5538 50.0858C38.1057 49.8307 38.6458 49.5695 39.1562 49.3025C40.0822 48.822 40.9835 48.2951 41.8564 47.7238C43.2443 46.8252 44.5161 45.7588 45.6428 44.5487C46.4029 43.7319 47.0424 42.8106 47.5419 41.8128C47.8616 41.1917 48.0914 40.5283 48.2244 39.8425C48.2804 39.5609 48.3122 39.275 48.3193 38.9879V24.4597C48.3087 24.243 48.2298 24.0353 48.0938 23.8662L48.076 23.8425ZM46.2422 39.2728C46.1679 39.6971 46.0506 40.1126 45.892 40.5131C45.571 41.212 45.1729 41.8729 44.7051 42.4835C43.9182 43.4592 43.0199 44.3396 42.0285 45.1066C40.6798 46.1209 39.2394 47.0071 37.7259 47.7535C37.4529 47.89 37.1799 48.0146 36.9069 48.1452L36.5805 48.2995L36.5152 48.2698L36.2956 48.1808C35.1314 47.6857 34.0048 47.1066 32.9247 46.4479C32.717 46.3232 32.5152 46.1927 32.3312 46.0621C31.9455 45.8128 31.536 45.528 31.0434 45.1541C30.806 44.9642 30.5923 44.7861 30.3846 44.6081C29.6789 44.0052 29.0312 43.3376 28.4499 42.614C27.9555 41.968 27.541 41.2646 27.2155 40.5191C27.0425 40.086 26.9055 39.6394 26.806 39.1838V25.3499H26.9366L27.1324 25.3143L29.3104 24.8811L29.7377 24.7921C30.7822 24.5903 31.8268 24.3766 32.8713 24.1689L33.7259 23.9968L35.5894 23.6289L36.1057 23.528L36.6161 23.4271H36.6814L37.4232 23.5695H37.4647L38.527 23.7832L39.714 24.0146L42.0345 24.4775L45.7793 25.2194L46.1532 25.2965L46.2778 25.3262V38.6793C46.2541 38.8574 46.254 39.071 46.2422 39.2668V39.2728Z" fill="url(#paint4_linear_474_233)"/>
<defs>
<linearGradient id="paint0_linear_474_233" x1="0.859375" y1="25.2421" x2="63.1872" y2="25.2421" gradientUnits="userSpaceOnUse">
<stop stop-color="#35C5F5"/>
<stop offset="0.56636" stop-color="#147AA3"/>
<stop offset="1" stop-color="#004C70"/>
</linearGradient>
<linearGradient id="paint1_linear_474_233" x1="0.859375" y1="25.2421" x2="63.1872" y2="25.2421" gradientUnits="userSpaceOnUse">
<stop stop-color="#35C5F5"/>
<stop offset="0.56636" stop-color="#147AA3"/>
<stop offset="1" stop-color="#004C70"/>
</linearGradient>
<linearGradient id="paint2_linear_474_233" x1="0.859375" y1="25.2421" x2="63.1872" y2="25.2421" gradientUnits="userSpaceOnUse">
<stop stop-color="#35C5F5"/>
<stop offset="0.56636" stop-color="#147AA3"/>
<stop offset="1" stop-color="#004C70"/>
</linearGradient>
<linearGradient id="paint3_linear_474_233" x1="0.859375" y1="25.2421" x2="63.1872" y2="25.2421" gradientUnits="userSpaceOnUse">
<stop stop-color="#35C5F5"/>
<stop offset="0.56636" stop-color="#147AA3"/>
<stop offset="1" stop-color="#004C70"/>
</linearGradient>
<linearGradient id="paint4_linear_474_233" x1="0.859375" y1="25.2421" x2="63.1872" y2="25.2421" gradientUnits="userSpaceOnUse">
<stop stop-color="#35C5F5"/>
<stop offset="0.56636" stop-color="#147AA3"/>
<stop offset="1" stop-color="#004C70"/>
</linearGradient>
</defs>
</svg>
