<svg width="52" height="54" viewBox="0 0 52 54" fill="none" xmlns="http://www.w3.org/2000/svg">
<path d="M51.7684 52.6234L45.4004 43.7213C45.3237 43.6151 45.223 43.5286 45.1064 43.4688C44.9899 43.4089 44.8608 43.3775 44.7298 43.3771H11.163V7.25838C11.1633 7.12872 11.1328 7.00085 11.074 6.88529C11.0152 6.76973 10.9297 6.66979 10.8248 6.59369L1.92269 0.225734C1.80053 0.138736 1.65696 0.0866865 1.50743 0.075184C1.3579 0.0636815 1.20806 0.0931617 1.07403 0.160453C0.939364 0.22879 0.826395 0.333279 0.747779 0.462209C0.669163 0.59114 0.628005 0.739417 0.628921 0.890423V53.1159C0.628921 53.3332 0.715208 53.5415 0.868799 53.6951C1.02239 53.8487 1.2307 53.9349 1.44791 53.9349H51.0978C51.2485 53.9342 51.3962 53.8922 51.5247 53.8134C51.6533 53.7347 51.7578 53.6222 51.8269 53.4883C51.896 53.3543 51.9271 53.204 51.9168 53.0536C51.9065 52.9032 51.8552 52.7585 51.7684 52.6352V52.6234ZM40.9079 48.4691C40.6906 48.4691 40.4823 48.5553 40.3287 48.7089C40.1752 48.8625 40.0889 49.0708 40.0889 49.2881V52.2851H37.9108V50.5581C37.8933 50.3521 37.7991 50.1603 37.6469 50.0205C37.4947 49.8806 37.2956 49.8031 37.0889 49.8031C36.8822 49.8031 36.683 49.8806 36.5308 50.0205C36.3786 50.1603 36.2844 50.3521 36.2669 50.5581V52.2851H34.0889V49.2881C34.0714 49.0821 33.9772 48.8903 33.825 48.7504C33.6727 48.6106 33.4736 48.533 33.2669 48.533C33.0602 48.533 32.8611 48.6106 32.7089 48.7504C32.5566 48.8903 32.4625 49.0821 32.445 49.2881V52.2851H30.2669V50.5581C30.2669 50.3409 30.1806 50.1326 30.027 49.979C29.8734 49.8254 29.6651 49.7391 29.4479 49.7391C29.2307 49.7391 29.0224 49.8254 28.8688 49.979C28.7152 50.1326 28.6289 50.3409 28.6289 50.5581V52.2851H26.4509V49.2881C26.4334 49.0821 26.3392 48.8903 26.187 48.7504C26.0348 48.6106 25.8356 48.533 25.6289 48.533C25.4222 48.533 25.2231 48.6106 25.0709 48.7504C24.9187 48.8903 24.8245 49.0821 24.807 49.2881V52.2851H22.6289V50.5581C22.6114 50.3521 22.5172 50.1603 22.365 50.0205C22.2128 49.8806 22.0137 49.8031 21.807 49.8031C21.6003 49.8031 21.4011 49.8806 21.2489 50.0205C21.0967 50.1603 21.0025 50.3521 20.985 50.5581V52.2851H18.807V49.2881C18.807 49.0708 18.7207 48.8625 18.5671 48.7089C18.4135 48.5553 18.2052 48.4691 17.988 48.4691C17.7708 48.4691 17.5625 48.5553 17.4089 48.7089C17.2553 48.8625 17.169 49.0708 17.169 49.2881V52.2851H15.0147V50.5581C15.0147 50.3409 14.9284 50.1326 14.7748 49.979C14.6212 49.8254 14.4129 49.7391 14.1957 49.7391C13.9785 49.7391 13.7702 49.8254 13.6166 49.979C13.463 50.1326 13.3767 50.3409 13.3767 50.5581V52.2851H11.163V49.2881C11.163 49.0708 11.0768 48.8625 10.9232 48.7089C10.7696 48.5553 10.5613 48.4691 10.3441 48.4691C10.1268 48.4691 9.91853 48.5553 9.76494 48.7089C9.61135 48.8625 9.52507 49.0708 9.52507 49.2881V52.2851H7.34702V50.5581C7.32951 50.3521 7.23533 50.1603 7.08311 50.0205C6.9309 49.8806 6.73175 49.8031 6.52506 49.8031C6.31838 49.8031 6.11923 49.8806 5.96702 50.0205C5.8148 50.1603 5.72062 50.3521 5.70311 50.5581V52.2851H2.2491V47.5373H3.9761C4.19331 47.5373 4.40163 47.451 4.55522 47.2974C4.70881 47.1438 4.79509 46.9355 4.79509 46.7183C4.79509 46.5011 4.70881 46.2928 4.55522 46.1392C4.40163 45.9856 4.19331 45.8993 3.9761 45.8993H2.2491V43.7213H5.25207C5.46928 43.7213 5.67759 43.635 5.83118 43.4814C5.98477 43.3278 6.07106 43.1195 6.07106 42.9023C6.07106 42.6851 5.98477 42.4768 5.83118 42.3232C5.67759 42.1696 5.46928 42.0833 5.25207 42.0833H2.2491V39.9171H3.9761C4.19331 39.9171 4.40163 39.8308 4.55522 39.6773C4.70881 39.5237 4.79509 39.3154 4.79509 39.0981C4.79509 38.8809 4.70881 38.6726 4.55522 38.519C4.40163 38.3654 4.19331 38.2792 3.9761 38.2792H2.2491V36.1011H5.25207C5.45801 36.0836 5.64987 35.9894 5.78969 35.8372C5.9295 35.685 6.00709 35.4858 6.00709 35.2791C6.00709 35.0725 5.9295 34.8733 5.78969 34.7211C5.64987 34.5689 5.45801 34.4747 5.25207 34.4572H2.2491V32.2791H3.9761C4.18204 32.2616 4.3739 32.1675 4.51372 32.0152C4.65354 31.863 4.73112 31.6639 4.73112 31.4572C4.73112 31.2505 4.65354 31.0514 4.51372 30.8991C4.3739 30.7469 4.18204 30.6527 3.9761 30.6352H2.2491V28.4572H5.25207C5.46928 28.4572 5.67759 28.3709 5.83118 28.2173C5.98477 28.0637 6.07106 27.8554 6.07106 27.6382C6.07106 27.421 5.98477 27.2127 5.83118 27.0591C5.67759 26.9055 5.46928 26.8192 5.25207 26.8192H2.2491V24.6352H3.9761C4.19331 24.6352 4.40163 24.5489 4.55522 24.3954C4.70881 24.2418 4.79509 24.0334 4.79509 23.8162C4.79509 23.599 4.70881 23.3907 4.55522 23.2371C4.40163 23.0835 4.19331 22.9972 3.9761 22.9972H2.2491V20.8192H5.25207C5.45801 20.8017 5.64987 20.7075 5.78969 20.5553C5.9295 20.4031 6.00709 20.2039 6.00709 19.9972C6.00709 19.7906 5.9295 19.5914 5.78969 19.4392C5.64987 19.287 5.45801 19.1928 5.25207 19.1753H2.2491V17.0151H3.9761C4.18204 16.9975 4.3739 16.9034 4.51372 16.7511C4.65354 16.5989 4.73112 16.3998 4.73112 16.1931C4.73112 15.9864 4.65354 15.7873 4.51372 15.635C4.3739 15.4828 4.18204 15.3887 3.9761 15.3711H2.2491V13.1753H5.25207C5.45801 13.1578 5.64987 13.0636 5.78969 12.9114C5.9295 12.7592 6.00709 12.56 6.00709 12.3533C6.00709 12.1467 5.9295 11.9475 5.78969 11.7953C5.64987 11.6431 5.45801 11.5489 5.25207 11.5314H2.2491V2.48686L9.52507 7.67974V44.1961C9.52507 44.4133 9.61135 44.6216 9.76494 44.7752C9.91853 44.9288 10.1268 45.0151 10.3441 45.0151H44.3085L49.5013 52.2851H41.7209V49.2881C41.7209 49.0719 41.6355 48.8645 41.4831 48.711C41.3308 48.5576 41.124 48.4706 40.9079 48.4691Z" fill="url(#paint0_linear_474_324)"/>
<path d="M48.6526 5.9943C48.6526 4.17827 46.8722 2.64712 43.6081 1.567C40.1747 0.549054 36.6074 0.0548677 33.0265 0.101121C29.4387 0.0572977 25.865 0.557539 22.4271 1.5848C19.169 2.65898 17.3885 4.20201 17.3885 6.02397V14.5284C17.3885 16.3504 19.1334 17.8934 22.4212 18.9795C25.8597 20.0027 29.4334 20.4989 33.0206 20.4513C36.6078 20.4989 40.1815 20.0027 43.62 18.9795C46.9078 17.8934 48.6526 16.3504 48.6526 14.5284V5.9943ZM19.169 8.92011C21.7506 10.7658 27.1096 11.9468 33.0147 11.9468C38.9197 11.9468 44.2906 10.7599 46.8604 8.92011V14.5284C46.8604 15.4661 45.4479 16.4928 43.0799 17.2821C39.8083 18.2601 36.4051 18.7265 32.9909 18.6649C29.5768 18.7262 26.1737 18.2597 22.9019 17.2821C20.528 16.4928 19.1215 15.4661 19.1215 14.5284L19.169 8.92011ZM43.0799 8.78362C39.8078 9.75902 36.4048 10.2234 32.9909 10.1605C29.5989 10.2173 26.2183 9.75293 22.9672 8.78362C20.5933 7.9943 19.1868 6.96759 19.1808 6.02397C19.1749 5.08035 20.5992 4.05364 22.9672 3.26433C26.2303 2.29425 29.6228 1.82991 33.0265 1.88747C36.4407 1.82586 39.8439 2.29229 43.1156 3.27026C45.4894 4.05364 46.896 5.08628 46.896 6.02397C46.896 6.96166 45.4598 7.9943 43.0918 8.78362H43.0799Z" fill="url(#paint1_linear_474_324)"/>
<path d="M47.7625 18.4513C47.5259 18.4528 47.2995 18.5479 47.1327 18.7158C46.9659 18.8837 46.8723 19.1108 46.8723 19.3474V22.9082C46.8723 23.8459 45.4599 24.8786 43.0919 25.6679C39.8202 26.6459 36.417 27.1123 33.0029 27.0507C29.5887 27.1119 26.1856 26.6455 22.9139 25.6679C20.5934 24.8548 19.1691 23.8281 19.1691 22.8904V19.3296C19.1749 19.2109 19.156 19.0922 19.1134 18.9812C19.0708 18.8702 19.0056 18.7693 18.9218 18.685C18.838 18.6007 18.7376 18.5347 18.6269 18.4914C18.5161 18.4481 18.3976 18.4284 18.2788 18.4335C18.1601 18.4342 18.0428 18.4586 17.9336 18.5051C17.8244 18.5515 17.7255 18.6193 17.6426 18.7043C17.5598 18.7893 17.4947 18.89 17.4511 19.0004C17.4075 19.1108 17.3863 19.2287 17.3886 19.3474V22.9082C17.3886 24.7302 19.1691 26.2554 22.4272 27.3415C25.8663 28.3618 29.4396 28.858 33.0266 28.8133C36.6136 28.858 40.1869 28.3618 43.626 27.3415C46.9198 26.2554 48.6587 24.7124 48.6587 22.8845V19.3237C48.6525 19.0901 48.5553 18.8682 48.3879 18.7053C48.2206 18.5423 47.9961 18.4512 47.7625 18.4513Z" fill="url(#paint2_linear_474_324)"/>
<path d="M47.7625 27.0269C47.5269 27.0285 47.3013 27.1228 47.1347 27.2894C46.9681 27.456 46.8738 27.6815 46.8723 27.9172V31.478C46.8723 32.4157 45.4598 33.4483 43.0919 34.2376C39.8198 35.2134 36.4167 35.6778 33.0028 35.6145C29.589 35.6774 26.1859 35.213 22.9138 34.2376C20.5399 33.4483 19.1334 32.4157 19.1334 31.478V27.9172C19.1385 27.7989 19.1189 27.6809 19.0759 27.5706C19.033 27.4603 18.9676 27.3602 18.8839 27.2765C18.8002 27.1928 18.7 27.1274 18.5897 27.0844C18.4795 27.0415 18.3615 27.0219 18.2432 27.0269C18.0138 27.0376 17.7973 27.1359 17.6383 27.3015C17.4792 27.4672 17.3899 27.6875 17.3886 27.9172V31.478C17.3886 33.3059 19.1334 34.843 22.4212 35.929C25.8597 36.9523 29.4334 37.4485 33.0206 37.4008C36.6078 37.4485 40.1816 36.9523 43.6201 35.929C46.9079 34.843 48.6527 33.3059 48.6527 31.478V27.9172C48.6527 27.6811 48.5589 27.4546 48.392 27.2877C48.225 27.1207 47.9986 27.0269 47.7625 27.0269Z" fill="url(#paint3_linear_474_324)"/>
<defs>
<linearGradient id="paint0_linear_474_324" x1="0.628907" y1="27.0038" x2="67.9864" y2="27.0038" gradientUnits="userSpaceOnUse">
<stop stop-color="#35C5F5"/>
<stop offset="0.56636" stop-color="#147AA3"/>
<stop offset="1" stop-color="#004C70"/>
</linearGradient>
<linearGradient id="paint1_linear_474_324" x1="0.628907" y1="27.0038" x2="67.9864" y2="27.0038" gradientUnits="userSpaceOnUse">
<stop stop-color="#35C5F5"/>
<stop offset="0.56636" stop-color="#147AA3"/>
<stop offset="1" stop-color="#004C70"/>
</linearGradient>
<linearGradient id="paint2_linear_474_324" x1="0.628907" y1="27.0038" x2="67.9864" y2="27.0038" gradientUnits="userSpaceOnUse">
<stop stop-color="#35C5F5"/>
<stop offset="0.56636" stop-color="#147AA3"/>
<stop offset="1" stop-color="#004C70"/>
</linearGradient>
<linearGradient id="paint3_linear_474_324" x1="0.628907" y1="27.0038" x2="67.9864" y2="27.0038" gradientUnits="userSpaceOnUse">
<stop stop-color="#35C5F5"/>
<stop offset="0.56636" stop-color="#147AA3"/>
<stop offset="1" stop-color="#004C70"/>
</linearGradient>
</defs>
</svg>
