<svg width="226" height="46" viewBox="0 0 226 46" fill="none" xmlns="http://www.w3.org/2000/svg">
<path d="M94.4766 12.264V2.14683C94.4766 2.07244 94.551 1.99805 94.6254 1.99805H97.0802C97.8985 1.99805 98.5681 2.22122 99.0144 2.74196C99.5352 3.26269 99.7583 3.93221 99.7583 4.75051V9.51154C99.7583 10.4042 99.5352 11.0737 99.0144 11.5201C98.5681 12.0408 97.8985 12.264 97.0802 12.264H94.6254C94.551 12.4128 94.4766 12.3384 94.4766 12.264ZM95.9644 11.1481H97.0802C97.4522 11.1481 97.7498 10.9994 97.9729 10.7018C98.1961 10.4042 98.3449 10.0323 98.3449 9.51154V4.89929C98.3449 4.37856 98.1961 4.0066 97.9729 3.70904C97.7498 3.41147 97.4522 3.26269 97.0802 3.26269H95.9644C95.89 3.26269 95.89 3.26269 95.89 3.33708L95.9644 11.1481Z" fill="#249BD0"/>
<path d="M105.784 12.264L105.486 10.553C105.486 10.553 105.486 10.553 105.486 10.4786C105.486 10.4786 105.486 10.4786 105.412 10.4786H103.031C103.031 10.4786 103.031 10.4786 102.957 10.4786C102.957 10.4786 102.957 10.4786 102.957 10.553L102.659 12.264C102.659 12.3384 102.585 12.4128 102.511 12.4128H101.395C101.32 12.4128 101.32 12.4128 101.32 12.3384C101.32 12.3384 101.32 12.264 101.32 12.1896L103.552 2.14683C103.552 2.07244 103.626 1.99805 103.701 1.99805H105.04C105.114 1.99805 105.189 2.07244 105.189 2.14683L107.42 12.1896C107.42 12.264 107.346 12.3384 107.272 12.3384H106.081C105.858 12.4128 105.784 12.3384 105.784 12.264ZM103.18 9.36275H105.114C105.114 9.36275 105.189 9.36275 105.189 9.28836L104.147 4.0066L103.18 9.36275Z" fill="#249BD0"/>
<path d="M113.298 2.14683V3.11391C113.298 3.1883 113.224 3.26269 113.149 3.26269H111.215C111.141 3.26269 111.141 3.26269 111.141 3.33708V12.264C111.141 12.3384 111.067 12.4128 110.992 12.4128H109.876C109.802 12.4128 109.727 12.3384 109.727 12.264V3.33708C109.727 3.26269 109.727 3.26269 109.653 3.26269H107.793C107.719 3.26269 107.645 3.1883 107.645 3.11391V2.14683C107.645 2.07244 107.719 1.99805 107.793 1.99805H113.075C113.298 1.99805 113.298 2.07244 113.298 2.14683Z" fill="#249BD0"/>
<path d="M118.729 12.264L118.432 10.553C118.432 10.553 118.432 10.553 118.432 10.4786C118.432 10.4786 118.432 10.4786 118.357 10.4786H115.977C115.977 10.4786 115.977 10.4786 115.902 10.4786C115.902 10.4786 115.902 10.4786 115.902 10.553L115.605 12.264C115.605 12.3384 115.53 12.4128 115.456 12.4128H114.34C114.266 12.4128 114.266 12.4128 114.266 12.3384C114.266 12.3384 114.266 12.264 114.266 12.1896L116.497 2.14683C116.497 2.07244 116.572 1.99805 116.646 1.99805H117.985C118.06 1.99805 118.134 2.07244 118.134 2.14683L120.366 12.1896C120.366 12.264 120.291 12.3384 120.217 12.3384H119.027C118.803 12.4128 118.729 12.3384 118.729 12.264ZM116.125 9.36275H118.06C118.06 9.36275 118.134 9.36275 118.134 9.28836L117.092 4.0066L116.125 9.36275C116.051 9.36275 116.051 9.36275 116.125 9.36275Z" fill="#249BD0"/>
<path d="M126.092 11.7436C125.645 11.2229 125.348 10.6278 125.348 9.80945V9.4375C125.348 9.36311 125.422 9.28871 125.496 9.28871H126.612C126.687 9.28871 126.761 9.36311 126.761 9.4375V9.73506C126.761 10.1814 126.91 10.5534 127.133 10.8509C127.356 11.1485 127.654 11.2229 128.026 11.2229C128.398 11.2229 128.695 11.0741 128.918 10.8509C129.142 10.6278 129.29 10.2558 129.29 9.80945C129.29 9.51189 129.216 9.28872 129.142 9.06554C128.993 8.84237 128.844 8.61919 128.621 8.47041C128.398 8.32163 128.1 8.02407 127.654 7.7265C127.133 7.35455 126.761 7.05698 126.464 6.75942C126.166 6.46185 125.943 6.16429 125.72 5.79234C125.496 5.42038 125.422 4.97403 125.422 4.4533C125.422 3.63499 125.645 3.03987 126.166 2.51913C126.687 1.99839 127.282 1.84961 128.026 1.84961C128.844 1.84961 129.439 2.07278 129.96 2.59352C130.481 3.11426 130.704 3.78378 130.704 4.60208V4.97404C130.704 5.04843 130.629 5.12282 130.555 5.12282H129.216C129.142 5.12282 129.067 5.04843 129.067 4.97404V4.60208C129.067 4.15574 128.918 3.78378 128.695 3.56061C128.472 3.26304 128.175 3.18865 127.803 3.18865C127.431 3.18865 127.207 3.33743 126.984 3.56061C126.761 3.78378 126.687 4.15574 126.687 4.60208C126.687 4.97404 126.761 5.34599 126.984 5.56916C127.207 5.79233 127.654 6.23868 128.249 6.68503C128.844 7.13137 129.29 7.50333 129.588 7.80089C129.886 8.09846 130.109 8.39602 130.257 8.69359C130.406 8.99115 130.481 9.4375 130.481 9.88384C130.481 10.7021 130.257 11.3717 129.737 11.8924C129.216 12.4131 128.621 12.6363 127.877 12.6363C127.133 12.6363 126.538 12.2644 126.092 11.7436Z" fill="#249BD0"/>
<path d="M133.232 11.7436C132.711 11.2229 132.488 10.6278 132.488 9.80945V4.52769C132.488 3.70938 132.711 3.03987 133.232 2.59352C133.753 2.14717 134.348 1.84961 135.166 1.84961C135.985 1.84961 136.654 2.07278 137.101 2.59352C137.547 3.11426 137.844 3.70938 137.844 4.52769V4.75086C137.844 4.82525 137.77 4.89964 137.696 4.89964L136.58 4.97404C136.505 4.97404 136.431 4.89964 136.431 4.82525V4.4533C136.431 4.08134 136.282 3.70939 136.059 3.48622C135.836 3.26304 135.538 3.11426 135.166 3.11426C134.794 3.11426 134.497 3.26304 134.274 3.48622C134.05 3.70939 133.902 4.08134 133.902 4.4533V9.88384C133.902 10.2558 134.05 10.6278 134.274 10.8509C134.497 11.0741 134.794 11.2229 135.166 11.2229C135.538 11.2229 135.836 11.0741 136.059 10.8509C136.282 10.6278 136.431 10.2558 136.431 9.88384V9.51189C136.431 9.4375 136.505 9.3631 136.58 9.3631L137.696 9.4375C137.77 9.4375 137.844 9.51189 137.844 9.58628V9.80945C137.844 10.6278 137.621 11.2973 137.101 11.7436C136.58 12.2644 135.985 12.4875 135.166 12.4875C134.422 12.4875 133.753 12.2644 133.232 11.7436Z" fill="#249BD0"/>
<path d="M140.152 12.264V2.14683C140.152 2.07244 140.227 1.99805 140.301 1.99805H141.417C141.491 1.99805 141.566 2.07244 141.566 2.14683V12.1896C141.566 12.264 141.491 12.3384 141.417 12.3384H140.301C140.227 12.4128 140.152 12.3384 140.152 12.264Z" fill="#249BD0"/>
<path d="M149.007 3.26269H145.66C145.585 3.26269 145.585 3.26269 145.585 3.33708V6.5359C145.585 6.61029 145.585 6.61029 145.66 6.61029H147.668C147.743 6.61029 147.817 6.68468 147.817 6.75907V7.72615C147.817 7.80055 147.743 7.87493 147.668 7.87493H145.66C145.585 7.87493 145.585 7.87494 145.585 7.94933V11.1481C145.585 11.2225 145.585 11.2225 145.66 11.2225H149.007C149.082 11.2225 149.156 11.2969 149.156 11.3713V12.3384C149.156 12.4128 149.082 12.4872 149.007 12.4872H144.321C144.246 12.4872 144.172 12.4128 144.172 12.3384V2.14683C144.172 2.07244 144.246 1.99805 144.321 1.99805H149.007C149.082 1.99805 149.156 2.07244 149.156 2.14683V3.11391C149.156 3.1883 149.082 3.26269 149.007 3.26269Z" fill="#249BD0"/>
<path d="M155.627 1.99805H156.743C156.817 1.99805 156.892 2.07244 156.892 2.14683V12.1896C156.892 12.264 156.817 12.3384 156.743 12.3384H155.478C155.404 12.3384 155.33 12.264 155.33 12.1896L152.8 5.42003C152.8 5.42003 152.8 5.42003 152.726 5.42003V12.1152C152.726 12.1896 152.652 12.264 152.577 12.264H151.461C151.387 12.264 151.312 12.1896 151.312 12.1152V2.14683C151.312 2.07244 151.387 1.99805 151.461 1.99805H152.726C152.8 1.99805 152.875 2.07244 152.875 2.14683L155.404 8.91641C155.404 8.91641 155.404 8.9908 155.478 8.91641C155.478 8.91641 155.478 8.91641 155.478 8.84202V2.14683C155.478 2.07244 155.553 1.99805 155.627 1.99805Z" fill="#249BD0"/>
<path d="M159.939 11.7436C159.418 11.2229 159.195 10.6278 159.195 9.80945V4.52769C159.195 3.70938 159.418 3.03987 159.939 2.59352C160.46 2.14717 161.055 1.84961 161.873 1.84961C162.692 1.84961 163.361 2.07278 163.808 2.59352C164.254 3.11426 164.551 3.70938 164.551 4.52769V4.75086C164.551 4.82525 164.477 4.89964 164.403 4.89964L163.287 4.97404C163.212 4.97404 163.138 4.89964 163.138 4.82525V4.4533C163.138 4.08134 162.989 3.70939 162.766 3.48622C162.543 3.26304 162.245 3.11426 161.873 3.11426C161.501 3.11426 161.204 3.26304 160.981 3.48622C160.758 3.70939 160.609 4.08134 160.609 4.4533V9.88384C160.609 10.2558 160.758 10.6278 160.981 10.8509C161.204 11.0741 161.501 11.2229 161.873 11.2229C162.245 11.2229 162.543 11.0741 162.766 10.8509C162.989 10.6278 163.138 10.2558 163.138 9.88384V9.51189C163.138 9.4375 163.212 9.3631 163.287 9.3631L164.403 9.4375C164.477 9.4375 164.551 9.51189 164.551 9.58628V9.80945C164.551 10.6278 164.328 11.2973 163.808 11.7436C163.287 12.2644 162.692 12.4875 161.873 12.4875C161.129 12.4875 160.46 12.2644 159.939 11.7436Z" fill="#249BD0"/>
<path d="M171.695 3.26269H168.347C168.273 3.26269 168.273 3.26269 168.273 3.33708V6.5359C168.273 6.61029 168.273 6.61029 168.347 6.61029H170.356C170.43 6.61029 170.505 6.68468 170.505 6.75907V7.72615C170.505 7.80055 170.43 7.87493 170.356 7.87493H168.347C168.273 7.87493 168.273 7.87494 168.273 7.94933V11.1481C168.273 11.2225 168.273 11.2225 168.347 11.2225H171.695C171.769 11.2225 171.844 11.2969 171.844 11.3713V12.3384C171.844 12.4128 171.769 12.4872 171.695 12.4872H167.008C166.934 12.4872 166.859 12.4128 166.859 12.3384V2.14683C166.859 2.07244 166.934 1.99805 167.008 1.99805H171.695C171.769 1.99805 171.844 2.07244 171.844 2.14683V3.11391C171.844 3.1883 171.769 3.26269 171.695 3.26269Z" fill="#249BD0"/>
<path d="M99.312 18.1416H100.428C100.502 18.1416 100.577 18.216 100.577 18.2904V28.3332C100.577 28.4076 100.502 28.482 100.428 28.482H99.312C99.2376 28.482 99.1632 28.4076 99.1632 28.3332V20.9685V20.8941C99.1632 20.8941 99.1632 20.8941 99.0888 20.8941L97.6754 23.5721C97.6754 23.6465 97.601 23.6465 97.5266 23.6465C97.4522 23.6465 97.4522 23.6465 97.3778 23.5721L95.9644 20.9685C95.9644 20.9685 95.9644 20.9685 95.89 20.9685C95.89 20.9685 95.89 20.9685 95.89 21.0429V28.3332C95.89 28.4076 95.8156 28.482 95.7412 28.482H94.6254C94.551 28.482 94.4766 28.4076 94.4766 28.3332V18.2904C94.4766 18.216 94.551 18.1416 94.6254 18.1416H95.7412C95.8156 18.1416 95.89 18.1416 95.89 18.216L97.4522 20.9685C97.4522 20.9685 97.4522 20.9685 97.5266 20.9685C97.5266 20.9685 97.5266 20.9685 97.601 20.9685L99.1632 18.216C99.1632 18.1416 99.2376 18.1416 99.312 18.1416Z" fill="#249BD0"/>
<path d="M106.975 28.3324L106.678 26.6214C106.678 26.6214 106.678 26.6214 106.678 26.547C106.678 26.547 106.678 26.547 106.603 26.547H104.223C104.223 26.547 104.223 26.547 104.148 26.547C104.148 26.547 104.148 26.547 104.148 26.6214L103.851 28.3324C103.851 28.4068 103.776 28.4811 103.702 28.4811H102.586C102.512 28.4811 102.512 28.4811 102.512 28.4068C102.512 28.4068 102.512 28.3324 102.512 28.258L104.743 18.2152C104.743 18.1408 104.818 18.0664 104.892 18.0664H106.231C106.306 18.0664 106.38 18.1408 106.38 18.2152L108.612 28.258C108.612 28.3324 108.537 28.4068 108.463 28.4068H107.273C107.05 28.4811 106.975 28.4068 106.975 28.3324ZM104.371 25.4311H106.306C106.306 25.4311 106.38 25.4311 106.38 25.3567L105.339 20.075L104.371 25.4311Z" fill="#249BD0"/>
<path d="M110.619 27.8862C110.098 27.3655 109.875 26.7703 109.875 25.952V20.6703C109.875 19.852 110.098 19.1824 110.619 18.7361C111.14 18.2898 111.735 17.9922 112.553 17.9922C113.371 17.9922 114.041 18.2154 114.487 18.7361C114.934 19.2568 115.231 19.852 115.231 20.6703V20.8934C115.231 20.9678 115.157 21.0422 115.082 21.0422L113.967 21.1166C113.892 21.1166 113.818 21.0422 113.818 20.9678V20.5959C113.818 20.2239 113.669 19.852 113.446 19.6288C113.223 19.4056 112.925 19.2568 112.553 19.2568C112.181 19.2568 111.884 19.4056 111.66 19.6288C111.437 19.852 111.288 20.2239 111.288 20.5959V26.0264C111.288 26.3984 111.437 26.7703 111.66 26.9935C111.884 27.2167 112.181 27.3655 112.553 27.3655C112.925 27.3655 113.223 27.2167 113.446 26.9935C113.669 26.7703 113.818 26.3984 113.818 26.0264V25.6545C113.818 25.5801 113.892 25.5057 113.967 25.5057L115.082 25.5801C115.157 25.5801 115.231 25.6545 115.231 25.7288V25.952C115.231 26.7703 115.008 27.4398 114.487 27.8862C113.967 28.4069 113.371 28.6301 112.553 28.6301C111.735 28.6301 111.14 28.3325 110.619 27.8862Z" fill="#249BD0"/>
<path d="M121.482 18.1416H122.598C122.672 18.1416 122.746 18.216 122.746 18.2904V28.3332C122.746 28.4076 122.672 28.482 122.598 28.482H121.482C121.407 28.482 121.333 28.4076 121.333 28.3332V23.9441C121.333 23.8697 121.333 23.8697 121.259 23.8697H119.027C118.952 23.8697 118.953 23.8697 118.953 23.9441V28.3332C118.953 28.4076 118.878 28.482 118.804 28.482H117.688C117.613 28.482 117.539 28.4076 117.539 28.3332V18.2904C117.539 18.216 117.613 18.1416 117.688 18.1416H118.804C118.878 18.1416 118.953 18.216 118.953 18.2904V22.6051C118.953 22.6795 118.952 22.6795 119.027 22.6795H121.259C121.333 22.6795 121.333 22.6795 121.333 22.6051V18.2904C121.333 18.1416 121.333 18.1416 121.482 18.1416Z" fill="#249BD0"/>
<path d="M125.273 28.3332V18.2904C125.273 18.216 125.348 18.1416 125.422 18.1416H126.538C126.612 18.1416 126.687 18.216 126.687 18.2904V28.3332C126.687 28.4076 126.612 28.482 126.538 28.482H125.422C125.348 28.482 125.273 28.4076 125.273 28.3332Z" fill="#249BD0"/>
<path d="M133.608 18.1408H134.724C134.798 18.1408 134.872 18.2152 134.872 18.2896V28.3324C134.872 28.4068 134.798 28.4811 134.724 28.4811H133.459C133.384 28.4811 133.31 28.4068 133.31 28.3324L130.781 21.5628C130.781 21.5628 130.781 21.5628 130.706 21.5628V28.258C130.706 28.3324 130.632 28.4068 130.558 28.4068H129.442C129.367 28.4068 129.293 28.3324 129.293 28.258V18.2152C129.293 18.1408 129.367 18.0664 129.442 18.0664H130.706C130.781 18.0664 130.855 18.1408 130.855 18.2152L133.384 24.9848C133.384 24.9848 133.384 25.0592 133.459 24.9848C133.459 24.9848 133.459 24.9848 133.459 24.9104V18.2152C133.459 18.1408 133.533 18.1408 133.608 18.1408Z" fill="#249BD0"/>
<path d="M142.238 19.3307H138.89C138.816 19.3307 138.816 19.3307 138.816 19.4051V22.6039C138.816 22.6783 138.816 22.6783 138.89 22.6783H140.899C140.973 22.6783 141.047 22.7527 141.047 22.8271V23.7942C141.047 23.8686 140.973 23.943 140.899 23.943H138.89C138.816 23.943 138.816 23.943 138.816 24.0173V27.2162C138.816 27.2905 138.816 27.2906 138.89 27.2906H142.238C142.312 27.2906 142.387 27.3649 142.387 27.4393V28.4064C142.387 28.4808 142.312 28.5552 142.238 28.5552H137.551C137.477 28.5552 137.402 28.4808 137.402 28.4064V18.3636C137.402 18.2892 137.477 18.2148 137.551 18.2148H142.238C142.312 18.2148 142.387 18.2892 142.387 18.3636V19.3307C142.387 19.3307 142.387 19.3307 142.238 19.3307Z" fill="#249BD0"/>
<path d="M148.262 28.3332V18.2904C148.262 18.216 148.336 18.1416 148.41 18.1416H149.526C149.601 18.1416 149.675 18.216 149.675 18.2904V27.2173C149.675 27.2917 149.675 27.2917 149.75 27.2917H153.097C153.172 27.2917 153.246 27.3661 153.246 27.4405V28.4076C153.246 28.482 153.172 28.5563 153.097 28.5563H148.485C148.336 28.482 148.262 28.4076 148.262 28.3332Z" fill="#249BD0"/>
<path d="M159.867 19.3307H156.519C156.445 19.3307 156.445 19.3307 156.445 19.4051V22.6039C156.445 22.6783 156.445 22.6783 156.519 22.6783H158.528C158.602 22.6783 158.676 22.7527 158.676 22.8271V23.7942C158.676 23.8686 158.602 23.943 158.528 23.943H156.519C156.445 23.943 156.445 23.943 156.445 24.0173V27.2162C156.445 27.2905 156.445 27.2906 156.519 27.2906H159.867C159.941 27.2906 160.015 27.3649 160.015 27.4393V28.4064C160.015 28.4808 159.941 28.5552 159.867 28.5552H155.18C155.106 28.5552 155.031 28.4808 155.031 28.4064V18.3636C155.031 18.2892 155.106 18.2148 155.18 18.2148H159.867C159.941 18.2148 160.015 18.2892 160.015 18.3636V19.3307C160.015 19.3307 159.941 19.3307 159.867 19.3307Z" fill="#249BD0"/>
<path d="M166.338 28.3324L166.041 26.6214C166.041 26.6214 166.041 26.6214 166.041 26.547C166.041 26.547 166.041 26.547 165.967 26.547H163.586C163.586 26.547 163.586 26.547 163.512 26.547C163.512 26.547 163.512 26.547 163.512 26.6214L163.214 28.3324C163.214 28.4068 163.14 28.4811 163.065 28.4811H161.949C161.875 28.4811 161.875 28.4811 161.875 28.4068C161.875 28.4068 161.875 28.3324 161.875 28.258L164.107 18.2152C164.107 18.1408 164.181 18.0664 164.256 18.0664H165.595C165.669 18.0664 165.743 18.1408 165.743 18.2152L167.975 28.258C167.975 28.3324 167.901 28.4068 167.826 28.4068H166.636C166.413 28.4811 166.413 28.4068 166.338 28.3324ZM163.809 25.4311H165.743C165.743 25.4311 165.818 25.4311 165.818 25.3567L164.776 20.075L163.809 25.4311C163.735 25.4311 163.735 25.4311 163.809 25.4311Z" fill="#249BD0"/>
<path d="M173.63 28.3332L172.291 23.9441C172.291 23.9441 172.291 23.8697 172.217 23.8697H171.175C171.101 23.8697 171.101 23.8697 171.101 23.9441V28.3332C171.101 28.4076 171.027 28.482 170.952 28.482H169.836C169.762 28.482 169.688 28.4076 169.688 28.3332V18.2904C169.688 18.216 169.762 18.1416 169.836 18.1416H172.514C173.035 18.1416 173.481 18.2904 173.853 18.5136C174.225 18.7367 174.523 19.1087 174.746 19.555C174.969 20.0014 175.044 20.5221 175.044 21.1172C175.044 21.7124 174.895 22.3075 174.672 22.7538C174.449 23.2002 174.077 23.5721 173.63 23.7209C173.63 23.7209 173.556 23.7953 173.63 23.7953L175.118 28.3332V28.4076C175.118 28.482 175.044 28.482 174.969 28.482H173.779C173.705 28.482 173.63 28.4076 173.63 28.3332ZM171.101 19.4062V22.7538C171.101 22.8282 171.101 22.8282 171.175 22.8282H172.291C172.663 22.8282 173.035 22.6795 173.258 22.3819C173.481 22.0843 173.63 21.638 173.63 21.1172C173.63 20.5965 173.481 20.1502 173.258 19.8526C173.035 19.555 172.663 19.4062 172.291 19.4062H171.101C171.101 19.3319 171.101 19.3319 171.101 19.4062Z" fill="#249BD0"/>
<path d="M181.44 18.1408H182.556C182.63 18.1408 182.704 18.2152 182.704 18.2896V28.3324C182.704 28.4068 182.63 28.4811 182.556 28.4811H181.291C181.217 28.4811 181.142 28.4068 181.142 28.3324L178.613 21.5628C178.613 21.5628 178.613 21.5628 178.538 21.5628V28.258C178.538 28.3324 178.464 28.4068 178.39 28.4068H177.274C177.199 28.4068 177.125 28.3324 177.125 28.258V18.2152C177.125 18.1408 177.199 18.0664 177.274 18.0664H178.538C178.613 18.0664 178.687 18.1408 178.687 18.2152L181.217 24.9848C181.217 24.9848 181.217 25.0592 181.291 24.9848C181.291 24.9848 181.291 24.9848 181.291 24.9104V18.2152C181.291 18.1408 181.365 18.1408 181.44 18.1408Z" fill="#249BD0"/>
<path d="M185.309 28.3332V18.2904C185.309 18.216 185.383 18.1416 185.457 18.1416H186.573C186.648 18.1416 186.722 18.216 186.722 18.2904V28.3332C186.722 28.4076 186.648 28.482 186.573 28.482H185.457C185.309 28.482 185.309 28.4076 185.309 28.3332Z" fill="#249BD0"/>
<path d="M193.569 18.1408H194.684C194.759 18.1408 194.833 18.2152 194.833 18.2896V28.3324C194.833 28.4068 194.759 28.4811 194.684 28.4811H193.42C193.345 28.4811 193.271 28.4068 193.271 28.3324L190.742 21.5628C190.742 21.5628 190.742 21.5628 190.667 21.5628V28.258C190.667 28.3324 190.593 28.4068 190.519 28.4068H189.403C189.328 28.4068 189.254 28.3324 189.254 28.258V18.2152C189.254 18.1408 189.328 18.0664 189.403 18.0664H190.667C190.742 18.0664 190.816 18.1408 190.816 18.2152L193.345 24.9848C193.345 24.9848 193.345 25.0592 193.42 24.9848C193.42 24.9848 193.42 24.9848 193.42 24.9104V18.2152C193.42 18.1408 193.494 18.1408 193.569 18.1408Z" fill="#249BD0"/>
<path d="M197.955 27.8862C197.434 27.4398 197.211 26.7703 197.211 26.0264V20.5959C197.211 19.852 197.434 19.1824 197.955 18.7361C198.476 18.2898 199.071 17.9922 199.889 17.9922C200.707 17.9922 201.302 18.2154 201.823 18.7361C202.344 19.2568 202.567 19.852 202.567 20.5959V21.191C202.567 21.2654 202.493 21.3398 202.418 21.3398H201.302C201.228 21.3398 201.154 21.2654 201.154 21.191V20.5215C201.154 20.1495 201.005 19.7776 200.782 19.5544C200.559 19.3312 200.261 19.1824 199.889 19.1824C199.517 19.1824 199.219 19.3312 198.996 19.5544C198.773 19.7776 198.624 20.1495 198.624 20.5215V25.952C198.624 26.324 198.773 26.6959 198.996 26.9191C199.219 27.1423 199.517 27.2911 199.889 27.2911C200.261 27.2911 200.559 27.1423 200.782 26.9191C201.005 26.6959 201.154 26.324 201.154 25.952V24.3154C201.154 24.241 201.154 24.241 201.079 24.241H199.963C199.889 24.241 199.815 24.1666 199.815 24.0922V23.1996C199.815 23.1252 199.889 23.0508 199.963 23.0508H202.418C202.493 23.0508 202.567 23.1252 202.567 23.1996V25.952C202.567 26.6959 202.344 27.3655 201.823 27.8118C201.302 28.2581 200.707 28.5557 199.889 28.5557C199.071 28.5557 198.401 28.3325 197.955 27.8862Z" fill="#249BD0"/>
<path d="M98.4193 44.4757L97.0802 40.0867C97.0802 40.0867 97.0803 40.0123 97.0059 40.0123H95.9644C95.89 40.0123 95.89 40.0123 95.89 40.0867V44.4757C95.89 44.5501 95.8156 44.6245 95.7412 44.6245H94.6254C94.551 44.6245 94.4766 44.5501 94.4766 44.4757V34.433C94.4766 34.3586 94.551 34.2842 94.6254 34.2842H97.3034C97.8242 34.2842 98.2705 34.433 98.6425 34.6561C99.0144 34.8793 99.312 35.2513 99.5352 35.6976C99.7583 36.144 99.8327 36.6647 99.8327 37.2598C99.8327 37.8549 99.6839 38.4501 99.4608 38.8964C99.2376 39.3428 98.8656 39.7147 98.4193 39.8635C98.4193 39.8635 98.3449 39.9379 98.4193 39.9379L99.9071 44.4757V44.5501C99.9071 44.6245 99.8327 44.6245 99.7583 44.6245H98.5681C98.5681 44.5501 98.4937 44.5501 98.4193 44.4757ZM95.9644 35.4744V38.822C95.9644 38.8964 95.9644 38.8964 96.0388 38.8964H97.1546C97.5266 38.8964 97.8986 38.7476 98.1217 38.4501C98.3449 38.1525 98.4937 37.7062 98.4937 37.1854C98.4937 36.6647 98.3449 36.2183 98.1217 35.9208C97.8986 35.6232 97.5266 35.4744 97.1546 35.4744H95.9644Z" fill="#249BD0"/>
<path d="M106.753 35.4752H103.406C103.331 35.4752 103.331 35.4752 103.331 35.5496V38.7484C103.331 38.8228 103.331 38.8228 103.406 38.8228H105.414C105.489 38.8228 105.563 38.8972 105.563 38.9716V39.9387C105.563 40.0131 105.489 40.0875 105.414 40.0875H103.406C103.331 40.0875 103.331 40.0875 103.331 40.1619V43.3607C103.331 43.4351 103.331 43.4351 103.406 43.4351H106.753C106.828 43.4351 106.902 43.5095 106.902 43.5839V44.5509C106.902 44.6253 106.828 44.6997 106.753 44.6997H102.067C101.992 44.6997 101.918 44.6253 101.918 44.5509V34.5082C101.918 34.4338 101.992 34.3594 102.067 34.3594H106.753C106.828 34.3594 106.902 34.4338 106.902 34.5082V35.4752C106.902 35.4008 106.902 35.4752 106.753 35.4752Z" fill="#249BD0"/>
<path d="M113.295 44.4759L112.998 42.7649C112.998 42.7649 112.998 42.7649 112.998 42.6905C112.998 42.6905 112.998 42.6905 112.924 42.6905H110.543C110.543 42.6905 110.543 42.6905 110.469 42.6905C110.469 42.6905 110.469 42.6905 110.469 42.7649L110.171 44.4759C110.171 44.5503 110.097 44.6247 110.022 44.6247H108.906C108.832 44.6247 108.832 44.6247 108.832 44.5503C108.832 44.5503 108.832 44.4759 108.832 44.4015L111.064 34.3587C111.064 34.2843 111.138 34.21 111.213 34.21H112.552C112.626 34.21 112.7 34.2843 112.7 34.3587L114.932 44.4015C114.932 44.4759 114.858 44.5503 114.783 44.5503H113.593C113.37 44.5503 113.295 44.5503 113.295 44.4759ZM110.692 41.5747H112.626C112.626 41.5747 112.7 41.5747 112.7 41.5003L111.659 36.2185L110.692 41.5747Z" fill="#249BD0"/>
<path d="M116.57 44.4015V34.3587C116.57 34.2843 116.645 34.21 116.719 34.21H117.835C117.909 34.21 117.984 34.2843 117.984 34.3587V43.2857C117.984 43.3601 117.984 43.36 118.058 43.36H121.406C121.48 43.36 121.555 43.4344 121.555 43.5088V44.4759C121.555 44.5503 121.48 44.6247 121.406 44.6247H116.793C116.645 44.5503 116.57 44.5503 116.57 44.4015Z" fill="#249BD0"/>
<path d="M122.895 40.5329V39.5658C122.895 39.4914 122.969 39.417 123.043 39.417H126.614C126.688 39.417 126.763 39.4914 126.763 39.5658V40.5329C126.763 40.6072 126.688 40.6816 126.614 40.6816H123.043C122.895 40.6816 122.895 40.6072 122.895 40.5329Z" fill="#249BD0"/>
<path d="M130.258 44.4757L128.324 34.433C128.324 34.3586 128.399 34.2842 128.473 34.2842H129.663C129.738 34.2842 129.812 34.3586 129.812 34.433L131.002 41.3513L132.044 34.433C132.044 34.3586 132.118 34.2842 132.193 34.2842H133.16C133.234 34.2842 133.308 34.3586 133.308 34.433L134.424 41.3513L135.54 34.433C135.54 34.3586 135.615 34.2842 135.689 34.2842H136.879C136.954 34.2842 136.954 34.2842 136.954 34.3586C136.954 34.3586 136.954 34.433 136.954 34.5074L135.094 44.5501C135.094 44.6245 135.019 44.6989 134.945 44.6989H133.904C133.829 44.6989 133.755 44.6245 133.755 44.5501L132.639 37.5574L131.597 44.5501C131.597 44.6245 131.523 44.6989 131.449 44.6989H130.407C130.333 44.5501 130.258 44.5501 130.258 44.4757Z" fill="#249BD0"/>
<path d="M139.482 43.9554C138.961 43.4346 138.738 42.8395 138.738 42.0212V36.8882C138.738 36.0699 138.961 35.4004 139.482 34.8797C140.003 34.3589 140.598 34.1357 141.416 34.1357C142.235 34.1357 142.904 34.3589 143.425 34.8797C143.946 35.4004 144.169 36.0699 144.169 36.8882V42.0212C144.169 42.8395 143.946 43.509 143.425 43.9554C142.904 44.4761 142.235 44.6993 141.416 44.6993C140.598 44.6993 140.003 44.4761 139.482 43.9554ZM142.383 43.0627C142.607 42.7651 142.755 42.4675 142.755 42.0212V36.7394C142.755 36.2931 142.607 35.9955 142.383 35.698C142.16 35.4004 141.863 35.326 141.416 35.326C141.044 35.326 140.747 35.4748 140.524 35.698C140.301 35.9955 140.152 36.2931 140.152 36.7394V42.0212C140.152 42.4675 140.301 42.7651 140.524 43.0627C140.747 43.3602 141.044 43.4346 141.416 43.4346C141.863 43.4346 142.16 43.3602 142.383 43.0627Z" fill="#249BD0"/>
<path d="M150.49 44.4757L149.151 40.0867C149.151 40.0867 149.151 40.0123 149.076 40.0123H148.035C147.96 40.0123 147.96 40.0123 147.96 40.0867V44.4757C147.96 44.5501 147.886 44.6245 147.812 44.6245H146.696C146.621 44.6245 146.547 44.5501 146.547 44.4757V34.433C146.547 34.3586 146.621 34.2842 146.696 34.2842H149.374C149.894 34.2842 150.341 34.433 150.713 34.6561C151.085 34.8793 151.382 35.2513 151.605 35.6976C151.829 36.144 151.903 36.6647 151.903 37.2598C151.903 37.8549 151.754 38.4501 151.531 38.8964C151.308 39.3428 150.936 39.7147 150.49 39.8635C150.49 39.8635 150.415 39.9379 150.49 39.9379L151.977 44.4757V44.5501C151.977 44.6245 151.903 44.6245 151.829 44.6245H150.638C150.564 44.5501 150.49 44.5501 150.49 44.4757ZM147.96 35.4744V38.822C147.96 38.8964 147.96 38.8964 148.035 38.8964H149.151C149.523 38.8964 149.894 38.7476 150.118 38.4501C150.341 38.1525 150.49 37.7062 150.49 37.1854C150.49 36.6647 150.341 36.2183 150.118 35.9208C149.894 35.6232 149.523 35.4744 149.151 35.4744H147.96Z" fill="#249BD0"/>
<path d="M153.988 44.4015V34.3587C153.988 34.2843 154.063 34.21 154.137 34.21H155.253C155.327 34.21 155.402 34.2843 155.402 34.3587V43.2857C155.402 43.3601 155.402 43.36 155.476 43.36H158.824C158.898 43.36 158.972 43.4344 158.972 43.5088V44.4759C158.972 44.5503 158.898 44.6247 158.824 44.6247H154.211C153.988 44.5503 153.988 44.5503 153.988 44.4015Z" fill="#249BD0"/>
<path d="M160.758 44.4015V34.3587C160.758 34.2843 160.832 34.21 160.907 34.21H163.361C164.18 34.21 164.849 34.4331 165.296 34.9539C165.816 35.4746 166.04 36.1441 166.04 36.9624V41.7234C166.04 42.6161 165.816 43.2857 165.296 43.732C164.849 44.2527 164.18 44.4759 163.361 44.4759H160.907C160.758 44.5503 160.758 44.5503 160.758 44.4015ZM162.246 43.36H163.361C163.733 43.36 164.031 43.2113 164.254 42.9137C164.477 42.6161 164.626 42.2442 164.626 41.7234V37.1112C164.626 36.5905 164.477 36.2185 164.254 35.9209C164.031 35.6234 163.733 35.4746 163.361 35.4746H162.246C162.171 35.4746 162.171 35.4746 162.171 35.549L162.246 43.36C162.171 43.36 162.171 43.36 162.246 43.36Z" fill="#249BD0"/>
<path d="M176.902 35.4752H173.554C173.48 35.4752 173.48 35.4752 173.48 35.5496V38.7484C173.48 38.8228 173.48 38.8228 173.554 38.8228H175.563C175.637 38.8228 175.712 38.8972 175.712 38.9716V39.9387C175.712 40.0131 175.637 40.0875 175.563 40.0875H173.554C173.48 40.0875 173.48 40.0875 173.48 40.1619V43.3607C173.48 43.4351 173.48 43.4351 173.554 43.4351H176.902C176.976 43.4351 177.051 43.5095 177.051 43.5839V44.5509C177.051 44.6253 176.976 44.6997 176.902 44.6997H172.215C172.141 44.6997 172.066 44.6253 172.066 44.5509V34.5082C172.066 34.4338 172.141 34.3594 172.215 34.3594H176.902C176.976 34.3594 177.051 34.4338 177.051 34.5082V35.4752C177.051 35.4008 177.051 35.4752 176.902 35.4752Z" fill="#249BD0"/>
<path d="M180.919 44.4757L178.762 34.433C178.762 34.3586 178.836 34.2842 178.91 34.2842H180.175C180.25 34.2842 180.324 34.3586 180.324 34.433L181.737 42.0952L183.151 34.433C183.151 34.3586 183.225 34.2842 183.3 34.2842H184.49C184.564 34.2842 184.639 34.3586 184.639 34.433L182.481 44.4757C182.481 44.5501 182.407 44.6245 182.332 44.6245H181.068C180.993 44.5501 180.919 44.5501 180.919 44.4757Z" fill="#249BD0"/>
<path d="M186.723 44.4015V34.3587C186.723 34.2843 186.797 34.21 186.871 34.21H187.987C188.062 34.21 188.136 34.2843 188.136 34.3587V44.4015C188.136 44.4759 188.062 44.5503 187.987 44.5503H186.871C186.797 44.5503 186.723 44.5503 186.723 44.4015Z" fill="#249BD0"/>
<path d="M190.738 44.4015V34.3587C190.738 34.2843 190.813 34.21 190.887 34.21H193.342C194.16 34.21 194.83 34.4331 195.276 34.9539C195.797 35.4746 196.02 36.1441 196.02 36.9624V41.7234C196.02 42.6161 195.797 43.2857 195.276 43.732C194.83 44.2527 194.16 44.4759 193.342 44.4759H190.887C190.813 44.5503 190.738 44.5503 190.738 44.4015ZM192.226 43.36H193.342C193.714 43.36 194.011 43.2113 194.235 42.9137C194.458 42.6161 194.607 42.2442 194.607 41.7234V37.1112C194.607 36.5905 194.458 36.2185 194.235 35.9209C194.011 35.6234 193.714 35.4746 193.342 35.4746H192.226C192.152 35.4746 192.152 35.4746 192.152 35.549L192.226 43.36C192.152 43.36 192.152 43.36 192.226 43.36Z" fill="#249BD0"/>
<path d="M203.164 35.4752H199.816C199.742 35.4752 199.742 35.4752 199.742 35.5496V38.7484C199.742 38.8228 199.742 38.8228 199.816 38.8228H201.825C201.899 38.8228 201.973 38.8972 201.973 38.9716V39.9387C201.973 40.0131 201.899 40.0875 201.825 40.0875H199.816C199.742 40.0875 199.742 40.0875 199.742 40.1619V43.3607C199.742 43.4351 199.742 43.4351 199.816 43.4351H203.164C203.238 43.4351 203.312 43.5095 203.312 43.5839V44.5509C203.312 44.6253 203.238 44.6997 203.164 44.6997H198.477C198.403 44.6997 198.328 44.6253 198.328 44.5509V34.5082C198.328 34.4338 198.403 34.3594 198.477 34.3594H203.164C203.238 34.3594 203.312 34.4338 203.312 34.5082V35.4752C203.312 35.4008 203.238 35.4752 203.164 35.4752Z" fill="#249BD0"/>
<path d="M209.783 34.2101H210.899C210.974 34.2101 211.048 34.2845 211.048 34.3589V44.4017C211.048 44.4761 210.974 44.5505 210.899 44.5505H209.635C209.56 44.5505 209.486 44.4761 209.486 44.4017L206.957 37.6321C206.957 37.6321 206.957 37.6321 206.882 37.6321V44.3273C206.882 44.4017 206.808 44.4761 206.733 44.4761H205.618C205.543 44.4761 205.469 44.4017 205.469 44.3273V34.2845C205.469 34.2101 205.543 34.1357 205.618 34.1357H206.882C206.957 34.1357 207.031 34.2101 207.031 34.2845L209.56 41.0541C209.56 41.0541 209.56 41.1285 209.635 41.0541C209.635 41.0541 209.635 41.0541 209.635 40.9797V34.2845C209.635 34.2845 209.709 34.2101 209.783 34.2101Z" fill="#249BD0"/>
<path d="M214.174 43.9555C213.653 43.4348 213.43 42.8397 213.43 42.0214V36.7396C213.43 35.9213 213.653 35.2518 214.174 34.8054C214.694 34.3591 215.289 34.0615 216.108 34.0615C216.926 34.0615 217.596 34.2847 218.042 34.8054C218.488 35.3262 218.786 35.9213 218.786 36.7396V36.9628C218.786 37.0372 218.711 37.1116 218.637 37.1116L217.521 37.186C217.447 37.186 217.372 37.1116 217.372 37.0372V36.6652C217.372 36.2933 217.224 35.9213 217 35.6981C216.777 35.475 216.48 35.3262 216.108 35.3262C215.736 35.3262 215.438 35.475 215.215 35.6981C214.992 35.9213 214.843 36.2933 214.843 36.6652V42.0958C214.843 42.4677 214.992 42.8397 215.215 43.0628C215.438 43.286 215.736 43.4348 216.108 43.4348C216.48 43.4348 216.777 43.286 217 43.0628C217.224 42.8397 217.372 42.4677 217.372 42.0958V41.7238C217.372 41.6494 217.447 41.575 217.521 41.575L218.637 41.6494C218.711 41.6494 218.786 41.7238 218.786 41.7982V42.0214C218.786 42.8397 218.563 43.5092 218.042 43.9555C217.521 44.4019 216.926 44.6994 216.108 44.6994C215.289 44.6994 214.62 44.4763 214.174 43.9555Z" fill="#249BD0"/>
<path d="M225.851 35.4752H222.503C222.429 35.4752 222.429 35.4752 222.429 35.5496V38.7484C222.429 38.8228 222.429 38.8228 222.503 38.8228H224.512C224.586 38.8228 224.661 38.8972 224.661 38.9716V39.9387C224.661 40.0131 224.586 40.0875 224.512 40.0875H222.503C222.429 40.0875 222.429 40.0875 222.429 40.1619V43.3607C222.429 43.4351 222.429 43.4351 222.503 43.4351H225.851C225.925 43.4351 226 43.5095 226 43.5839V44.5509C226 44.6253 225.925 44.6997 225.851 44.6997H221.164C221.09 44.6997 221.016 44.6253 221.016 44.5509V34.5082C221.016 34.4338 221.09 34.3594 221.164 34.3594H225.851C225.925 34.3594 226 34.4338 226 34.5082V35.4752C226 35.4008 225.925 35.4752 225.851 35.4752Z" fill="#249BD0"/>
<path d="M20.3088 1.40332H25.0698C25.5161 1.40332 25.6649 1.6265 25.6649 1.99845V44.4757C25.6649 44.9221 25.4417 45.0709 25.0698 45.0709H20.3088C19.8624 45.0709 19.7136 44.8477 19.7136 44.4757V13.4547C19.7136 13.3059 19.7136 13.2315 19.6392 13.2315C19.5648 13.2315 19.4904 13.3059 19.416 13.3803L13.3904 24.5389C13.2416 24.8365 13.0928 24.9853 12.7953 24.9853C12.5721 24.9853 12.3489 24.8365 12.2001 24.5389L6.24884 13.4547C6.17445 13.3803 6.10006 13.3059 6.02567 13.3059C5.95128 13.3059 5.95128 13.3803 5.95128 13.5291V44.4757C5.95128 44.9221 5.72811 45.0709 5.35615 45.0709H0.59513C0.148784 45.0709 0 44.8477 0 44.4757V2.07284C0 1.62649 0.223175 1.47771 0.59513 1.47771H5.35615C5.65372 1.47771 5.87689 1.62649 6.10006 1.92406L12.6465 13.6778C12.7209 13.7522 12.7209 13.7522 12.8696 13.7522C12.944 13.7522 13.0184 13.7522 13.0928 13.6778L19.5648 1.92406C19.788 1.5521 20.0112 1.40332 20.3088 1.40332Z" fill="white"/>
<path d="M54.9724 2.07284V6.01556C54.9724 6.46191 54.7492 6.61069 54.3773 6.61069H46.1943C46.0455 6.61069 45.9711 6.68509 45.9711 6.83387V44.4757C45.9711 44.9221 45.7479 45.0709 45.376 45.0709H40.6149C40.1686 45.0709 40.0198 44.8477 40.0198 44.4757V6.83387C40.0198 6.75948 40.0198 6.68508 39.9454 6.61069C39.871 6.61069 39.871 6.5363 39.7966 6.5363H32.06C31.6136 6.5363 31.4648 6.31313 31.4648 5.94117V1.99845C31.4648 1.5521 31.688 1.40332 32.06 1.40332H54.4517C54.7492 1.40332 54.9724 1.62649 54.9724 2.07284Z" fill="white"/>
<path d="M69.0371 27.6634V23.1999C69.0371 22.7536 69.2602 22.6048 69.6322 22.6048H80.6421L69.0371 27.6634ZM80.7164 22.5304V34.7306C80.7164 38.0038 79.675 40.6818 77.592 42.6904C75.5091 44.699 72.7566 45.666 69.409 45.666C66.0614 45.666 63.3089 44.699 61.226 42.6904C59.143 40.6818 58.1016 38.0782 58.1016 34.7306V11.8925C58.1016 8.6193 59.143 5.94123 61.226 3.93267C63.3089 1.92411 65.987 0.957031 69.409 0.957031C72.7566 0.957031 75.5091 1.92411 77.592 3.93267C79.675 5.94123 80.7164 8.6193 80.7164 11.8925V14.4962C80.7164 14.9425 80.4933 15.0913 80.1213 15.0913H75.3603C74.9139 15.0913 74.7651 14.8682 74.7651 14.4962V11.7437C74.7651 10.0327 74.2444 8.6937 73.2773 7.65222C72.3102 6.61075 71.0456 6.09001 69.409 6.09001C67.8468 6.09001 66.5821 6.61075 65.5407 7.65222C64.5736 8.6937 64.0528 10.0327 64.0528 11.7437V34.7306C64.0528 36.4416 64.5736 37.7806 65.5407 38.8221C66.5077 39.8635 67.7724 40.3843 69.409 40.3843C70.9712 40.3843 72.2359 39.8635 73.2773 38.8221C74.2444 37.7806 74.7651 36.4416 74.7651 34.7306V29.3744L80.7164 22.5304Z" fill="white"/>
</svg>
