<svg width="705" height="18" viewBox="0 0 705 18" fill="none" xmlns="http://www.w3.org/2000/svg">
<g opacity="0.5" filter="url(#filter0_f_150_9101)">
<rect x="6.39062" y="6.09473" width="698.61" height="4.73634" fill="url(#paint0_linear_150_9101)"/>
</g>
<path d="M10.7153 2.8858C11.8635 3.28495 12.8676 4.01535 13.601 4.98481C14.3344 5.95427 14.7641 7.1193 14.8358 8.33278C14.9075 9.54627 14.618 10.7538 14.0039 11.8029C13.3898 12.8519 12.4787 13.6955 11.3855 14.2271C10.2923 14.7587 9.0661 14.9545 7.86172 14.7897C6.65735 14.6249 5.52878 14.1069 4.61858 13.3012C3.70838 12.4955 3.05732 11.4381 2.74763 10.2626C2.43795 9.0871 2.48352 7.8462 2.87858 6.6966C3.1417 5.93096 3.55336 5.22479 4.08998 4.61859C4.6266 4.0124 5.27761 3.51811 6.00567 3.16406C6.73374 2.81002 7.52458 2.60322 8.33275 2.55547C9.14093 2.50771 9.95058 2.61996 10.7153 2.8858Z" fill="url(#paint1_radial_150_9101)"/>
<path d="M193.127 3.7963C193.751 3.43531 194.442 3.2064 195.157 3.12387C195.873 3.04134 196.598 3.10693 197.287 3.31654C197.976 3.52616 198.615 3.87534 199.163 4.34234C199.712 4.80934 200.158 5.38418 200.475 6.03113C200.792 6.67809 200.972 7.38332 201.005 8.10295C201.038 8.82258 200.922 9.54124 200.665 10.2142C200.408 10.8872 200.015 11.5001 199.511 12.0148C199.007 12.5296 198.403 12.9352 197.736 13.2063C197.112 13.5673 196.421 13.7962 195.706 13.8788C194.99 13.9613 194.265 13.8957 193.576 13.6861C192.887 13.4765 192.248 13.1273 191.699 12.6603C191.151 12.1933 190.704 11.6184 190.388 10.9715C190.071 10.3245 189.89 9.61931 189.858 8.89968C189.825 8.18004 189.941 7.46138 190.198 6.7884C190.455 6.11542 190.847 5.50247 191.351 4.98772C191.855 4.47297 192.46 4.06745 193.127 3.7963Z" fill="url(#paint2_radial_150_9101)"/>
<path d="M248.904 4.29225C249.767 3.8695 250.736 3.71247 251.689 3.84106C252.641 3.96965 253.534 4.37808 254.255 5.01459C254.975 5.6511 255.49 6.48707 255.735 7.41662C255.98 8.34616 255.943 9.32749 255.63 10.2362C255.317 11.145 254.741 11.9402 253.975 12.5214C253.209 13.1025 252.288 13.4434 251.329 13.5007C250.369 13.5581 249.414 13.3293 248.585 12.8434C247.755 12.3576 247.089 11.6366 246.67 10.7716C246.387 10.2002 246.221 9.57833 246.181 8.94221C246.14 8.30608 246.227 7.66828 246.434 7.06568C246.642 6.46309 246.967 5.90771 247.391 5.43165C247.815 4.95559 248.329 4.5683 248.904 4.29225Z" fill="url(#paint3_radial_150_9101)"/>
<path d="M359.797 3.23034C360.882 2.66442 362.111 2.43501 363.328 2.57147C364.544 2.70794 365.691 3.20407 366.624 3.9964C367.557 4.78873 368.232 5.84132 368.563 7.0194C368.894 8.19749 368.866 9.44753 368.483 10.6098C368.1 11.772 367.379 12.7935 366.412 13.5437C365.445 14.2939 364.277 14.7386 363.056 14.821C361.835 14.9033 360.617 14.6196 359.558 14.0061C358.499 13.3926 357.647 12.4772 357.112 11.377C356.429 9.93378 356.327 8.28337 356.826 6.76704C357.326 5.25071 358.39 3.98447 359.797 3.23034Z" fill="url(#paint4_radial_150_9101)"/>
<path d="M524.107 4.18928C524.99 3.75877 525.98 3.5998 526.954 3.73243C527.927 3.86507 528.838 4.28332 529.574 4.93436C530.309 5.5854 530.835 6.43994 531.084 7.38981C531.334 8.33968 531.296 9.34223 530.975 10.2706C530.655 11.1989 530.066 12.0113 529.284 12.605C528.502 13.1987 527.561 13.5469 526.58 13.6057C525.6 13.6645 524.624 13.4312 523.777 12.9353C522.929 12.4394 522.247 11.7032 521.818 10.8198C521.244 9.63687 521.162 8.27421 521.591 7.03104C522.02 5.78786 522.925 4.7658 524.107 4.18928Z" fill="url(#paint5_radial_150_9101)"/>
<path d="M629.628 5.73688C630.403 5.43092 631.264 5.42839 632.041 5.7298C632.817 6.03122 633.452 6.61444 633.817 7.36297C634.182 8.1115 634.252 8.9703 634.012 9.76798C633.772 10.5657 633.24 11.2435 632.523 11.6663C631.748 11.9722 630.886 11.9747 630.11 11.6733C629.333 11.3719 628.699 10.7888 628.334 10.0402C627.968 9.29171 627.898 8.43288 628.138 7.6352C628.378 6.83752 628.91 6.15961 629.628 5.73688Z" fill="url(#paint6_radial_150_9101)"/>
<defs>
<filter id="filter0_f_150_9101" x="2.39062" y="2.09473" width="706.609" height="12.7363" filterUnits="userSpaceOnUse" color-interpolation-filters="sRGB">
<feFlood flood-opacity="0" result="BackgroundImageFix"/>
<feBlend mode="normal" in="SourceGraphic" in2="BackgroundImageFix" result="shape"/>
<feGaussianBlur stdDeviation="2" result="effect1_foregroundBlur_150_9101"/>
</filter>
<linearGradient id="paint0_linear_150_9101" x1="1145.97" y1="6.83373" x2="1143.1" y2="-53.9826" gradientUnits="userSpaceOnUse">
<stop stop-color="#074C70"/>
<stop offset="0.5" stop-color="#179AD2"/>
<stop offset="1" stop-color="#35C5F5"/>
</linearGradient>
<radialGradient id="paint1_radial_150_9101" cx="0" cy="0" r="1" gradientUnits="userSpaceOnUse" gradientTransform="translate(8.29065 8.72766) rotate(-116.15) scale(6.15089 6.15088)">
<stop offset="0.19" stop-color="#00FFFF"/>
<stop offset="0.4" stop-color="#01FDFD" stop-opacity="0.99"/>
<stop offset="0.51" stop-color="#02F5F8" stop-opacity="0.96"/>
<stop offset="0.6" stop-color="#06E7EF" stop-opacity="0.91"/>
<stop offset="0.68" stop-color="#0AD4E1" stop-opacity="0.83"/>
<stop offset="0.74" stop-color="#10BBD0" stop-opacity="0.74"/>
<stop offset="0.81" stop-color="#179DBA" stop-opacity="0.62"/>
<stop offset="0.86" stop-color="#2078A1" stop-opacity="0.47"/>
<stop offset="0.92" stop-color="#2A4E84" stop-opacity="0.31"/>
<stop offset="0.97" stop-color="#352063" stop-opacity="0.13"/>
<stop offset="1" stop-color="#3D004D" stop-opacity="0"/>
</radialGradient>
<radialGradient id="paint2_radial_150_9101" cx="0" cy="0" r="1" gradientUnits="userSpaceOnUse" gradientTransform="translate(195.002 8.5301) rotate(-116.15) scale(5.25162 5.25163)">
<stop offset="0.19" stop-color="#00FFFF"/>
<stop offset="0.4" stop-color="#01FDFD" stop-opacity="0.99"/>
<stop offset="0.51" stop-color="#02F5F8" stop-opacity="0.96"/>
<stop offset="0.6" stop-color="#06E7EF" stop-opacity="0.91"/>
<stop offset="0.68" stop-color="#0AD4E1" stop-opacity="0.83"/>
<stop offset="0.74" stop-color="#10BBD0" stop-opacity="0.74"/>
<stop offset="0.81" stop-color="#179DBA" stop-opacity="0.62"/>
<stop offset="0.86" stop-color="#2078A1" stop-opacity="0.47"/>
<stop offset="0.92" stop-color="#2A4E84" stop-opacity="0.31"/>
<stop offset="0.97" stop-color="#352063" stop-opacity="0.13"/>
<stop offset="1" stop-color="#3D004D" stop-opacity="0"/>
</radialGradient>
<radialGradient id="paint3_radial_150_9101" cx="0" cy="0" r="1" gradientUnits="userSpaceOnUse" gradientTransform="translate(250.606 8.67854) rotate(-116.15) scale(4.85593 4.85595)">
<stop offset="0.19" stop-color="#00FFFF"/>
<stop offset="0.4" stop-color="#01FDFD" stop-opacity="0.99"/>
<stop offset="0.51" stop-color="#02F5F8" stop-opacity="0.96"/>
<stop offset="0.6" stop-color="#06E7EF" stop-opacity="0.91"/>
<stop offset="0.68" stop-color="#0AD4E1" stop-opacity="0.83"/>
<stop offset="0.74" stop-color="#10BBD0" stop-opacity="0.74"/>
<stop offset="0.81" stop-color="#179DBA" stop-opacity="0.62"/>
<stop offset="0.86" stop-color="#2078A1" stop-opacity="0.47"/>
<stop offset="0.92" stop-color="#2A4E84" stop-opacity="0.31"/>
<stop offset="0.97" stop-color="#352063" stop-opacity="0.13"/>
<stop offset="1" stop-color="#3D004D" stop-opacity="0"/>
</radialGradient>
<radialGradient id="paint4_radial_150_9101" cx="0" cy="0" r="1" gradientUnits="userSpaceOnUse" gradientTransform="translate(362.135 8.78391) rotate(-116.15) scale(6.15089 6.15088)">
<stop offset="0.19" stop-color="#00FFFF"/>
<stop offset="0.4" stop-color="#01FDFD" stop-opacity="0.99"/>
<stop offset="0.51" stop-color="#02F5F8" stop-opacity="0.96"/>
<stop offset="0.6" stop-color="#06E7EF" stop-opacity="0.91"/>
<stop offset="0.68" stop-color="#0AD4E1" stop-opacity="0.83"/>
<stop offset="0.74" stop-color="#10BBD0" stop-opacity="0.74"/>
<stop offset="0.81" stop-color="#179DBA" stop-opacity="0.62"/>
<stop offset="0.86" stop-color="#2078A1" stop-opacity="0.47"/>
<stop offset="0.92" stop-color="#2A4E84" stop-opacity="0.31"/>
<stop offset="0.97" stop-color="#352063" stop-opacity="0.13"/>
<stop offset="1" stop-color="#3D004D" stop-opacity="0"/>
</radialGradient>
<radialGradient id="paint5_radial_150_9101" cx="0" cy="0" r="1" gradientUnits="userSpaceOnUse" gradientTransform="translate(525.896 8.676) rotate(-116.15) scale(4.96388 4.96387)">
<stop offset="0.19" stop-color="#00FFFF"/>
<stop offset="0.4" stop-color="#01FDFD" stop-opacity="0.99"/>
<stop offset="0.51" stop-color="#02F5F8" stop-opacity="0.96"/>
<stop offset="0.6" stop-color="#06E7EF" stop-opacity="0.91"/>
<stop offset="0.68" stop-color="#0AD4E1" stop-opacity="0.83"/>
<stop offset="0.74" stop-color="#10BBD0" stop-opacity="0.74"/>
<stop offset="0.81" stop-color="#179DBA" stop-opacity="0.62"/>
<stop offset="0.86" stop-color="#2078A1" stop-opacity="0.47"/>
<stop offset="0.92" stop-color="#2A4E84" stop-opacity="0.31"/>
<stop offset="0.97" stop-color="#352063" stop-opacity="0.13"/>
<stop offset="1" stop-color="#3D004D" stop-opacity="0"/>
</radialGradient>
<radialGradient id="paint6_radial_150_9101" cx="0" cy="0" r="1" gradientUnits="userSpaceOnUse" gradientTransform="translate(630.706 8.72256) rotate(-116.15) scale(3.30924 3.30924)">
<stop offset="0.19" stop-color="#00FFFF"/>
<stop offset="0.4" stop-color="#01FDFD" stop-opacity="0.99"/>
<stop offset="0.51" stop-color="#02F5F8" stop-opacity="0.96"/>
<stop offset="0.6" stop-color="#06E7EF" stop-opacity="0.91"/>
<stop offset="0.68" stop-color="#0AD4E1" stop-opacity="0.83"/>
<stop offset="0.74" stop-color="#10BBD0" stop-opacity="0.74"/>
<stop offset="0.81" stop-color="#179DBA" stop-opacity="0.62"/>
<stop offset="0.86" stop-color="#2078A1" stop-opacity="0.47"/>
<stop offset="0.92" stop-color="#2A4E84" stop-opacity="0.31"/>
<stop offset="0.97" stop-color="#352063" stop-opacity="0.13"/>
<stop offset="1" stop-color="#3D004D" stop-opacity="0"/>
</radialGradient>
</defs>
</svg>
