<svg width="628" height="1308" viewBox="0 0 628 1308" fill="none" xmlns="http://www.w3.org/2000/svg">
<g filter="url(#filter0_f_150_8953)">
<path d="M1012.99 764.927L1012.68 764.151L1012.17 764.735L944.112 749.001L944.221 748.744L943.134 748.777L942.646 748.692L942.538 748.776L828.262 751.508L901.424 676.903L900.955 677.016L979.918 572.978L978.666 572.026L898.661 677.5L795.566 699.998L791.561 577.706L791.944 577.506L791.527 576.965L791.409 571.839L790.413 575.522L750.078 521.445L750.651 515.248L748.659 521.197L676.847 571.491L678.05 530.278L681.01 525.885L677.019 529.29L588.625 528.745L139.08 524.212L136.518 520.741L137.358 523.296L132.678 520.538L138.049 525.411L219.959 773.336L219.372 774.863L327.023 722.934L401.44 764.494L400.574 765.162L401.618 765.123L364.508 867.414L286.57 860.108L286.43 861.617L364.006 868.952L342.532 927.952L340.182 930.973L435.085 875.699L598.589 891.198L483.767 984.014L484.694 985.216L600.292 891.764L652.201 993.869L618.306 1083.49L784.375 1181.75L785.201 1182.82L864.077 936.621L1085.79 943.28L1013.32 765.707L1013.85 765.104L1012.99 764.927ZM601.337 890.632L669.818 759.652L652.403 991.122L601.337 890.632ZM492.293 839.72L404.713 765.057L503.106 762.051L492.293 839.72ZM420.512 830.523L490.684 841.614L434.773 874.175L389.807 869.921L420.512 830.523ZM420.793 829.021L403.984 766.598L490.302 840.048L420.793 829.021ZM636.841 588.886L602.025 595.179L673.601 534.209L636.841 588.886ZM636.692 590.459L638.302 598.464L565.346 649.563L552.904 637.139L599.743 597.17L636.692 590.459ZM741.139 601.966L729.491 729.158L672.12 754.654L719.783 612.378L741.139 601.966ZM720.399 610.292L747.926 528.054L741.347 600.271L720.399 610.292ZM513.189 687.937L509.899 711.846L410.804 759.649L513.189 687.937ZM415.196 754.649L515.827 668.752L513.462 685.828L415.196 754.649ZM514.853 686.712L565.15 651.498L587.892 674.24L511.519 711.037L514.853 686.712ZM515.174 684.641L517.557 667.265L551.744 638.073L564.081 650.386L515.174 684.641ZM517.87 665.009L525.22 611.573L550.621 637.04L517.87 665.009ZM516.131 666.485L408.073 758.744L523.587 612.564L516.131 666.485ZM509.686 713.659L503.24 760.509L406.202 763.506L509.686 713.659ZM511.328 712.853L589.068 675.366L669.088 755.324L504.715 760.407L511.328 712.853ZM708.1 789.781L672.735 756.769L727.072 755.464L722.685 803.391L708.1 789.781ZM674.637 755.206L729.381 730.854L727.215 753.934L674.637 755.206ZM590.489 674.672L648.079 646.898L669.607 753.734L590.489 674.672ZM699.519 783.855L722.523 805.319L717.504 859.988L673.019 759.102L699.519 783.855ZM723.904 806.613L730.08 812.381L719.588 853.488L723.904 806.613ZM731.347 813.551L749.09 830.135L719.409 860.418L731.347 813.551ZM731.768 811.884L746.266 755.006L824.565 753.132L750.163 829.039L731.768 811.884ZM730.504 810.692L724.085 804.709L728.614 755.425L744.681 755.039L730.504 810.692ZM728.746 753.904L730.93 730.177L753.585 720.105L745.082 753.521L728.746 753.904ZM671.763 750.958L675.078 633.878L717.851 613.255L671.763 750.958ZM670.289 749.371L649.489 646.213L673.542 634.622L670.289 749.371ZM649.176 644.689L639.991 599.136L675.241 574.457L673.588 632.917L649.176 644.689ZM647.769 645.352L589.359 673.53L566.442 650.636L638.682 600.05L647.769 645.352ZM551.853 636.051L526.259 610.483L596.785 597.687L551.853 636.051ZM403.528 762.078L407.684 683.712L468.405 559.408L523.638 610.069L403.528 762.078ZM406.597 682.478L142.047 526.067L467.018 558.829L406.597 682.478ZM405.311 683.471L346.079 712.051L144.744 529.415L405.311 683.471ZM406.094 684.785L401.975 762.776L347.258 713.156L406.094 684.785ZM504.509 762.005L667.245 756.938L493.809 839.894L504.509 762.005ZM671.367 759.148L717.142 863.049L716.482 865.476L717.678 864.266L718.509 865.965L718.752 863.322L750.255 831.174L862.024 935.577L653.791 992.872L671.367 759.148ZM866.009 931.889L943.421 750.493L1010.95 766.094L866.009 931.889ZM941.954 750.282L863.251 934.63L751.274 830.082L826.749 753.078L941.954 750.282ZM896.867 679.402L826.171 751.509L746.743 753.41L755.427 719.26L795.093 701.648L896.867 679.402ZM794.128 700.397L755.894 717.404L790.241 582.561L794.128 700.397ZM754.136 718.184L731.161 728.388L742.833 601.177L789.692 578.591L754.136 718.184ZM789.673 576.899L743.022 599.458L749.887 523.683L789.673 576.899ZM747.923 523.549L718.594 611.185L675.245 632.08L676.901 573.252L747.923 523.549ZM675.363 572.502L639.743 597.448L638.167 589.685L676.54 532.499L675.363 572.502ZM599.061 595.739L526.53 608.894L588.957 530.196L675.247 530.772L599.061 595.739ZM587.04 530.198L524.606 608.862L524.126 608.389L467.945 556.848L467.735 557.297L155.463 525.903L587.04 530.198ZM140.895 529.2L254.481 682.212L220.755 771.111L140.895 529.2ZM222.087 771.867L255.73 683.185L325.328 722.055L222.087 771.867ZM255.85 681.5L143.936 530.729L344.612 712.761L326.991 721.251L255.85 681.5ZM345.79 713.79L397.159 760.487L328.617 722.165L345.79 713.79ZM402.532 766.855L419.363 829.53L387.956 869.66L366.002 867.586L402.532 766.855ZM365.491 869.112L386.888 871.136L345.56 924.119L365.491 869.112ZM346.235 925.69L388.686 871.303L432.497 875.451L346.235 925.69ZM493.233 841.834L669.126 757.711L600.068 889.808L437.295 874.435L493.233 841.834ZM653.149 995.496L782.281 1178.76L620.177 1082.84L653.149 995.496ZM654.176 994.34L862.187 937.081L860.902 939.991L861.638 939.155L784.682 1179.53L654.176 994.34ZM1083.53 941.667L865.157 935.212L900.668 894.582L1012.19 767.001L1083.53 941.667Z" fill="url(#paint0_linear_150_8953)"/>
</g>
<g style="mix-blend-mode:screen" filter="url(#filter1_d_150_8953)">
<path d="M406.965 755.092C408.807 755.94 410.356 757.315 411.416 759.044C412.476 760.772 413 762.776 412.922 764.803C412.843 766.829 412.165 768.786 410.974 770.427C409.783 772.068 408.132 773.32 406.23 774.022C404.328 774.725 402.26 774.848 400.288 774.375C398.316 773.903 396.528 772.856 395.151 771.367C393.774 769.879 392.869 768.016 392.551 766.013C392.233 764.01 392.516 761.958 393.365 760.116C394.502 757.647 396.574 755.73 399.124 754.788C401.675 753.845 404.495 753.955 406.965 755.092Z" fill="url(#paint1_radial_150_8953)"/>
<path d="M620.167 1081.18C620.551 1081.36 620.873 1081.66 621.092 1082.03C621.31 1082.39 621.417 1082.82 621.397 1083.24C621.378 1083.67 621.234 1084.08 620.983 1084.43C620.732 1084.78 620.385 1085.04 619.985 1085.19C619.585 1085.34 619.149 1085.37 618.732 1085.28C618.315 1085.19 617.935 1084.97 617.638 1084.66C617.341 1084.36 617.141 1083.97 617.062 1083.55C616.984 1083.13 617.03 1082.69 617.195 1082.3C617.31 1082.03 617.48 1081.78 617.694 1081.57C617.908 1081.36 618.162 1081.2 618.44 1081.1C618.718 1080.99 619.014 1080.95 619.311 1080.96C619.608 1080.97 619.899 1081.05 620.167 1081.18Z" fill="url(#paint2_radial_150_8953)"/>
<path d="M602.441 886.443C603.253 886.825 603.935 887.438 604.4 888.205C604.866 888.972 605.094 889.86 605.057 890.757C605.02 891.654 604.719 892.52 604.191 893.246C603.664 893.972 602.934 894.526 602.093 894.839C601.251 895.152 600.336 895.209 599.463 895.004C598.589 894.799 597.795 894.34 597.181 893.686C596.567 893.031 596.16 892.21 596.011 891.324C595.862 890.439 595.978 889.53 596.344 888.71C596.591 888.157 596.945 887.659 597.387 887.245C597.829 886.83 598.349 886.508 598.916 886.297C599.484 886.086 600.088 885.99 600.693 886.015C601.298 886.04 601.892 886.186 602.441 886.443Z" fill="url(#paint3_radial_150_8953)"/>
<path d="M485.21 982.478C485.632 982.671 485.987 982.984 486.23 983.379C486.473 983.773 486.593 984.231 486.575 984.694C486.558 985.157 486.403 985.605 486.131 985.98C485.858 986.355 485.481 986.64 485.046 986.801C484.611 986.961 484.139 986.988 483.688 986.879C483.238 986.77 482.83 986.53 482.516 986.189C482.203 985.848 481.997 985.421 481.926 984.963C481.855 984.505 481.922 984.037 482.118 983.617C482.379 983.057 482.85 982.624 483.43 982.41C484.009 982.197 484.649 982.222 485.21 982.478Z" fill="url(#paint4_radial_150_8953)"/>
<path d="M287.58 858.289C288.045 858.506 288.436 858.856 288.702 859.294C288.969 859.733 289.1 860.241 289.078 860.754C289.056 861.266 288.883 861.761 288.58 862.176C288.277 862.59 287.858 862.905 287.376 863.082C286.894 863.258 286.37 863.288 285.871 863.167C285.373 863.046 284.921 862.781 284.573 862.403C284.225 862.026 283.997 861.553 283.917 861.046C283.837 860.539 283.91 860.02 284.125 859.554C284.268 859.244 284.471 858.965 284.723 858.733C284.974 858.501 285.269 858.322 285.59 858.204C285.911 858.086 286.252 858.033 286.593 858.048C286.935 858.063 287.27 858.144 287.58 858.289Z" fill="url(#paint5_radial_150_8953)"/>
<path d="M344.454 922.959C345.425 923.406 346.242 924.131 346.801 925.042C347.36 925.953 347.637 927.009 347.596 928.078C347.555 929.146 347.199 930.178 346.571 931.044C345.944 931.91 345.074 932.57 344.071 932.941C343.069 933.312 341.979 933.378 340.939 933.13C339.899 932.882 338.956 932.332 338.229 931.548C337.502 930.764 337.023 929.782 336.854 928.727C336.685 927.671 336.832 926.589 337.278 925.617C337.572 924.97 337.992 924.387 338.513 923.902C339.034 923.418 339.645 923.041 340.312 922.794C340.979 922.547 341.689 922.434 342.4 922.463C343.11 922.491 343.809 922.659 344.454 922.959Z" fill="url(#paint6_radial_150_8953)"/>
<path d="M494.643 834.61C495.789 835.137 496.754 835.992 497.414 837.067C498.074 838.142 498.401 839.389 498.353 840.649C498.305 841.91 497.884 843.128 497.143 844.15C496.403 845.171 495.376 845.95 494.193 846.388C493.009 846.826 491.723 846.904 490.496 846.61C489.268 846.317 488.156 845.667 487.298 844.741C486.441 843.815 485.877 842.656 485.678 841.41C485.48 840.164 485.655 838.887 486.182 837.741C486.53 836.979 487.026 836.292 487.64 835.722C488.254 835.151 488.975 834.708 489.762 834.417C490.548 834.126 491.384 833.993 492.222 834.026C493.059 834.059 493.882 834.258 494.643 834.61Z" fill="url(#paint7_radial_150_8953)"/>
<path d="M422.023 825.694C422.814 826.057 423.48 826.648 423.936 827.39C424.392 828.132 424.617 828.992 424.584 829.862C424.551 830.732 424.261 831.573 423.751 832.279C423.24 832.984 422.532 833.522 421.715 833.825C420.899 834.128 420.011 834.182 419.164 833.981C418.317 833.779 417.548 833.331 416.955 832.693C416.363 832.055 415.973 831.256 415.834 830.396C415.695 829.536 415.815 828.655 416.177 827.863C416.667 826.802 417.557 825.978 418.652 825.572C419.748 825.165 420.96 825.209 422.023 825.694Z" fill="url(#paint8_radial_150_8953)"/>
<path d="M526.137 606.84C526.756 607.136 527.274 607.608 527.625 608.198C527.976 608.788 528.145 609.468 528.11 610.153C528.076 610.839 527.839 611.498 527.43 612.05C527.021 612.601 526.459 613.019 525.813 613.251C525.167 613.483 524.467 613.519 523.801 613.354C523.135 613.189 522.532 612.831 522.069 612.324C521.606 611.818 521.303 611.186 521.199 610.508C521.094 609.829 521.193 609.135 521.481 608.513C521.675 608.096 521.95 607.721 522.289 607.41C522.629 607.1 523.027 606.86 523.46 606.704C523.893 606.549 524.353 606.48 524.812 606.504C525.272 606.527 525.722 606.641 526.137 606.84Z" fill="url(#paint9_radial_150_8953)"/>
<path d="M590.037 526.275C590.657 526.57 591.176 527.043 591.528 527.633C591.881 528.222 592.05 528.904 592.016 529.59C591.982 530.276 591.745 530.937 591.335 531.488C590.926 532.04 590.362 532.458 589.715 532.69C589.069 532.922 588.368 532.957 587.701 532.791C587.034 532.625 586.432 532.265 585.969 531.757C585.507 531.248 585.205 530.615 585.103 529.935C585 529.256 585.101 528.561 585.393 527.939C585.586 527.523 585.86 527.149 586.199 526.839C586.537 526.529 586.934 526.29 587.367 526.135C587.799 525.98 588.257 525.913 588.716 525.937C589.174 525.961 589.623 526.076 590.037 526.275Z" fill="url(#paint10_radial_150_8953)"/>
<path d="M469.331 555.683C469.824 555.912 470.239 556.281 470.522 556.746C470.806 557.21 470.945 557.748 470.923 558.291C470.9 558.834 470.717 559.359 470.397 559.798C470.076 560.238 469.633 560.572 469.122 560.759C468.611 560.946 468.057 560.978 467.528 560.85C467 560.722 466.521 560.44 466.153 560.04C465.784 559.639 465.543 559.139 465.459 558.602C465.375 558.064 465.453 557.514 465.682 557.021C465.832 556.692 466.046 556.397 466.311 556.151C466.577 555.906 466.888 555.715 467.227 555.591C467.567 555.467 467.927 555.411 468.288 555.426C468.649 555.442 469.004 555.53 469.331 555.683Z" fill="url(#paint11_radial_150_8953)"/>
<path d="M408.067 681.097C408.547 681.318 408.95 681.676 409.227 682.126C409.504 682.576 409.641 683.098 409.621 683.626C409.601 684.154 409.425 684.665 409.115 685.093C408.805 685.521 408.375 685.848 407.88 686.032C407.385 686.216 406.846 686.249 406.332 686.127C405.818 686.004 405.351 685.733 404.992 685.346C404.632 684.959 404.395 684.474 404.31 683.952C404.226 683.431 404.298 682.896 404.518 682.415C404.816 681.772 405.356 681.272 406.021 681.025C406.685 680.779 407.421 680.804 408.067 681.097Z" fill="url(#paint12_radial_150_8953)"/>
<path d="M256.639 679.263C257.203 679.521 257.677 679.94 258.002 680.468C258.327 680.996 258.487 681.608 258.464 682.228C258.44 682.847 258.233 683.445 257.869 683.947C257.505 684.448 257 684.83 256.418 685.044C255.837 685.258 255.204 685.295 254.602 685.149C254 685.004 253.454 684.683 253.034 684.227C252.615 683.77 252.34 683.2 252.245 682.588C252.15 681.975 252.239 681.348 252.501 680.787C252.672 680.414 252.915 680.08 253.216 679.802C253.517 679.523 253.87 679.307 254.254 679.166C254.638 679.024 255.047 678.96 255.456 678.977C255.866 678.993 256.268 679.091 256.639 679.263Z" fill="url(#paint13_radial_150_8953)"/>
<path d="M140.117 521.801C140.73 522.096 141.242 522.566 141.588 523.151C141.934 523.737 142.1 524.412 142.063 525.091C142.027 525.77 141.791 526.424 141.384 526.969C140.977 527.514 140.418 527.927 139.777 528.155C139.137 528.383 138.443 528.417 137.783 528.251C137.123 528.086 136.527 527.729 136.069 527.226C135.612 526.723 135.313 526.095 135.211 525.423C135.11 524.75 135.209 524.062 135.497 523.446C135.689 523.032 135.961 522.659 136.299 522.352C136.636 522.044 137.031 521.806 137.461 521.653C137.892 521.5 138.348 521.434 138.804 521.459C139.26 521.484 139.707 521.601 140.117 521.801Z" fill="url(#paint14_radial_150_8953)"/>
<path d="M551.371 635.946C551.526 635.872 551.694 635.831 551.865 635.825C552.036 635.82 552.206 635.85 552.365 635.914C552.523 635.978 552.667 636.075 552.786 636.198C552.905 636.32 552.998 636.467 553.057 636.627C553.117 636.788 553.142 636.959 553.132 637.13C553.121 637.301 553.075 637.467 552.997 637.619C552.918 637.771 552.809 637.905 552.676 638.013C552.542 638.12 552.388 638.199 552.223 638.243C552.068 638.317 551.9 638.358 551.729 638.363C551.558 638.369 551.388 638.339 551.229 638.274C551.071 638.21 550.927 638.114 550.808 637.991C550.689 637.868 550.596 637.722 550.537 637.561C550.477 637.401 550.452 637.23 550.462 637.059C550.473 636.888 550.519 636.721 550.597 636.569C550.676 636.417 550.785 636.283 550.919 636.176C551.052 636.068 551.206 635.99 551.371 635.946Z" fill="url(#paint15_radial_150_8953)"/>
<path d="M564.72 649.201C565.002 649.084 565.313 649.053 565.613 649.115C565.912 649.177 566.186 649.328 566.398 649.547C566.611 649.767 566.752 650.046 566.803 650.347C566.855 650.649 566.814 650.959 566.687 651.236C566.559 651.514 566.351 651.747 566.089 651.905C565.827 652.062 565.523 652.137 565.218 652.119C564.913 652.101 564.62 651.992 564.378 651.805C564.136 651.619 563.956 651.363 563.862 651.072C563.744 650.71 563.767 650.316 563.926 649.969C564.085 649.623 564.368 649.348 564.72 649.201Z" fill="url(#paint16_radial_150_8953)"/>
<path d="M532.687 652.313C532.908 652.231 533.152 652.24 533.366 652.336C533.581 652.433 533.748 652.61 533.834 652.829C533.875 652.939 533.894 653.057 533.89 653.175C533.886 653.293 533.859 653.409 533.81 653.516C533.761 653.624 533.691 653.72 533.604 653.801C533.518 653.881 533.416 653.943 533.305 653.984C533.082 654.064 532.836 654.054 532.62 653.955C532.405 653.856 532.236 653.677 532.15 653.456C532.07 653.233 532.082 652.988 532.183 652.774C532.283 652.559 532.465 652.394 532.687 652.313Z" fill="url(#paint17_radial_150_8953)"/>
<path d="M516.434 665.81C516.585 665.736 516.75 665.695 516.917 665.689C517.085 665.682 517.252 665.711 517.408 665.774C517.564 665.836 517.705 665.931 517.822 666.051C517.939 666.171 518.029 666.315 518.087 666.472C518.145 666.63 518.17 666.798 518.159 666.965C518.148 667.133 518.102 667.296 518.024 667.444C517.946 667.593 517.838 667.724 517.707 667.828C517.575 667.932 517.423 668.008 517.261 668.05C517.11 668.123 516.945 668.165 516.778 668.171C516.61 668.177 516.443 668.148 516.287 668.085C516.131 668.023 515.991 667.928 515.874 667.808C515.757 667.688 515.666 667.544 515.608 667.387C515.55 667.229 515.526 667.062 515.536 666.894C515.547 666.727 515.593 666.563 515.671 666.415C515.749 666.266 515.857 666.135 515.988 666.031C516.12 665.927 516.272 665.851 516.434 665.81Z" fill="url(#paint18_radial_150_8953)"/>
<path d="M513.837 685.368C514.026 685.298 514.231 685.286 514.426 685.333C514.622 685.38 514.799 685.484 514.936 685.632C515.073 685.78 515.163 685.964 515.194 686.163C515.226 686.362 515.198 686.565 515.114 686.748C515.029 686.931 514.893 687.085 514.722 687.19C514.55 687.295 514.351 687.347 514.15 687.34C513.949 687.332 513.755 687.265 513.592 687.147C513.429 687.029 513.305 686.865 513.235 686.677C513.188 686.551 513.167 686.418 513.172 686.284C513.177 686.15 513.209 686.019 513.265 685.897C513.32 685.776 513.4 685.667 513.498 685.576C513.596 685.485 513.711 685.414 513.837 685.368Z" fill="url(#paint19_radial_150_8953)"/>
<path d="M588.593 672.684C588.95 672.554 589.339 672.533 589.708 672.622C590.078 672.712 590.413 672.91 590.671 673.189C590.929 673.469 591.098 673.819 591.158 674.195C591.217 674.571 591.164 674.956 591.006 675.301C590.847 675.647 590.589 675.938 590.266 676.138C589.942 676.338 589.566 676.438 589.186 676.425C588.806 676.412 588.438 676.286 588.128 676.065C587.819 675.843 587.582 675.535 587.448 675.179C587.358 674.94 587.316 674.685 587.325 674.43C587.333 674.175 587.393 673.924 587.499 673.692C587.606 673.46 587.757 673.252 587.945 673.078C588.133 672.905 588.353 672.771 588.593 672.684Z" fill="url(#paint20_radial_150_8953)"/>
<path d="M495.011 819.939C495.452 819.781 495.937 819.802 496.362 819.999C496.786 820.195 497.116 820.552 497.28 820.99C497.361 821.207 497.399 821.437 497.391 821.668C497.383 821.9 497.329 822.127 497.233 822.337C497.136 822.547 496.999 822.736 496.828 822.893C496.658 823.049 496.459 823.171 496.241 823.249C496.024 823.331 495.794 823.369 495.562 823.362C495.331 823.354 495.103 823.301 494.892 823.206C494.681 823.11 494.491 822.974 494.333 822.805C494.174 822.636 494.051 822.437 493.97 822.22C493.811 821.779 493.831 821.294 494.025 820.867C494.22 820.441 494.574 820.108 495.011 819.939Z" fill="url(#paint21_radial_150_8953)"/>
<path d="M460.234 812.41C460.422 812.34 460.622 812.308 460.823 812.316C461.023 812.324 461.22 812.371 461.402 812.455C461.585 812.538 461.749 812.657 461.885 812.805C462.021 812.952 462.127 813.124 462.197 813.313C462.266 813.501 462.298 813.701 462.29 813.901C462.283 814.102 462.235 814.299 462.152 814.481C462.068 814.663 461.949 814.827 461.802 814.963C461.654 815.1 461.482 815.206 461.294 815.275C460.914 815.416 460.493 815.4 460.125 815.23C459.757 815.061 459.471 814.752 459.331 814.372C459.19 813.992 459.207 813.572 459.376 813.204C459.545 812.836 459.854 812.55 460.234 812.41Z" fill="url(#paint22_radial_150_8953)"/>
<path d="M467.914 819.183C468.131 819.113 468.364 819.108 468.584 819.169C468.804 819.229 469.002 819.353 469.152 819.524C469.303 819.696 469.4 819.908 469.431 820.134C469.463 820.36 469.428 820.59 469.33 820.796C469.233 821.003 469.077 821.176 468.882 821.295C468.687 821.413 468.462 821.472 468.234 821.465C468.006 821.457 467.785 821.383 467.598 821.251C467.412 821.12 467.268 820.936 467.185 820.724C467.126 820.575 467.099 820.416 467.104 820.256C467.11 820.097 467.148 819.94 467.216 819.796C467.284 819.651 467.382 819.522 467.502 819.417C467.622 819.311 467.762 819.232 467.914 819.183Z" fill="url(#paint23_radial_150_8953)"/>
<path d="M535.479 941.532C535.73 941.442 536.002 941.427 536.262 941.491C536.521 941.555 536.756 941.694 536.936 941.891C537.117 942.088 537.234 942.334 537.275 942.598C537.316 942.862 537.277 943.132 537.164 943.374C537.052 943.616 536.87 943.82 536.641 943.958C536.413 944.097 536.149 944.165 535.882 944.154C535.615 944.143 535.358 944.053 535.142 943.895C534.926 943.738 534.762 943.52 534.67 943.269C534.609 943.102 534.581 942.924 534.588 942.747C534.596 942.569 534.638 942.394 534.714 942.233C534.789 942.071 534.895 941.926 535.026 941.806C535.158 941.686 535.311 941.593 535.479 941.532Z" fill="url(#paint24_radial_150_8953)"/>
<path d="M502.893 758.591C503.42 758.396 503.993 758.362 504.54 758.493C505.087 758.624 505.583 758.914 505.964 759.327C506.346 759.74 506.596 760.257 506.684 760.812C506.772 761.368 506.692 761.937 506.456 762.447C506.22 762.957 505.838 763.386 505.358 763.679C504.878 763.972 504.322 764.116 503.761 764.093C503.199 764.069 502.656 763.88 502.202 763.548C501.748 763.216 501.403 762.757 501.21 762.229C500.953 761.523 500.985 760.744 501.3 760.063C501.616 759.381 502.188 758.852 502.893 758.591Z" fill="url(#paint25_radial_150_8953)"/>
<path d="M510.11 711.05C510.37 710.954 510.652 710.937 510.921 711.001C511.19 711.065 511.434 711.208 511.622 711.411C511.81 711.614 511.934 711.868 511.977 712.142C512.02 712.415 511.981 712.695 511.865 712.946C511.749 713.197 511.561 713.409 511.325 713.553C511.089 713.697 510.815 713.768 510.538 713.756C510.262 713.745 509.995 713.651 509.772 713.488C509.548 713.325 509.379 713.099 509.284 712.839C509.157 712.492 509.173 712.109 509.328 711.774C509.483 711.439 509.764 711.179 510.11 711.05Z" fill="url(#paint26_radial_150_8953)"/>
<path d="M445.481 733.206C445.683 733.13 445.903 733.115 446.114 733.164C446.324 733.213 446.516 733.323 446.664 733.481C446.811 733.639 446.909 733.837 446.945 734.05C446.98 734.263 446.952 734.482 446.863 734.679C446.774 734.876 446.629 735.042 446.445 735.157C446.262 735.271 446.049 735.329 445.833 735.322C445.617 735.316 445.408 735.245 445.232 735.12C445.055 734.995 444.921 734.82 444.844 734.618C444.793 734.483 444.768 734.34 444.773 734.196C444.777 734.052 444.81 733.911 444.869 733.779C444.928 733.648 445.013 733.53 445.118 733.432C445.223 733.333 445.346 733.256 445.481 733.206Z" fill="url(#paint27_radial_150_8953)"/>
<path d="M440.348 713.994C440.717 713.854 441.119 713.827 441.503 713.916C441.887 714.005 442.236 714.206 442.506 714.494C442.775 714.782 442.953 715.144 443.017 715.533C443.081 715.922 443.027 716.322 442.863 716.681C442.7 717.039 442.433 717.341 442.097 717.548C441.761 717.755 441.372 717.858 440.977 717.843C440.583 717.828 440.203 717.696 439.884 717.464C439.564 717.232 439.322 716.91 439.186 716.54C439.092 716.297 439.048 716.037 439.056 715.777C439.064 715.516 439.123 715.26 439.232 715.023C439.34 714.786 439.494 714.572 439.686 714.396C439.878 714.219 440.103 714.082 440.348 713.994Z" fill="url(#paint28_radial_150_8953)"/>
<path d="M476.775 760.495C477.194 760.339 477.658 760.357 478.064 760.543C478.471 760.73 478.787 761.07 478.942 761.489C479.098 761.909 479.08 762.373 478.894 762.779C478.707 763.186 478.367 763.501 477.948 763.657C477.74 763.734 477.519 763.769 477.298 763.761C477.077 763.753 476.859 763.701 476.658 763.609C476.457 763.516 476.276 763.385 476.125 763.223C475.974 763.06 475.857 762.87 475.78 762.662C475.703 762.455 475.668 762.234 475.676 762.013C475.684 761.792 475.736 761.574 475.829 761.373C475.921 761.171 476.052 760.99 476.214 760.84C476.377 760.689 476.567 760.572 476.775 760.495Z" fill="url(#paint29_radial_150_8953)"/>
<path d="M345.111 710.67C345.561 710.502 346.052 710.472 346.52 710.583C346.988 710.694 347.412 710.941 347.74 711.293C348.067 711.646 348.283 712.087 348.359 712.562C348.435 713.037 348.369 713.524 348.168 713.961C347.967 714.398 347.642 714.766 347.232 715.018C346.822 715.27 346.347 715.394 345.866 715.376C345.385 715.357 344.921 715.197 344.532 714.914C344.142 714.632 343.846 714.24 343.679 713.788C343.457 713.185 343.482 712.518 343.751 711.934C344.019 711.349 344.508 710.895 345.111 710.67Z" fill="url(#paint30_radial_150_8953)"/>
<path d="M326.521 721.039C326.812 720.931 327.133 720.944 327.415 721.074C327.697 721.203 327.916 721.44 328.023 721.731C328.131 722.022 328.118 722.344 327.988 722.625C327.859 722.907 327.622 723.126 327.331 723.233C327.187 723.287 327.034 723.311 326.88 723.305C326.727 723.299 326.576 723.263 326.437 723.199C326.297 723.134 326.171 723.043 326.067 722.93C325.963 722.818 325.882 722.685 325.829 722.541C325.775 722.397 325.751 722.244 325.757 722.091C325.763 721.937 325.799 721.786 325.863 721.647C325.928 721.507 326.019 721.382 326.132 721.277C326.244 721.173 326.376 721.092 326.521 721.039Z" fill="url(#paint31_radial_150_8953)"/>
<path d="M364.219 866.002C364.496 865.877 364.796 865.81 365.1 865.806C365.405 865.802 365.706 865.861 365.987 865.978C366.267 866.096 366.521 866.27 366.731 866.49C366.942 866.709 367.105 866.97 367.21 867.255C367.315 867.541 367.361 867.845 367.344 868.148C367.327 868.452 367.247 868.749 367.11 869.021C366.974 869.293 366.782 869.533 366.549 869.728C366.315 869.922 366.044 870.067 365.752 870.152C365.474 870.277 365.174 870.344 364.87 870.348C364.566 870.352 364.264 870.293 363.984 870.176C363.703 870.058 363.45 869.884 363.239 869.664C363.029 869.445 362.866 869.184 362.761 868.899C362.655 868.613 362.61 868.309 362.627 868.006C362.644 867.702 362.723 867.405 362.86 867.133C362.997 866.862 363.188 866.621 363.422 866.426C363.656 866.232 363.927 866.087 364.219 866.002Z" fill="url(#paint32_radial_150_8953)"/>
<path d="M387.629 868.589C388.01 868.449 388.424 868.424 388.818 868.519C389.213 868.614 389.571 868.824 389.846 869.122C390.121 869.42 390.302 869.794 390.365 870.194C390.428 870.595 390.371 871.006 390.2 871.374C390.029 871.743 389.753 872.052 389.407 872.264C389.06 872.475 388.659 872.579 388.253 872.562C387.848 872.545 387.456 872.408 387.129 872.168C386.801 871.928 386.552 871.597 386.413 871.216C386.319 870.963 386.276 870.695 386.286 870.426C386.296 870.157 386.36 869.893 386.473 869.649C386.586 869.404 386.746 869.185 386.945 869.003C387.143 868.821 387.376 868.681 387.629 868.589Z" fill="url(#paint33_radial_150_8953)"/>
<path d="M434.275 872.757C434.755 872.565 435.281 872.522 435.786 872.631C436.292 872.741 436.752 872.998 437.11 873.371C437.468 873.744 437.707 874.215 437.795 874.724C437.884 875.233 437.819 875.757 437.608 876.229C437.397 876.701 437.051 877.099 436.612 877.373C436.174 877.646 435.664 877.783 435.148 877.765C434.631 877.748 434.132 877.576 433.713 877.273C433.295 876.97 432.976 876.549 432.798 876.064C432.573 875.428 432.601 874.731 432.876 874.115C433.151 873.5 433.652 873.013 434.275 872.757Z" fill="url(#paint34_radial_150_8953)"/>
<path d="M503.326 879.513C503.716 879.369 504.139 879.345 504.542 879.443C504.945 879.54 505.31 879.755 505.591 880.06C505.872 880.365 506.056 880.746 506.12 881.156C506.184 881.566 506.125 881.985 505.951 882.361C505.777 882.738 505.495 883.054 505.14 883.27C504.786 883.486 504.376 883.591 503.962 883.574C503.548 883.557 503.148 883.417 502.813 883.172C502.478 882.928 502.223 882.589 502.081 882.2C501.89 881.678 501.914 881.102 502.148 880.598C502.381 880.095 502.805 879.704 503.326 879.513Z" fill="url(#paint35_radial_150_8953)"/>
<path d="M547.623 884.34C547.961 884.245 548.323 884.281 548.637 884.441C548.95 884.601 549.191 884.873 549.313 885.203C549.434 885.533 549.427 885.897 549.292 886.222C549.157 886.546 548.904 886.808 548.585 886.955C548.246 887.051 547.884 887.015 547.571 886.855C547.258 886.695 547.016 886.423 546.895 886.093C546.773 885.763 546.781 885.399 546.916 885.074C547.051 884.749 547.303 884.487 547.623 884.34Z" fill="url(#paint36_radial_150_8953)"/>
<path d="M278.784 606.511C278.995 606.434 279.218 606.399 279.442 606.408C279.666 606.418 279.886 606.471 280.089 606.566C280.292 606.66 280.474 606.794 280.626 606.96C280.777 607.125 280.894 607.319 280.97 607.529C281.048 607.739 281.083 607.962 281.074 608.186C281.066 608.409 281.013 608.629 280.919 608.832C280.826 609.035 280.693 609.218 280.529 609.369C280.365 609.521 280.172 609.639 279.962 609.717C279.753 609.794 279.53 609.83 279.306 609.821C279.083 609.812 278.863 609.759 278.66 609.666C278.457 609.572 278.274 609.44 278.122 609.275C277.97 609.111 277.852 608.919 277.775 608.709C277.619 608.284 277.638 607.814 277.827 607.402C278.016 606.99 278.36 606.67 278.784 606.511Z" fill="url(#paint37_radial_150_8953)"/>
<path d="M174.949 573.045C175.143 572.964 175.353 572.924 175.564 572.929C175.775 572.933 175.982 572.981 176.174 573.07C176.365 573.159 176.535 573.286 176.675 573.445C176.814 573.603 176.918 573.789 176.982 573.99C177.129 574.385 177.113 574.823 176.938 575.206C176.762 575.59 176.442 575.888 176.047 576.035C175.651 576.182 175.214 576.166 174.83 575.991C174.447 575.816 174.149 575.495 174.001 575.1C173.858 574.702 173.876 574.263 174.053 573.878C174.231 573.494 174.552 573.194 174.949 573.045Z" fill="url(#paint38_radial_150_8953)"/>
</g>
<defs>
<filter id="filter0_f_150_8953" x="126.68" y="509.249" width="965.113" height="679.567" filterUnits="userSpaceOnUse" color-interpolation-filters="sRGB">
<feFlood flood-opacity="0" result="BackgroundImageFix"/>
<feBlend mode="normal" in="SourceGraphic" in2="BackgroundImageFix" result="shape"/>
<feGaussianBlur stdDeviation="3" result="effect1_foregroundBlur_150_8953"/>
</filter>
<filter id="filter1_d_150_8953" x="129.172" y="0.427246" width="963.148" height="1191" filterUnits="userSpaceOnUse" color-interpolation-filters="sRGB">
<feFlood flood-opacity="0" result="BackgroundImageFix"/>
<feColorMatrix in="SourceAlpha" type="matrix" values="0 0 0 0 0 0 0 0 0 0 0 0 0 0 0 0 0 0 127 0" result="hardAlpha"/>
<feOffset/>
<feGaussianBlur stdDeviation="3"/>
<feColorMatrix type="matrix" values="0 0 0 0 0 0 0 0 0 0.94902 0 0 0 0 1 0 0 0 1 0"/>
<feBlend mode="normal" in2="BackgroundImageFix" result="effect1_dropShadow_150_8953"/>
<feBlend mode="normal" in="SourceGraphic" in2="effect1_dropShadow_150_8953" result="shape"/>
</filter>
<linearGradient id="paint0_linear_150_8953" x1="477.405" y1="953.586" x2="604.216" y2="740.336" gradientUnits="userSpaceOnUse">
<stop stop-color="#0085E6"/>
<stop offset="0.13" stop-color="#0080DE" stop-opacity="0.96"/>
<stop offset="0.38" stop-color="#0072CA" stop-opacity="0.84"/>
<stop offset="0.72" stop-color="#005CAA" stop-opacity="0.66"/>
<stop offset="1" stop-color="#00478C" stop-opacity="0.49"/>
</linearGradient>
<radialGradient id="paint1_radial_150_8953" cx="0" cy="0" r="1" gradientUnits="userSpaceOnUse" gradientTransform="translate(402.51 764.39) rotate(-110.327) scale(10.2526 10.2526)">
<stop offset="0.19" stop-color="#00FFFF"/>
<stop offset="0.4" stop-color="#01FDFD" stop-opacity="0.99"/>
<stop offset="0.51" stop-color="#02F5F8" stop-opacity="0.96"/>
<stop offset="0.6" stop-color="#06E7EF" stop-opacity="0.91"/>
<stop offset="0.68" stop-color="#0AD4E1" stop-opacity="0.83"/>
<stop offset="0.74" stop-color="#10BBD0" stop-opacity="0.74"/>
<stop offset="0.81" stop-color="#179DBA" stop-opacity="0.62"/>
<stop offset="0.86" stop-color="#2078A1" stop-opacity="0.47"/>
<stop offset="0.92" stop-color="#2A4E84" stop-opacity="0.31"/>
<stop offset="0.97" stop-color="#352063" stop-opacity="0.13"/>
<stop offset="1" stop-color="#3D004D" stop-opacity="0"/>
</radialGradient>
<radialGradient id="paint2_radial_150_8953" cx="0" cy="0" r="1" gradientUnits="userSpaceOnUse" gradientTransform="translate(619.087 1083.17) rotate(-110.327) scale(2.18723 2.18721)">
<stop offset="0.19" stop-color="#00FFFF"/>
<stop offset="0.4" stop-color="#01FDFD" stop-opacity="0.99"/>
<stop offset="0.51" stop-color="#02F5F8" stop-opacity="0.96"/>
<stop offset="0.6" stop-color="#06E7EF" stop-opacity="0.91"/>
<stop offset="0.68" stop-color="#0AD4E1" stop-opacity="0.83"/>
<stop offset="0.74" stop-color="#10BBD0" stop-opacity="0.74"/>
<stop offset="0.81" stop-color="#179DBA" stop-opacity="0.62"/>
<stop offset="0.86" stop-color="#2078A1" stop-opacity="0.47"/>
<stop offset="0.92" stop-color="#2A4E84" stop-opacity="0.31"/>
<stop offset="0.97" stop-color="#352063" stop-opacity="0.13"/>
<stop offset="1" stop-color="#3D004D" stop-opacity="0"/>
</radialGradient>
<radialGradient id="paint3_radial_150_8953" cx="0" cy="0" r="1" gradientUnits="userSpaceOnUse" gradientTransform="translate(600.342 890.609) rotate(-110.327) scale(4.60226)">
<stop offset="0.19" stop-color="#00FFFF"/>
<stop offset="0.4" stop-color="#01FDFD" stop-opacity="0.99"/>
<stop offset="0.51" stop-color="#02F5F8" stop-opacity="0.96"/>
<stop offset="0.6" stop-color="#06E7EF" stop-opacity="0.91"/>
<stop offset="0.68" stop-color="#0AD4E1" stop-opacity="0.83"/>
<stop offset="0.74" stop-color="#10BBD0" stop-opacity="0.74"/>
<stop offset="0.81" stop-color="#179DBA" stop-opacity="0.62"/>
<stop offset="0.86" stop-color="#2078A1" stop-opacity="0.47"/>
<stop offset="0.92" stop-color="#2A4E84" stop-opacity="0.31"/>
<stop offset="0.97" stop-color="#352063" stop-opacity="0.13"/>
<stop offset="1" stop-color="#3D004D" stop-opacity="0"/>
</radialGradient>
<radialGradient id="paint4_radial_150_8953" cx="0" cy="0" r="1" gradientUnits="userSpaceOnUse" gradientTransform="translate(484.081 984.587) rotate(-110.327) scale(2.33911 2.3391)">
<stop offset="0.19" stop-color="#00FFFF"/>
<stop offset="0.4" stop-color="#01FDFD" stop-opacity="0.99"/>
<stop offset="0.51" stop-color="#02F5F8" stop-opacity="0.96"/>
<stop offset="0.6" stop-color="#06E7EF" stop-opacity="0.91"/>
<stop offset="0.68" stop-color="#0AD4E1" stop-opacity="0.83"/>
<stop offset="0.74" stop-color="#10BBD0" stop-opacity="0.74"/>
<stop offset="0.81" stop-color="#179DBA" stop-opacity="0.62"/>
<stop offset="0.86" stop-color="#2078A1" stop-opacity="0.47"/>
<stop offset="0.92" stop-color="#2A4E84" stop-opacity="0.31"/>
<stop offset="0.97" stop-color="#352063" stop-opacity="0.13"/>
<stop offset="1" stop-color="#3D004D" stop-opacity="0"/>
</radialGradient>
<radialGradient id="paint5_radial_150_8953" cx="0" cy="0" r="1" gradientUnits="userSpaceOnUse" gradientTransform="translate(286.311 860.639) rotate(-110.327) scale(2.59732 2.59731)">
<stop offset="0.19" stop-color="#00FFFF"/>
<stop offset="0.4" stop-color="#01FDFD" stop-opacity="0.99"/>
<stop offset="0.51" stop-color="#02F5F8" stop-opacity="0.96"/>
<stop offset="0.6" stop-color="#06E7EF" stop-opacity="0.91"/>
<stop offset="0.68" stop-color="#0AD4E1" stop-opacity="0.83"/>
<stop offset="0.74" stop-color="#10BBD0" stop-opacity="0.74"/>
<stop offset="0.81" stop-color="#179DBA" stop-opacity="0.62"/>
<stop offset="0.86" stop-color="#2078A1" stop-opacity="0.47"/>
<stop offset="0.92" stop-color="#2A4E84" stop-opacity="0.31"/>
<stop offset="0.97" stop-color="#352063" stop-opacity="0.13"/>
<stop offset="1" stop-color="#3D004D" stop-opacity="0"/>
</radialGradient>
<radialGradient id="paint6_radial_150_8953" cx="0" cy="0" r="1" gradientUnits="userSpaceOnUse" gradientTransform="translate(342.022 927.863) rotate(-110.327) scale(5.40727)">
<stop offset="0.19" stop-color="#00FFFF"/>
<stop offset="0.4" stop-color="#01FDFD" stop-opacity="0.99"/>
<stop offset="0.51" stop-color="#02F5F8" stop-opacity="0.96"/>
<stop offset="0.6" stop-color="#06E7EF" stop-opacity="0.91"/>
<stop offset="0.68" stop-color="#0AD4E1" stop-opacity="0.83"/>
<stop offset="0.74" stop-color="#10BBD0" stop-opacity="0.74"/>
<stop offset="0.81" stop-color="#179DBA" stop-opacity="0.62"/>
<stop offset="0.86" stop-color="#2078A1" stop-opacity="0.47"/>
<stop offset="0.92" stop-color="#2A4E84" stop-opacity="0.31"/>
<stop offset="0.97" stop-color="#352063" stop-opacity="0.13"/>
<stop offset="1" stop-color="#3D004D" stop-opacity="0"/>
</radialGradient>
<radialGradient id="paint7_radial_150_8953" cx="0" cy="0" r="1" gradientUnits="userSpaceOnUse" gradientTransform="translate(491.813 840.399) rotate(-110.327) scale(6.37937)">
<stop offset="0.19" stop-color="#00FFFF"/>
<stop offset="0.4" stop-color="#01FDFD" stop-opacity="0.99"/>
<stop offset="0.51" stop-color="#02F5F8" stop-opacity="0.96"/>
<stop offset="0.6" stop-color="#06E7EF" stop-opacity="0.91"/>
<stop offset="0.68" stop-color="#0AD4E1" stop-opacity="0.83"/>
<stop offset="0.74" stop-color="#10BBD0" stop-opacity="0.74"/>
<stop offset="0.81" stop-color="#179DBA" stop-opacity="0.62"/>
<stop offset="0.86" stop-color="#2078A1" stop-opacity="0.47"/>
<stop offset="0.92" stop-color="#2A4E84" stop-opacity="0.31"/>
<stop offset="0.97" stop-color="#352063" stop-opacity="0.13"/>
<stop offset="1" stop-color="#3D004D" stop-opacity="0"/>
</radialGradient>
<radialGradient id="paint8_radial_150_8953" cx="0" cy="0" r="1" gradientUnits="userSpaceOnUse" gradientTransform="translate(420.01 829.695) rotate(-110.327) scale(4.42 4.41999)">
<stop offset="0.19" stop-color="#00FFFF"/>
<stop offset="0.4" stop-color="#01FDFD" stop-opacity="0.99"/>
<stop offset="0.51" stop-color="#02F5F8" stop-opacity="0.96"/>
<stop offset="0.6" stop-color="#06E7EF" stop-opacity="0.91"/>
<stop offset="0.68" stop-color="#0AD4E1" stop-opacity="0.83"/>
<stop offset="0.74" stop-color="#10BBD0" stop-opacity="0.74"/>
<stop offset="0.81" stop-color="#179DBA" stop-opacity="0.62"/>
<stop offset="0.86" stop-color="#2078A1" stop-opacity="0.47"/>
<stop offset="0.92" stop-color="#2A4E84" stop-opacity="0.31"/>
<stop offset="0.97" stop-color="#352063" stop-opacity="0.13"/>
<stop offset="1" stop-color="#3D004D" stop-opacity="0"/>
</radialGradient>
<radialGradient id="paint9_radial_150_8953" cx="0" cy="0" r="1" gradientUnits="userSpaceOnUse" gradientTransform="translate(524.523 609.986) rotate(-110.327) scale(3.47828 3.47827)">
<stop offset="0.19" stop-color="#00FFFF"/>
<stop offset="0.4" stop-color="#01FDFD" stop-opacity="0.99"/>
<stop offset="0.51" stop-color="#02F5F8" stop-opacity="0.96"/>
<stop offset="0.6" stop-color="#06E7EF" stop-opacity="0.91"/>
<stop offset="0.68" stop-color="#0AD4E1" stop-opacity="0.83"/>
<stop offset="0.74" stop-color="#10BBD0" stop-opacity="0.74"/>
<stop offset="0.81" stop-color="#179DBA" stop-opacity="0.62"/>
<stop offset="0.86" stop-color="#2078A1" stop-opacity="0.47"/>
<stop offset="0.92" stop-color="#2A4E84" stop-opacity="0.31"/>
<stop offset="0.97" stop-color="#352063" stop-opacity="0.13"/>
<stop offset="1" stop-color="#3D004D" stop-opacity="0"/>
</radialGradient>
<radialGradient id="paint10_radial_150_8953" cx="0" cy="0" r="1" gradientUnits="userSpaceOnUse" gradientTransform="translate(588.422 529.41) rotate(-110.327) scale(3.47828 3.47828)">
<stop offset="0.19" stop-color="#00FFFF"/>
<stop offset="0.4" stop-color="#01FDFD" stop-opacity="0.99"/>
<stop offset="0.51" stop-color="#02F5F8" stop-opacity="0.96"/>
<stop offset="0.6" stop-color="#06E7EF" stop-opacity="0.91"/>
<stop offset="0.68" stop-color="#0AD4E1" stop-opacity="0.83"/>
<stop offset="0.74" stop-color="#10BBD0" stop-opacity="0.74"/>
<stop offset="0.81" stop-color="#179DBA" stop-opacity="0.62"/>
<stop offset="0.86" stop-color="#2078A1" stop-opacity="0.47"/>
<stop offset="0.92" stop-color="#2A4E84" stop-opacity="0.31"/>
<stop offset="0.97" stop-color="#352063" stop-opacity="0.13"/>
<stop offset="1" stop-color="#3D004D" stop-opacity="0"/>
</radialGradient>
<radialGradient id="paint11_radial_150_8953" cx="0" cy="0" r="1" gradientUnits="userSpaceOnUse" gradientTransform="translate(468.017 558.157) rotate(-110.327) scale(2.7492 2.74921)">
<stop offset="0.19" stop-color="#00FFFF"/>
<stop offset="0.4" stop-color="#01FDFD" stop-opacity="0.99"/>
<stop offset="0.51" stop-color="#02F5F8" stop-opacity="0.96"/>
<stop offset="0.6" stop-color="#06E7EF" stop-opacity="0.91"/>
<stop offset="0.68" stop-color="#0AD4E1" stop-opacity="0.83"/>
<stop offset="0.74" stop-color="#10BBD0" stop-opacity="0.74"/>
<stop offset="0.81" stop-color="#179DBA" stop-opacity="0.62"/>
<stop offset="0.86" stop-color="#2078A1" stop-opacity="0.47"/>
<stop offset="0.92" stop-color="#2A4E84" stop-opacity="0.31"/>
<stop offset="0.97" stop-color="#352063" stop-opacity="0.13"/>
<stop offset="1" stop-color="#3D004D" stop-opacity="0"/>
</radialGradient>
<radialGradient id="paint12_radial_150_8953" cx="0" cy="0" r="1" gradientUnits="userSpaceOnUse" gradientTransform="translate(406.773 683.507) rotate(-110.327) scale(2.67325 2.67325)">
<stop offset="0.19" stop-color="#00FFFF"/>
<stop offset="0.4" stop-color="#01FDFD" stop-opacity="0.99"/>
<stop offset="0.51" stop-color="#02F5F8" stop-opacity="0.96"/>
<stop offset="0.6" stop-color="#06E7EF" stop-opacity="0.91"/>
<stop offset="0.68" stop-color="#0AD4E1" stop-opacity="0.83"/>
<stop offset="0.74" stop-color="#10BBD0" stop-opacity="0.74"/>
<stop offset="0.81" stop-color="#179DBA" stop-opacity="0.62"/>
<stop offset="0.86" stop-color="#2078A1" stop-opacity="0.47"/>
<stop offset="0.92" stop-color="#2A4E84" stop-opacity="0.31"/>
<stop offset="0.97" stop-color="#352063" stop-opacity="0.13"/>
<stop offset="1" stop-color="#3D004D" stop-opacity="0"/>
</radialGradient>
<radialGradient id="paint13_radial_150_8953" cx="0" cy="0" r="1" gradientUnits="userSpaceOnUse" gradientTransform="translate(255.151 682.077) rotate(-110.327) scale(3.11374 3.11374)">
<stop offset="0.19" stop-color="#00FFFF"/>
<stop offset="0.4" stop-color="#01FDFD" stop-opacity="0.99"/>
<stop offset="0.51" stop-color="#02F5F8" stop-opacity="0.96"/>
<stop offset="0.6" stop-color="#06E7EF" stop-opacity="0.91"/>
<stop offset="0.68" stop-color="#0AD4E1" stop-opacity="0.83"/>
<stop offset="0.74" stop-color="#10BBD0" stop-opacity="0.74"/>
<stop offset="0.81" stop-color="#179DBA" stop-opacity="0.62"/>
<stop offset="0.86" stop-color="#2078A1" stop-opacity="0.47"/>
<stop offset="0.92" stop-color="#2A4E84" stop-opacity="0.31"/>
<stop offset="0.97" stop-color="#352063" stop-opacity="0.13"/>
<stop offset="1" stop-color="#3D004D" stop-opacity="0"/>
</radialGradient>
<radialGradient id="paint14_radial_150_8953" cx="0" cy="0" r="1" gradientUnits="userSpaceOnUse" gradientTransform="translate(138.516 524.95) rotate(-110.327) scale(3.46309 3.46309)">
<stop offset="0.19" stop-color="#00FFFF"/>
<stop offset="0.4" stop-color="#01FDFD" stop-opacity="0.99"/>
<stop offset="0.51" stop-color="#02F5F8" stop-opacity="0.96"/>
<stop offset="0.6" stop-color="#06E7EF" stop-opacity="0.91"/>
<stop offset="0.68" stop-color="#0AD4E1" stop-opacity="0.83"/>
<stop offset="0.74" stop-color="#10BBD0" stop-opacity="0.74"/>
<stop offset="0.81" stop-color="#179DBA" stop-opacity="0.62"/>
<stop offset="0.86" stop-color="#2078A1" stop-opacity="0.47"/>
<stop offset="0.92" stop-color="#2A4E84" stop-opacity="0.31"/>
<stop offset="0.97" stop-color="#352063" stop-opacity="0.13"/>
<stop offset="1" stop-color="#3D004D" stop-opacity="0"/>
</radialGradient>
<radialGradient id="paint15_radial_150_8953" cx="0" cy="0" r="1" gradientUnits="userSpaceOnUse" gradientTransform="translate(551.629 637.07) rotate(-110.327) scale(1.23031 1.2303)">
<stop offset="0.19" stop-color="#00FFFF"/>
<stop offset="0.4" stop-color="#01FDFD" stop-opacity="0.99"/>
<stop offset="0.51" stop-color="#02F5F8" stop-opacity="0.96"/>
<stop offset="0.6" stop-color="#06E7EF" stop-opacity="0.91"/>
<stop offset="0.68" stop-color="#0AD4E1" stop-opacity="0.83"/>
<stop offset="0.74" stop-color="#10BBD0" stop-opacity="0.74"/>
<stop offset="0.81" stop-color="#179DBA" stop-opacity="0.62"/>
<stop offset="0.86" stop-color="#2078A1" stop-opacity="0.47"/>
<stop offset="0.92" stop-color="#2A4E84" stop-opacity="0.31"/>
<stop offset="0.97" stop-color="#352063" stop-opacity="0.13"/>
<stop offset="1" stop-color="#3D004D" stop-opacity="0"/>
</radialGradient>
<radialGradient id="paint16_radial_150_8953" cx="0" cy="0" r="1" gradientUnits="userSpaceOnUse" gradientTransform="translate(565.098 650.527) rotate(-110.327) scale(1.45815 1.45814)">
<stop offset="0.19" stop-color="#00FFFF"/>
<stop offset="0.4" stop-color="#01FDFD" stop-opacity="0.99"/>
<stop offset="0.51" stop-color="#02F5F8" stop-opacity="0.96"/>
<stop offset="0.6" stop-color="#06E7EF" stop-opacity="0.91"/>
<stop offset="0.68" stop-color="#0AD4E1" stop-opacity="0.83"/>
<stop offset="0.74" stop-color="#10BBD0" stop-opacity="0.74"/>
<stop offset="0.81" stop-color="#179DBA" stop-opacity="0.62"/>
<stop offset="0.86" stop-color="#2078A1" stop-opacity="0.47"/>
<stop offset="0.92" stop-color="#2A4E84" stop-opacity="0.31"/>
<stop offset="0.97" stop-color="#352063" stop-opacity="0.13"/>
<stop offset="1" stop-color="#3D004D" stop-opacity="0"/>
</radialGradient>
<radialGradient id="paint17_radial_150_8953" cx="0" cy="0" r="1" gradientUnits="userSpaceOnUse" gradientTransform="translate(532.822 653.122) rotate(-110.327) scale(0.896144 0.896152)">
<stop offset="0.19" stop-color="#00FFFF"/>
<stop offset="0.4" stop-color="#01FDFD" stop-opacity="0.99"/>
<stop offset="0.51" stop-color="#02F5F8" stop-opacity="0.96"/>
<stop offset="0.6" stop-color="#06E7EF" stop-opacity="0.91"/>
<stop offset="0.68" stop-color="#0AD4E1" stop-opacity="0.83"/>
<stop offset="0.74" stop-color="#10BBD0" stop-opacity="0.74"/>
<stop offset="0.81" stop-color="#179DBA" stop-opacity="0.62"/>
<stop offset="0.86" stop-color="#2078A1" stop-opacity="0.47"/>
<stop offset="0.92" stop-color="#2A4E84" stop-opacity="0.31"/>
<stop offset="0.97" stop-color="#352063" stop-opacity="0.13"/>
<stop offset="1" stop-color="#3D004D" stop-opacity="0"/>
</radialGradient>
<radialGradient id="paint18_radial_150_8953" cx="0" cy="0" r="1" gradientUnits="userSpaceOnUse" gradientTransform="translate(516.678 666.91) rotate(-110.327) scale(1.19994 1.19993)">
<stop offset="0.19" stop-color="#00FFFF"/>
<stop offset="0.4" stop-color="#01FDFD" stop-opacity="0.99"/>
<stop offset="0.51" stop-color="#02F5F8" stop-opacity="0.96"/>
<stop offset="0.6" stop-color="#06E7EF" stop-opacity="0.91"/>
<stop offset="0.68" stop-color="#0AD4E1" stop-opacity="0.83"/>
<stop offset="0.74" stop-color="#10BBD0" stop-opacity="0.74"/>
<stop offset="0.81" stop-color="#179DBA" stop-opacity="0.62"/>
<stop offset="0.86" stop-color="#2078A1" stop-opacity="0.47"/>
<stop offset="0.92" stop-color="#2A4E84" stop-opacity="0.31"/>
<stop offset="0.97" stop-color="#352063" stop-opacity="0.13"/>
<stop offset="1" stop-color="#3D004D" stop-opacity="0"/>
</radialGradient>
<radialGradient id="paint19_radial_150_8953" cx="0" cy="0" r="1" gradientUnits="userSpaceOnUse" gradientTransform="translate(514.014 686.298) rotate(-110.327) scale(1.01766)">
<stop offset="0.19" stop-color="#00FFFF"/>
<stop offset="0.4" stop-color="#01FDFD" stop-opacity="0.99"/>
<stop offset="0.51" stop-color="#02F5F8" stop-opacity="0.96"/>
<stop offset="0.6" stop-color="#06E7EF" stop-opacity="0.91"/>
<stop offset="0.68" stop-color="#0AD4E1" stop-opacity="0.83"/>
<stop offset="0.74" stop-color="#10BBD0" stop-opacity="0.74"/>
<stop offset="0.81" stop-color="#179DBA" stop-opacity="0.62"/>
<stop offset="0.86" stop-color="#2078A1" stop-opacity="0.47"/>
<stop offset="0.92" stop-color="#2A4E84" stop-opacity="0.31"/>
<stop offset="0.97" stop-color="#352063" stop-opacity="0.13"/>
<stop offset="1" stop-color="#3D004D" stop-opacity="0"/>
</radialGradient>
<radialGradient id="paint20_radial_150_8953" cx="0" cy="0" r="1" gradientUnits="userSpaceOnUse" gradientTransform="translate(589.092 674.408) rotate(-110.327) scale(1.929 1.929)">
<stop offset="0.19" stop-color="#00FFFF"/>
<stop offset="0.4" stop-color="#01FDFD" stop-opacity="0.99"/>
<stop offset="0.51" stop-color="#02F5F8" stop-opacity="0.96"/>
<stop offset="0.6" stop-color="#06E7EF" stop-opacity="0.91"/>
<stop offset="0.68" stop-color="#0AD4E1" stop-opacity="0.83"/>
<stop offset="0.74" stop-color="#10BBD0" stop-opacity="0.74"/>
<stop offset="0.81" stop-color="#179DBA" stop-opacity="0.62"/>
<stop offset="0.86" stop-color="#2078A1" stop-opacity="0.47"/>
<stop offset="0.92" stop-color="#2A4E84" stop-opacity="0.31"/>
<stop offset="0.97" stop-color="#352063" stop-opacity="0.13"/>
<stop offset="1" stop-color="#3D004D" stop-opacity="0"/>
</radialGradient>
<radialGradient id="paint21_radial_150_8953" cx="0" cy="0" r="1" gradientUnits="userSpaceOnUse" gradientTransform="translate(495.41 821.639) rotate(-110.327) scale(1.76192 1.76192)">
<stop offset="0.19" stop-color="#00FFFF"/>
<stop offset="0.4" stop-color="#01FDFD" stop-opacity="0.99"/>
<stop offset="0.51" stop-color="#02F5F8" stop-opacity="0.96"/>
<stop offset="0.6" stop-color="#06E7EF" stop-opacity="0.91"/>
<stop offset="0.68" stop-color="#0AD4E1" stop-opacity="0.83"/>
<stop offset="0.74" stop-color="#10BBD0" stop-opacity="0.74"/>
<stop offset="0.81" stop-color="#179DBA" stop-opacity="0.62"/>
<stop offset="0.86" stop-color="#2078A1" stop-opacity="0.47"/>
<stop offset="0.92" stop-color="#2A4E84" stop-opacity="0.31"/>
<stop offset="0.97" stop-color="#352063" stop-opacity="0.13"/>
<stop offset="1" stop-color="#3D004D" stop-opacity="0"/>
</radialGradient>
<radialGradient id="paint22_radial_150_8953" cx="0" cy="0" r="1" gradientUnits="userSpaceOnUse" gradientTransform="translate(460.592 813.836) rotate(-110.327) scale(1.53409 1.53409)">
<stop offset="0.19" stop-color="#00FFFF"/>
<stop offset="0.4" stop-color="#01FDFD" stop-opacity="0.99"/>
<stop offset="0.51" stop-color="#02F5F8" stop-opacity="0.96"/>
<stop offset="0.6" stop-color="#06E7EF" stop-opacity="0.91"/>
<stop offset="0.68" stop-color="#0AD4E1" stop-opacity="0.83"/>
<stop offset="0.74" stop-color="#10BBD0" stop-opacity="0.74"/>
<stop offset="0.81" stop-color="#179DBA" stop-opacity="0.62"/>
<stop offset="0.86" stop-color="#2078A1" stop-opacity="0.47"/>
<stop offset="0.92" stop-color="#2A4E84" stop-opacity="0.31"/>
<stop offset="0.97" stop-color="#352063" stop-opacity="0.13"/>
<stop offset="1" stop-color="#3D004D" stop-opacity="0"/>
</radialGradient>
<radialGradient id="paint23_radial_150_8953" cx="0" cy="0" r="1" gradientUnits="userSpaceOnUse" gradientTransform="translate(468.157 820.265) rotate(-110.327) scale(1.16955 1.16955)">
<stop offset="0.19" stop-color="#00FFFF"/>
<stop offset="0.4" stop-color="#01FDFD" stop-opacity="0.99"/>
<stop offset="0.51" stop-color="#02F5F8" stop-opacity="0.96"/>
<stop offset="0.6" stop-color="#06E7EF" stop-opacity="0.91"/>
<stop offset="0.68" stop-color="#0AD4E1" stop-opacity="0.83"/>
<stop offset="0.74" stop-color="#10BBD0" stop-opacity="0.74"/>
<stop offset="0.81" stop-color="#179DBA" stop-opacity="0.62"/>
<stop offset="0.86" stop-color="#2078A1" stop-opacity="0.47"/>
<stop offset="0.92" stop-color="#2A4E84" stop-opacity="0.31"/>
<stop offset="0.97" stop-color="#352063" stop-opacity="0.13"/>
<stop offset="1" stop-color="#3D004D" stop-opacity="0"/>
</radialGradient>
<radialGradient id="paint24_radial_150_8953" cx="0" cy="0" r="1" gradientUnits="userSpaceOnUse" gradientTransform="translate(535.79 942.803) rotate(-110.327) scale(1.35181 1.35182)">
<stop offset="0.19" stop-color="#00FFFF"/>
<stop offset="0.4" stop-color="#01FDFD" stop-opacity="0.99"/>
<stop offset="0.51" stop-color="#02F5F8" stop-opacity="0.96"/>
<stop offset="0.6" stop-color="#06E7EF" stop-opacity="0.91"/>
<stop offset="0.68" stop-color="#0AD4E1" stop-opacity="0.83"/>
<stop offset="0.74" stop-color="#10BBD0" stop-opacity="0.74"/>
<stop offset="0.81" stop-color="#179DBA" stop-opacity="0.62"/>
<stop offset="0.86" stop-color="#2078A1" stop-opacity="0.47"/>
<stop offset="0.92" stop-color="#2A4E84" stop-opacity="0.31"/>
<stop offset="0.97" stop-color="#352063" stop-opacity="0.13"/>
<stop offset="1" stop-color="#3D004D" stop-opacity="0"/>
</radialGradient>
<radialGradient id="paint25_radial_150_8953" cx="0" cy="0" r="1" gradientUnits="userSpaceOnUse" gradientTransform="translate(503.711 761.239) rotate(-110.327) scale(2.84033 2.84033)">
<stop offset="0.19" stop-color="#00FFFF"/>
<stop offset="0.4" stop-color="#01FDFD" stop-opacity="0.99"/>
<stop offset="0.51" stop-color="#02F5F8" stop-opacity="0.96"/>
<stop offset="0.6" stop-color="#06E7EF" stop-opacity="0.91"/>
<stop offset="0.68" stop-color="#0AD4E1" stop-opacity="0.83"/>
<stop offset="0.74" stop-color="#10BBD0" stop-opacity="0.74"/>
<stop offset="0.81" stop-color="#179DBA" stop-opacity="0.62"/>
<stop offset="0.86" stop-color="#2078A1" stop-opacity="0.47"/>
<stop offset="0.92" stop-color="#2A4E84" stop-opacity="0.31"/>
<stop offset="0.97" stop-color="#352063" stop-opacity="0.13"/>
<stop offset="1" stop-color="#3D004D" stop-opacity="0"/>
</radialGradient>
<radialGradient id="paint26_radial_150_8953" cx="0" cy="0" r="1" gradientUnits="userSpaceOnUse" gradientTransform="translate(510.428 712.343) rotate(-110.327) scale(1.39739 1.39739)">
<stop offset="0.19" stop-color="#00FFFF"/>
<stop offset="0.4" stop-color="#01FDFD" stop-opacity="0.99"/>
<stop offset="0.51" stop-color="#02F5F8" stop-opacity="0.96"/>
<stop offset="0.6" stop-color="#06E7EF" stop-opacity="0.91"/>
<stop offset="0.68" stop-color="#0AD4E1" stop-opacity="0.83"/>
<stop offset="0.74" stop-color="#10BBD0" stop-opacity="0.74"/>
<stop offset="0.81" stop-color="#179DBA" stop-opacity="0.62"/>
<stop offset="0.86" stop-color="#2078A1" stop-opacity="0.47"/>
<stop offset="0.92" stop-color="#2A4E84" stop-opacity="0.31"/>
<stop offset="0.97" stop-color="#352063" stop-opacity="0.13"/>
<stop offset="1" stop-color="#3D004D" stop-opacity="0"/>
</radialGradient>
<radialGradient id="paint27_radial_150_8953" cx="0" cy="0" r="1" gradientUnits="userSpaceOnUse" gradientTransform="translate(445.656 734.168) rotate(-110.327) scale(1.09361 1.09361)">
<stop offset="0.19" stop-color="#00FFFF"/>
<stop offset="0.4" stop-color="#01FDFD" stop-opacity="0.99"/>
<stop offset="0.51" stop-color="#02F5F8" stop-opacity="0.96"/>
<stop offset="0.6" stop-color="#06E7EF" stop-opacity="0.91"/>
<stop offset="0.68" stop-color="#0AD4E1" stop-opacity="0.83"/>
<stop offset="0.74" stop-color="#10BBD0" stop-opacity="0.74"/>
<stop offset="0.81" stop-color="#179DBA" stop-opacity="0.62"/>
<stop offset="0.86" stop-color="#2078A1" stop-opacity="0.47"/>
<stop offset="0.92" stop-color="#2A4E84" stop-opacity="0.31"/>
<stop offset="0.97" stop-color="#352063" stop-opacity="0.13"/>
<stop offset="1" stop-color="#3D004D" stop-opacity="0"/>
</radialGradient>
<radialGradient id="paint28_radial_150_8953" cx="0" cy="0" r="1" gradientUnits="userSpaceOnUse" gradientTransform="translate(440.875 715.839) rotate(-110.327) scale(1.98974 1.98975)">
<stop offset="0.19" stop-color="#00FFFF"/>
<stop offset="0.4" stop-color="#01FDFD" stop-opacity="0.99"/>
<stop offset="0.51" stop-color="#02F5F8" stop-opacity="0.96"/>
<stop offset="0.6" stop-color="#06E7EF" stop-opacity="0.91"/>
<stop offset="0.68" stop-color="#0AD4E1" stop-opacity="0.83"/>
<stop offset="0.74" stop-color="#10BBD0" stop-opacity="0.74"/>
<stop offset="0.81" stop-color="#179DBA" stop-opacity="0.62"/>
<stop offset="0.86" stop-color="#2078A1" stop-opacity="0.47"/>
<stop offset="0.92" stop-color="#2A4E84" stop-opacity="0.31"/>
<stop offset="0.97" stop-color="#352063" stop-opacity="0.13"/>
<stop offset="1" stop-color="#3D004D" stop-opacity="0"/>
</radialGradient>
<radialGradient id="paint29_radial_150_8953" cx="0" cy="0" r="1" gradientUnits="userSpaceOnUse" gradientTransform="translate(477.189 762.058) rotate(-110.327) scale(1.68597 1.68598)">
<stop offset="0.19" stop-color="#00FFFF"/>
<stop offset="0.4" stop-color="#01FDFD" stop-opacity="0.99"/>
<stop offset="0.51" stop-color="#02F5F8" stop-opacity="0.96"/>
<stop offset="0.6" stop-color="#06E7EF" stop-opacity="0.91"/>
<stop offset="0.68" stop-color="#0AD4E1" stop-opacity="0.83"/>
<stop offset="0.74" stop-color="#10BBD0" stop-opacity="0.74"/>
<stop offset="0.81" stop-color="#179DBA" stop-opacity="0.62"/>
<stop offset="0.86" stop-color="#2078A1" stop-opacity="0.47"/>
<stop offset="0.92" stop-color="#2A4E84" stop-opacity="0.31"/>
<stop offset="0.97" stop-color="#352063" stop-opacity="0.13"/>
<stop offset="1" stop-color="#3D004D" stop-opacity="0"/>
</radialGradient>
<radialGradient id="paint30_radial_150_8953" cx="0" cy="0" r="1" gradientUnits="userSpaceOnUse" gradientTransform="translate(345.773 712.939) rotate(-110.327) scale(2.43022 2.43023)">
<stop offset="0.19" stop-color="#00FFFF"/>
<stop offset="0.4" stop-color="#01FDFD" stop-opacity="0.99"/>
<stop offset="0.51" stop-color="#02F5F8" stop-opacity="0.96"/>
<stop offset="0.6" stop-color="#06E7EF" stop-opacity="0.91"/>
<stop offset="0.68" stop-color="#0AD4E1" stop-opacity="0.83"/>
<stop offset="0.74" stop-color="#10BBD0" stop-opacity="0.74"/>
<stop offset="0.81" stop-color="#179DBA" stop-opacity="0.62"/>
<stop offset="0.86" stop-color="#2078A1" stop-opacity="0.47"/>
<stop offset="0.92" stop-color="#2A4E84" stop-opacity="0.31"/>
<stop offset="0.97" stop-color="#352063" stop-opacity="0.13"/>
<stop offset="1" stop-color="#3D004D" stop-opacity="0"/>
</radialGradient>
<radialGradient id="paint31_radial_150_8953" cx="0" cy="0" r="1" gradientUnits="userSpaceOnUse" gradientTransform="translate(326.742 722.127) rotate(-110.327) scale(1.16955 1.16955)">
<stop offset="0.19" stop-color="#00FFFF"/>
<stop offset="0.4" stop-color="#01FDFD" stop-opacity="0.99"/>
<stop offset="0.51" stop-color="#02F5F8" stop-opacity="0.96"/>
<stop offset="0.6" stop-color="#06E7EF" stop-opacity="0.91"/>
<stop offset="0.68" stop-color="#0AD4E1" stop-opacity="0.83"/>
<stop offset="0.74" stop-color="#10BBD0" stop-opacity="0.74"/>
<stop offset="0.81" stop-color="#179DBA" stop-opacity="0.62"/>
<stop offset="0.86" stop-color="#2078A1" stop-opacity="0.47"/>
<stop offset="0.92" stop-color="#2A4E84" stop-opacity="0.31"/>
<stop offset="0.97" stop-color="#352063" stop-opacity="0.13"/>
<stop offset="1" stop-color="#3D004D" stop-opacity="0"/>
</radialGradient>
<radialGradient id="paint32_radial_150_8953" cx="0" cy="0" r="1" gradientUnits="userSpaceOnUse" gradientTransform="translate(364.804 868.071) rotate(-110.327) scale(2.21759 2.21759)">
<stop offset="0.19" stop-color="#00FFFF"/>
<stop offset="0.4" stop-color="#01FDFD" stop-opacity="0.99"/>
<stop offset="0.51" stop-color="#02F5F8" stop-opacity="0.96"/>
<stop offset="0.6" stop-color="#06E7EF" stop-opacity="0.91"/>
<stop offset="0.68" stop-color="#0AD4E1" stop-opacity="0.83"/>
<stop offset="0.74" stop-color="#10BBD0" stop-opacity="0.74"/>
<stop offset="0.81" stop-color="#179DBA" stop-opacity="0.62"/>
<stop offset="0.86" stop-color="#2078A1" stop-opacity="0.47"/>
<stop offset="0.92" stop-color="#2A4E84" stop-opacity="0.31"/>
<stop offset="0.97" stop-color="#352063" stop-opacity="0.13"/>
<stop offset="1" stop-color="#3D004D" stop-opacity="0"/>
</radialGradient>
<radialGradient id="paint33_radial_150_8953" cx="0" cy="0" r="1" gradientUnits="userSpaceOnUse" gradientTransform="translate(388.156 870.505) rotate(-110.327) scale(2.0505 2.05051)">
<stop offset="0.19" stop-color="#00FFFF"/>
<stop offset="0.4" stop-color="#01FDFD" stop-opacity="0.99"/>
<stop offset="0.51" stop-color="#02F5F8" stop-opacity="0.96"/>
<stop offset="0.6" stop-color="#06E7EF" stop-opacity="0.91"/>
<stop offset="0.68" stop-color="#0AD4E1" stop-opacity="0.83"/>
<stop offset="0.74" stop-color="#10BBD0" stop-opacity="0.74"/>
<stop offset="0.81" stop-color="#179DBA" stop-opacity="0.62"/>
<stop offset="0.86" stop-color="#2078A1" stop-opacity="0.47"/>
<stop offset="0.92" stop-color="#2A4E84" stop-opacity="0.31"/>
<stop offset="0.97" stop-color="#352063" stop-opacity="0.13"/>
<stop offset="1" stop-color="#3D004D" stop-opacity="0"/>
</radialGradient>
<radialGradient id="paint34_radial_150_8953" cx="0" cy="0" r="1" gradientUnits="userSpaceOnUse" gradientTransform="translate(435.019 875.19) rotate(-110.327) scale(2.59732 2.59732)">
<stop offset="0.19" stop-color="#00FFFF"/>
<stop offset="0.4" stop-color="#01FDFD" stop-opacity="0.99"/>
<stop offset="0.51" stop-color="#02F5F8" stop-opacity="0.96"/>
<stop offset="0.6" stop-color="#06E7EF" stop-opacity="0.91"/>
<stop offset="0.68" stop-color="#0AD4E1" stop-opacity="0.83"/>
<stop offset="0.74" stop-color="#10BBD0" stop-opacity="0.74"/>
<stop offset="0.81" stop-color="#179DBA" stop-opacity="0.62"/>
<stop offset="0.86" stop-color="#2078A1" stop-opacity="0.47"/>
<stop offset="0.92" stop-color="#2A4E84" stop-opacity="0.31"/>
<stop offset="0.97" stop-color="#352063" stop-opacity="0.13"/>
<stop offset="1" stop-color="#3D004D" stop-opacity="0"/>
</radialGradient>
<radialGradient id="paint35_radial_150_8953" cx="0" cy="0" r="1" gradientUnits="userSpaceOnUse" gradientTransform="translate(503.886 881.474) rotate(-110.327) scale(2.09608 2.09608)">
<stop offset="0.19" stop-color="#00FFFF"/>
<stop offset="0.4" stop-color="#01FDFD" stop-opacity="0.99"/>
<stop offset="0.51" stop-color="#02F5F8" stop-opacity="0.96"/>
<stop offset="0.6" stop-color="#06E7EF" stop-opacity="0.91"/>
<stop offset="0.68" stop-color="#0AD4E1" stop-opacity="0.83"/>
<stop offset="0.74" stop-color="#10BBD0" stop-opacity="0.74"/>
<stop offset="0.81" stop-color="#179DBA" stop-opacity="0.62"/>
<stop offset="0.86" stop-color="#2078A1" stop-opacity="0.47"/>
<stop offset="0.92" stop-color="#2A4E84" stop-opacity="0.31"/>
<stop offset="0.97" stop-color="#352063" stop-opacity="0.13"/>
<stop offset="1" stop-color="#3D004D" stop-opacity="0"/>
</radialGradient>
<radialGradient id="paint36_radial_150_8953" cx="0" cy="0" r="1" gradientUnits="userSpaceOnUse" gradientTransform="translate(547.948 885.641) rotate(-110.327) scale(1.39738 1.39738)">
<stop offset="0.19" stop-color="#00FFFF"/>
<stop offset="0.4" stop-color="#01FDFD" stop-opacity="0.99"/>
<stop offset="0.51" stop-color="#02F5F8" stop-opacity="0.96"/>
<stop offset="0.6" stop-color="#06E7EF" stop-opacity="0.91"/>
<stop offset="0.68" stop-color="#0AD4E1" stop-opacity="0.83"/>
<stop offset="0.74" stop-color="#10BBD0" stop-opacity="0.74"/>
<stop offset="0.81" stop-color="#179DBA" stop-opacity="0.62"/>
<stop offset="0.86" stop-color="#2078A1" stop-opacity="0.47"/>
<stop offset="0.92" stop-color="#2A4E84" stop-opacity="0.31"/>
<stop offset="0.97" stop-color="#352063" stop-opacity="0.13"/>
<stop offset="1" stop-color="#3D004D" stop-opacity="0"/>
</radialGradient>
<radialGradient id="paint37_radial_150_8953" cx="0" cy="0" r="1" gradientUnits="userSpaceOnUse" gradientTransform="translate(279.192 608.105) rotate(-110.327) scale(1.71636 1.71635)">
<stop offset="0.19" stop-color="#00FFFF"/>
<stop offset="0.4" stop-color="#01FDFD" stop-opacity="0.99"/>
<stop offset="0.51" stop-color="#02F5F8" stop-opacity="0.96"/>
<stop offset="0.6" stop-color="#06E7EF" stop-opacity="0.91"/>
<stop offset="0.68" stop-color="#0AD4E1" stop-opacity="0.83"/>
<stop offset="0.74" stop-color="#10BBD0" stop-opacity="0.74"/>
<stop offset="0.81" stop-color="#179DBA" stop-opacity="0.62"/>
<stop offset="0.86" stop-color="#2078A1" stop-opacity="0.47"/>
<stop offset="0.92" stop-color="#2A4E84" stop-opacity="0.31"/>
<stop offset="0.97" stop-color="#352063" stop-opacity="0.13"/>
<stop offset="1" stop-color="#3D004D" stop-opacity="0"/>
</radialGradient>
<radialGradient id="paint38_radial_150_8953" cx="0" cy="0" r="1" gradientUnits="userSpaceOnUse" gradientTransform="translate(175.313 574.522) rotate(-110.327) scale(1.59484)">
<stop offset="0.19" stop-color="#00FFFF"/>
<stop offset="0.4" stop-color="#01FDFD" stop-opacity="0.99"/>
<stop offset="0.51" stop-color="#02F5F8" stop-opacity="0.96"/>
<stop offset="0.6" stop-color="#06E7EF" stop-opacity="0.91"/>
<stop offset="0.68" stop-color="#0AD4E1" stop-opacity="0.83"/>
<stop offset="0.74" stop-color="#10BBD0" stop-opacity="0.74"/>
<stop offset="0.81" stop-color="#179DBA" stop-opacity="0.62"/>
<stop offset="0.86" stop-color="#2078A1" stop-opacity="0.47"/>
<stop offset="0.92" stop-color="#2A4E84" stop-opacity="0.31"/>
<stop offset="0.97" stop-color="#352063" stop-opacity="0.13"/>
<stop offset="1" stop-color="#3D004D" stop-opacity="0"/>
</radialGradient>
</defs>
</svg>
