<svg width="61" height="53" viewBox="0 0 61 53" fill="none" xmlns="http://www.w3.org/2000/svg">
<path d="M59.872 51.4139C59.872 51.4139 44.9231 35.9162 44.9122 35.9107C44.5852 35.5824 44.147 35.3885 43.6841 35.3673C43.2201 35.3414 42.7636 35.493 42.4072 35.7912L40.6465 34.0306C43.67 29.518 44.9033 24.0408 44.1058 18.6679C43.3083 13.295 40.5372 8.41209 36.3334 4.97232C32.1296 1.53256 26.7948 -0.217199 21.3703 0.0645847C15.9459 0.346368 10.8211 2.63948 6.99633 6.4963C3.17156 10.3531 0.921299 15.4969 0.684791 20.9235C0.448283 26.3501 2.2425 31.6701 5.71723 35.845C9.19195 40.02 14.0978 42.7503 19.4772 43.5029C24.8565 44.2556 30.3233 42.9766 34.8104 39.9156L36.4895 41.6001C36.1652 41.9473 35.9848 42.4047 35.9848 42.8798C35.9848 43.3549 36.1652 43.8123 36.4895 44.1595L43.4994 51.3976C43.6711 51.574 43.9054 51.6755 44.1515 51.6802C44.2728 51.682 44.3934 51.6599 44.5062 51.6152C44.619 51.5704 44.7219 51.5039 44.809 51.4193C44.8954 51.333 44.964 51.2305 45.0107 51.1177C45.0575 51.0049 45.0816 50.884 45.0816 50.7618C45.0816 50.6397 45.0575 50.5187 45.0107 50.4059C44.964 50.2931 44.8954 50.1906 44.809 50.1043L37.8535 42.8499L40.0271 40.6763L42.7441 43.3933C42.9206 43.553 43.1517 43.6388 43.3897 43.6331C43.6277 43.6274 43.8544 43.5305 44.023 43.3626C44.1917 43.1946 44.2895 42.9683 44.2962 42.7303C44.3029 42.4924 44.218 42.2609 44.0591 42.0837L41.3421 39.3667L43.5592 37.1931L58.5189 52.6963C58.6467 52.8286 58.8108 52.92 58.9905 52.959C59.1702 52.998 59.3574 52.9828 59.5285 52.9153C59.6995 52.8478 59.8467 52.7311 59.9514 52.5799C60.0561 52.4287 60.1135 52.2498 60.1165 52.066C60.121 51.9465 60.1017 51.8273 60.0597 51.7154C60.0177 51.6034 59.9539 51.5009 59.872 51.4139ZM22.5296 41.8446C17.2379 41.836 12.1654 39.7297 8.42406 35.9873C4.68272 32.245 2.57777 27.1719 2.57058 21.8802C2.57166 17.9329 3.74315 14.0745 5.93693 10.793C8.13071 7.51145 11.2483 4.9541 14.8954 3.44428C18.5425 1.93446 22.5555 1.53998 26.4268 2.31072C30.2981 3.08145 33.8539 4.9828 36.6447 7.77434C39.4355 10.5659 41.3359 14.1223 42.1056 17.9938C42.8752 21.8653 42.4797 25.8781 40.9689 29.5249C39.458 33.1716 36.8998 36.2884 33.6177 38.4813C30.3356 40.6742 26.4769 41.8446 22.5296 41.8446ZM37.8154 40.2796L36.3157 38.7799C37.5006 37.8085 38.5806 36.7158 39.538 35.5195L41.0758 37.0627L37.8154 40.2796Z" fill="url(#paint0_linear_474_120)"/>
<path d="M15.9762 15.3268C14.4588 16.8443 13.5145 18.841 13.3042 20.9767C13.0939 23.1124 13.6307 25.2549 14.823 27.0392C16.0153 28.8235 17.7894 30.1392 19.843 30.7621C21.8967 31.385 24.1027 31.2765 26.0854 30.4552C28.068 29.6339 29.7045 28.1506 30.7161 26.2579C31.7276 24.3653 32.0517 22.1804 31.6329 20.0757C31.2142 17.9709 30.0786 16.0764 28.4197 14.7151C26.7607 13.3537 24.6811 12.6097 22.5351 12.6098C20.0751 12.6105 17.7161 13.5877 15.9762 15.3268ZM29.9633 21.8856C29.9647 23.6072 29.3688 25.2761 28.2773 26.6075C27.1859 27.939 25.6664 28.8506 23.9779 29.1871C22.2894 29.5235 20.5366 29.2639 19.0181 28.4525C17.4997 27.641 16.3097 26.3281 15.651 24.7374C14.9923 23.1467 14.9058 21.3768 15.4061 19.7295C15.9064 18.0821 16.9627 16.6593 18.3947 15.7036C19.8267 14.7479 21.5459 14.3185 23.2591 14.4886C24.9724 14.6587 26.5736 15.4177 27.7897 16.6363C29.1769 18.0292 29.9564 19.9144 29.9579 21.8802L29.9633 21.8856Z" fill="url(#paint1_linear_474_120)"/>
<path d="M12.7158 12.0664C14.6484 10.1356 17.1043 8.81319 19.78 8.26261V6.37702C16.6097 6.95083 13.6902 8.47903 11.4121 10.7572C9.13389 13.0354 7.6057 15.9549 7.03188 19.1252H8.91204C9.46482 16.4518 10.787 13.9982 12.7158 12.0664Z" fill="url(#paint2_linear_474_120)"/>
<path d="M36.1798 19.0979H38.0654C37.4915 15.9276 35.9633 13.0081 33.6852 10.73C31.407 8.45179 28.4875 6.92359 25.3172 6.34978V8.26254C27.9932 8.81251 30.449 10.1352 32.3808 12.067C34.3125 13.9987 35.6352 16.4546 36.1852 19.1305L36.1798 19.0979Z" fill="url(#paint3_linear_474_120)"/>
<path d="M32.3759 31.7265C30.4418 33.6552 27.9866 34.9773 25.3117 35.5303V37.4159C28.482 36.842 31.4015 35.3138 33.6797 33.0357C35.9578 30.7575 37.486 27.838 38.0598 24.6677H36.1797C35.6269 27.3411 34.3048 29.7946 32.3759 31.7265Z" fill="url(#paint4_linear_474_120)"/>
<path d="M8.91205 24.6677H6.99928C7.5731 27.838 9.1013 30.7575 11.3795 33.0357C13.6576 35.3138 16.5771 36.8421 19.7474 37.4159V35.5303C17.0715 34.9803 14.6156 33.6576 12.6839 31.7258C10.7521 29.7941 9.42941 27.3382 8.87944 24.6623L8.91205 24.6677Z" fill="url(#paint5_linear_474_120)"/>
<path d="M22.5296 9.81124C22.776 9.81124 23.0124 9.71337 23.1866 9.53911C23.3609 9.36485 23.4588 9.12849 23.4588 8.88205V5.17062C23.4686 5.04299 23.4519 4.91471 23.4098 4.79383C23.3676 4.67296 23.301 4.56208 23.214 4.46817C23.127 4.37426 23.0216 4.29934 22.9042 4.2481C22.7869 4.19686 22.6603 4.1704 22.5323 4.1704C22.4043 4.1704 22.2777 4.19686 22.1604 4.2481C22.0431 4.29934 21.9376 4.37426 21.8506 4.46817C21.7636 4.56208 21.697 4.67296 21.6548 4.79383C21.6127 4.91471 21.596 5.04299 21.6058 5.17062V8.88205C21.6058 9.12755 21.703 9.36308 21.876 9.53718C22.0491 9.71129 22.2841 9.8098 22.5296 9.81124Z" fill="url(#paint6_linear_474_120)"/>
<path d="M22.5296 33.0252C22.4083 33.0252 22.2882 33.0491 22.1761 33.0956C22.064 33.142 21.9622 33.21 21.8764 33.2958C21.7906 33.3816 21.7226 33.4834 21.6761 33.5955C21.6297 33.7076 21.6058 33.8277 21.6058 33.949V37.6659C21.596 37.7935 21.6127 37.9218 21.6548 38.0427C21.697 38.1635 21.7636 38.2744 21.8506 38.3683C21.9376 38.4622 22.0431 38.5371 22.1604 38.5884C22.2777 38.6396 22.4043 38.6661 22.5323 38.6661C22.6603 38.6661 22.7869 38.6396 22.9042 38.5884C23.0216 38.5371 23.127 38.4622 23.214 38.3683C23.301 38.2744 23.3676 38.1635 23.4098 38.0427C23.4519 37.9218 23.4686 37.7935 23.4588 37.6659V33.949C23.4588 33.8273 23.4347 33.7067 23.388 33.5942C23.3412 33.4818 23.2727 33.3797 23.1863 33.2939C23.1 33.208 22.9975 33.1401 22.8848 33.094C22.7721 33.0479 22.6514 33.0245 22.5296 33.0252Z" fill="url(#paint7_linear_474_120)"/>
<path d="M38.7991 20.9509H35.0659C34.9439 20.9509 34.8231 20.975 34.7103 21.0217C34.5976 21.0683 34.4952 21.1368 34.4089 21.2231C34.3226 21.3094 34.2541 21.4118 34.2074 21.5246C34.1607 21.6373 34.1367 21.7581 34.1367 21.8801C34.1367 22.0022 34.1607 22.123 34.2074 22.2357C34.2541 22.3485 34.3226 22.4509 34.4089 22.5372C34.4952 22.6235 34.5976 22.6919 34.7103 22.7386C34.8231 22.7853 34.9439 22.8094 35.0659 22.8094H38.7991C38.9211 22.8094 39.0419 22.7853 39.1547 22.7386C39.2674 22.6919 39.3698 22.6235 39.4561 22.5372C39.5424 22.4509 39.6109 22.3485 39.6576 22.2357C39.7042 22.123 39.7283 22.0022 39.7283 21.8801C39.7283 21.7581 39.7042 21.6373 39.6576 21.5246C39.6109 21.4118 39.5424 21.3094 39.4561 21.2231C39.3698 21.1368 39.2674 21.0683 39.1547 21.0217C39.0419 20.975 38.9211 20.9509 38.7991 20.9509Z" fill="url(#paint8_linear_474_120)"/>
<path d="M10.9279 21.8801C10.9265 21.6341 10.8282 21.3986 10.6542 21.2247C10.4803 21.0507 10.2447 20.9523 9.99873 20.9509H6.28732C6.16529 20.9509 6.04446 20.975 5.93172 21.0217C5.81899 21.0683 5.71655 21.1368 5.63027 21.2231C5.54398 21.3094 5.47554 21.4118 5.42884 21.5246C5.38214 21.6373 5.35811 21.7581 5.35811 21.8801C5.35811 22.0022 5.38214 22.123 5.42884 22.2357C5.47554 22.3485 5.54398 22.4509 5.63027 22.5372C5.71655 22.6235 5.81899 22.6919 5.93172 22.7386C6.04446 22.7853 6.16529 22.8094 6.28732 22.8094H9.99873C10.2447 22.8079 10.4803 22.7096 10.6542 22.5356C10.8282 22.3616 10.9265 22.1261 10.9279 21.8801Z" fill="url(#paint9_linear_474_120)"/>
<path d="M19.3615 18.7121C19.0916 18.9813 18.9114 19.3271 18.8452 19.7025C18.7791 20.0779 18.8303 20.4645 18.9919 20.8097L21.1655 25.4503C21.2733 25.6838 21.4285 25.8923 21.6212 26.0626C21.8139 26.2328 22.0399 26.3611 22.2849 26.4393C22.5311 26.518 22.7909 26.5446 23.0479 26.5175C23.3048 26.4905 23.5534 26.4102 23.7777 26.282C24.002 26.1537 24.1972 25.9802 24.3509 25.7725C24.5046 25.5648 24.6134 25.3274 24.6705 25.0753L24.877 24.1624L25.6486 24.0211C25.9058 23.9765 26.1504 23.8773 26.366 23.7301C26.5816 23.583 26.7632 23.3913 26.8984 23.168C27.0348 22.9448 27.1228 22.6955 27.1565 22.4361C27.1903 22.1767 27.169 21.9131 27.0942 21.6625C27.0193 21.4119 26.8926 21.1798 26.7222 20.9814C26.5518 20.7829 26.3415 20.6226 26.105 20.5108C25.6431 20.2988 21.2851 18.1742 20.671 18.1796C20.1815 18.1782 19.7111 18.3695 19.3615 18.7121ZM23.3174 22.554L22.8392 24.6678L20.6656 20.0217L25.3062 22.1953L23.3174 22.554Z" fill="url(#paint10_linear_474_120)"/>
<defs>
<linearGradient id="paint0_linear_474_120" x1="0.664063" y1="26.5076" x2="78.7422" y2="26.5076" gradientUnits="userSpaceOnUse">
<stop stop-color="#35C5F5"/>
<stop offset="0.56636" stop-color="#147AA3"/>
<stop offset="1" stop-color="#004C70"/>
</linearGradient>
<linearGradient id="paint1_linear_474_120" x1="0.664063" y1="26.5076" x2="78.7422" y2="26.5076" gradientUnits="userSpaceOnUse">
<stop stop-color="#35C5F5"/>
<stop offset="0.56636" stop-color="#147AA3"/>
<stop offset="1" stop-color="#004C70"/>
</linearGradient>
<linearGradient id="paint2_linear_474_120" x1="0.664063" y1="26.5076" x2="78.7422" y2="26.5076" gradientUnits="userSpaceOnUse">
<stop stop-color="#35C5F5"/>
<stop offset="0.56636" stop-color="#147AA3"/>
<stop offset="1" stop-color="#004C70"/>
</linearGradient>
<linearGradient id="paint3_linear_474_120" x1="0.664063" y1="26.5076" x2="78.7422" y2="26.5076" gradientUnits="userSpaceOnUse">
<stop stop-color="#35C5F5"/>
<stop offset="0.56636" stop-color="#147AA3"/>
<stop offset="1" stop-color="#004C70"/>
</linearGradient>
<linearGradient id="paint4_linear_474_120" x1="0.664063" y1="26.5076" x2="78.7422" y2="26.5076" gradientUnits="userSpaceOnUse">
<stop stop-color="#35C5F5"/>
<stop offset="0.56636" stop-color="#147AA3"/>
<stop offset="1" stop-color="#004C70"/>
</linearGradient>
<linearGradient id="paint5_linear_474_120" x1="0.664063" y1="26.5076" x2="78.7422" y2="26.5076" gradientUnits="userSpaceOnUse">
<stop stop-color="#35C5F5"/>
<stop offset="0.56636" stop-color="#147AA3"/>
<stop offset="1" stop-color="#004C70"/>
</linearGradient>
<linearGradient id="paint6_linear_474_120" x1="0.664063" y1="26.5076" x2="78.7422" y2="26.5076" gradientUnits="userSpaceOnUse">
<stop stop-color="#35C5F5"/>
<stop offset="0.56636" stop-color="#147AA3"/>
<stop offset="1" stop-color="#004C70"/>
</linearGradient>
<linearGradient id="paint7_linear_474_120" x1="0.664063" y1="26.5076" x2="78.7422" y2="26.5076" gradientUnits="userSpaceOnUse">
<stop stop-color="#35C5F5"/>
<stop offset="0.56636" stop-color="#147AA3"/>
<stop offset="1" stop-color="#004C70"/>
</linearGradient>
<linearGradient id="paint8_linear_474_120" x1="0.664063" y1="26.5076" x2="78.7422" y2="26.5076" gradientUnits="userSpaceOnUse">
<stop stop-color="#35C5F5"/>
<stop offset="0.56636" stop-color="#147AA3"/>
<stop offset="1" stop-color="#004C70"/>
</linearGradient>
<linearGradient id="paint9_linear_474_120" x1="0.664063" y1="26.5076" x2="78.7422" y2="26.5076" gradientUnits="userSpaceOnUse">
<stop stop-color="#35C5F5"/>
<stop offset="0.56636" stop-color="#147AA3"/>
<stop offset="1" stop-color="#004C70"/>
</linearGradient>
<linearGradient id="paint10_linear_474_120" x1="0.664063" y1="26.5076" x2="78.7422" y2="26.5076" gradientUnits="userSpaceOnUse">
<stop stop-color="#35C5F5"/>
<stop offset="0.56636" stop-color="#147AA3"/>
<stop offset="1" stop-color="#004C70"/>
</linearGradient>
</defs>
</svg>
