<svg width="48" height="58" viewBox="0 0 48 58" fill="none" xmlns="http://www.w3.org/2000/svg">
<path d="M6.94358 51.8516H21.905C22.1096 51.8516 22.3059 51.7703 22.4506 51.6257C22.5952 51.481 22.6765 51.2847 22.6765 51.0801C22.6765 50.8755 22.5952 50.6793 22.4506 50.5346C22.3059 50.3899 22.1096 50.3086 21.905 50.3086H6.94358C6.73896 50.3086 6.54273 50.3899 6.39804 50.5346C6.25335 50.6793 6.17207 50.8755 6.17207 51.0801C6.17207 51.2847 6.25335 51.481 6.39804 51.6257C6.54273 51.7703 6.73896 51.8516 6.94358 51.8516Z" fill="url(#paint0_linear_474_14)"/>
<path d="M6.94358 47.2404H13.8931C14.0978 47.2404 14.294 47.1591 14.4387 47.0144C14.5834 46.8697 14.6647 46.6735 14.6647 46.4688C14.6647 46.2642 14.5834 46.068 14.4387 45.9233C14.294 45.7786 14.0978 45.6973 13.8931 45.6973H6.94358C6.73896 45.6973 6.54273 45.7786 6.39804 45.9233C6.25335 46.068 6.17207 46.2642 6.17207 46.4688C6.17207 46.6735 6.25335 46.8697 6.39804 47.0144C6.54273 47.1591 6.73896 47.2404 6.94358 47.2404Z" fill="url(#paint1_linear_474_14)"/>
<path d="M21.3887 30.2789C22.0508 30.2789 22.5875 29.7422 22.5875 29.0801C22.5875 28.418 22.0508 27.8813 21.3887 27.8813C20.7266 27.8813 20.1899 28.418 20.1899 29.0801C20.1899 29.7422 20.7266 30.2789 21.3887 30.2789Z" fill="url(#paint2_linear_474_14)"/>
<path d="M47.2166 49.2759L36.8486 38.5519C36.5965 38.2917 36.255 38.1368 35.8931 38.1187C35.5835 38.1018 35.2769 38.1873 35.0207 38.362L33.9881 37.3353C36.0656 34.1661 36.8916 30.3381 36.3057 26.5943C35.7199 22.8504 33.7639 19.4578 30.8175 17.0748C27.8711 14.6919 24.1444 13.4886 20.3608 13.6986C16.5773 13.9086 13.0066 15.5168 10.342 18.2111C7.67733 20.9054 6.10877 24.4937 5.94074 28.2794C5.7727 32.0651 7.01718 35.7782 9.43263 38.698C11.8481 41.6178 15.2622 43.536 19.0123 44.0804C22.7624 44.6248 26.581 43.7564 29.727 41.6439L30.6943 42.6172C30.5057 42.8708 30.4056 43.1794 30.4095 43.4955C30.4094 43.8659 30.5543 44.2216 30.813 44.4866L35.6558 49.4896C35.7325 49.5694 35.8247 49.6326 35.9268 49.6755C36.0288 49.7183 36.1385 49.7399 36.2492 49.7389C36.4685 49.7415 36.6805 49.6609 36.8427 49.5133C36.9225 49.437 36.9854 49.3447 37.0274 49.2424C37.0693 49.1402 37.0893 49.0303 37.086 48.9199C37.0923 48.8106 37.0755 48.7013 37.0366 48.5991C36.9977 48.4968 36.9377 48.4039 36.8605 48.3264L32.1127 43.4302L33.4006 42.1602L35.181 43.9406C35.335 44.0299 35.5145 44.0653 35.6909 44.0413C35.8673 44.0172 36.0307 43.935 36.1553 43.8078C36.2798 43.6805 36.3584 43.5154 36.3787 43.3385C36.3989 43.1616 36.3596 42.9829 36.267 42.8308L34.4866 41.0504L35.7923 39.7626L39.9169 44.0178V53.365C39.9169 54.0119 39.6599 54.6323 39.2025 55.0897C38.745 55.5472 38.1246 55.8041 37.4777 55.8041H5.08008C4.43421 55.8026 3.81532 55.5449 3.35917 55.0876C2.90302 54.6304 2.64685 54.0108 2.64685 53.365V4.77149C2.64685 4.12561 2.90302 3.50609 3.35917 3.04883C3.81532 2.59157 4.43421 2.33389 5.08008 2.33232H6.52815C6.72862 3.75015 7.43496 5.04769 8.51691 5.98567C9.59886 6.92366 10.9835 7.43883 12.4154 7.43618H30.1483C31.5803 7.43883 32.9649 6.92366 34.0468 5.98567C35.1288 5.04769 35.8351 3.75015 36.0356 2.33232H37.4777C38.1246 2.33232 38.745 2.5893 39.2025 3.04674C39.6599 3.50417 39.9169 4.12458 39.9169 4.77149V37.1513C39.9169 37.378 40.0069 37.5953 40.1672 37.7556C40.3275 37.9159 40.5448 38.0059 40.7715 38.0059C40.9981 38.0059 41.2155 37.9159 41.3758 37.7556C41.536 37.5953 41.6261 37.378 41.6261 37.1513V4.77149C41.6261 3.6697 41.1884 2.61304 40.4093 1.83395C39.6302 1.05487 38.5736 0.617188 37.4718 0.617188H5.08008C3.97829 0.617188 2.92163 1.05487 2.14255 1.83395C1.36346 2.61304 0.925781 3.6697 0.925781 4.77149V53.3828C0.925781 54.4846 1.36346 55.5412 2.14255 56.3203C2.92163 57.0994 3.97829 57.5371 5.08008 57.5371H37.5074C38.6092 57.5371 39.6658 57.0994 40.4449 56.3203C41.224 55.5412 41.6617 54.4846 41.6617 53.3828V45.7982L46.0771 50.3798C46.1542 50.4588 46.2466 50.5211 46.3486 50.563C46.4507 50.6048 46.5603 50.6253 46.6706 50.6231C46.879 50.6246 47.0796 50.5435 47.2285 50.3976C47.3782 50.2498 47.4653 50.05 47.4718 49.8397C47.4688 49.7335 47.4446 49.629 47.4008 49.5322C47.357 49.4354 47.2944 49.3483 47.2166 49.2759ZM27.905 34.3679H30.3679C30.5946 34.3679 30.8119 34.2779 30.9722 34.1176C31.1325 33.9574 31.2225 33.74 31.2225 33.5133C31.2225 33.2867 31.1325 33.0693 30.9722 32.909C30.8119 32.7488 30.5946 32.6587 30.3679 32.6587H25.816C25.5903 32.6618 25.3747 32.7528 25.2151 32.9124C25.0555 33.072 24.9645 33.2876 24.9614 33.5133V38C24.9614 38.2266 25.0514 38.444 25.2117 38.6043C25.372 38.7645 25.5893 38.8546 25.816 38.8546C26.0426 38.8546 26.26 38.7645 26.4203 38.6043C26.5806 38.444 26.6706 38.2266 26.6706 38V35.5549L30.3264 39.1513C27.8285 41.3689 24.6043 42.5937 21.2641 42.5937C17.9239 42.5937 14.6996 41.3689 12.2017 39.1513L15.8575 35.5489V37.994C15.8575 38.2207 15.9476 38.4381 16.1078 38.5983C16.2681 38.7586 16.4855 38.8486 16.7121 38.8486C16.9388 38.8486 17.1562 38.7586 17.3164 38.5983C17.4767 38.4381 17.5667 38.2207 17.5667 37.994V33.5133C17.5667 33.4599 17.5667 33.3887 17.5667 33.3531C17.5272 33.1582 17.4219 32.9829 17.2685 32.8565C17.1151 32.73 16.9228 32.6602 16.724 32.6587H12.1602C12.048 32.6587 11.9368 32.6808 11.8332 32.7238C11.7295 32.7667 11.6353 32.8297 11.5559 32.909C11.4766 32.9884 11.4136 33.0826 11.3707 33.1863C11.3277 33.29 11.3056 33.4011 11.3056 33.5133C11.3056 33.6256 11.3277 33.7367 11.3707 33.8404C11.4136 33.9441 11.4766 34.0383 11.5559 34.1176C11.6353 34.197 11.7295 34.2599 11.8332 34.3029C11.9368 34.3458 12.048 34.3679 12.1602 34.3679H14.629L10.997 37.9288C8.81071 35.4464 7.60572 32.2514 7.60827 28.9436V28.8249C7.63034 25.595 8.80706 22.4795 10.9258 20.0415L14.629 23.6854H12.1602C11.9335 23.6854 11.7162 23.7755 11.5559 23.9357C11.3956 24.096 11.3056 24.3134 11.3056 24.54C11.3056 24.7667 11.3956 24.9841 11.5559 25.1443C11.7162 25.3046 11.9335 25.3946 12.1602 25.3946H16.7121C16.9337 25.3855 17.1433 25.2919 17.2979 25.1329C17.4524 24.9739 17.5401 24.7617 17.543 24.54V20.0534C17.543 19.8267 17.453 19.6094 17.2927 19.4491C17.1324 19.2888 16.915 19.1988 16.6884 19.1988C16.4617 19.1988 16.2444 19.2888 16.0841 19.4491C15.9238 19.6094 15.8338 19.8267 15.8338 20.0534V22.4985L12.1009 18.819C14.5992 16.5519 17.8549 15.3009 21.2285 15.3116C24.6092 15.3026 27.8712 16.5578 30.3739 18.8308L26.6469 22.4985V20.0534C26.6469 19.8267 26.5568 19.6094 26.3965 19.4491C26.2363 19.2888 26.0189 19.1988 25.7923 19.1988C25.5656 19.1988 25.3482 19.2888 25.188 19.4491C25.0277 19.6094 24.9377 19.8267 24.9377 20.0534V24.54C24.9377 24.5935 24.9377 24.6469 24.9377 24.7062C24.9739 24.901 25.0777 25.0768 25.2307 25.2027C25.3838 25.3286 25.5763 25.3966 25.7744 25.3946H30.3264C30.553 25.3946 30.7704 25.3046 30.9307 25.1443C31.0909 24.9841 31.181 24.7667 31.181 24.54C31.181 24.3134 31.0909 24.096 30.9307 23.9357C30.7704 23.7755 30.553 23.6854 30.3264 23.6854H27.905L31.5905 20.0534C33.7328 22.5431 34.9055 25.7217 34.8935 29.0062C34.8815 32.2907 33.6856 35.4607 31.5252 37.9347L27.905 34.3679ZM31.8219 41.4896L31.0207 40.6884C31.7505 40.0773 32.4221 39.3998 33.0267 38.6647L33.8516 39.4955L31.8219 41.4896ZM30.1483 5.72698H12.3857C11.4096 5.72429 10.4642 5.3861 9.70779 4.76912C8.95143 4.15215 8.43017 3.29389 8.23142 2.33826H34.3442C34.144 3.30089 33.6166 4.16449 32.8517 4.78227C32.0868 5.40004 31.1315 5.73386 30.1483 5.72698Z" fill="url(#paint3_linear_474_14)"/>
<defs>
<linearGradient id="paint0_linear_474_14" x1="0.925782" y1="29.0771" x2="62.0534" y2="29.0771" gradientUnits="userSpaceOnUse">
<stop stop-color="#35C5F5"/>
<stop offset="0.56636" stop-color="#147AA3"/>
<stop offset="1" stop-color="#004C70"/>
</linearGradient>
<linearGradient id="paint1_linear_474_14" x1="0.925782" y1="29.0771" x2="62.0534" y2="29.0771" gradientUnits="userSpaceOnUse">
<stop stop-color="#35C5F5"/>
<stop offset="0.56636" stop-color="#147AA3"/>
<stop offset="1" stop-color="#004C70"/>
</linearGradient>
<linearGradient id="paint2_linear_474_14" x1="0.925782" y1="29.0771" x2="62.0534" y2="29.0771" gradientUnits="userSpaceOnUse">
<stop stop-color="#35C5F5"/>
<stop offset="0.56636" stop-color="#147AA3"/>
<stop offset="1" stop-color="#004C70"/>
</linearGradient>
<linearGradient id="paint3_linear_474_14" x1="0.925782" y1="29.0771" x2="62.0534" y2="29.0771" gradientUnits="userSpaceOnUse">
<stop stop-color="#35C5F5"/>
<stop offset="0.56636" stop-color="#147AA3"/>
<stop offset="1" stop-color="#004C70"/>
</linearGradient>
</defs>
</svg>
